<svg enable-background="new 0 0 216 72" viewBox="0 0 216 72" xmlns="http://www.w3.org/2000/svg"><path d="m77.3 63.8.8.8c.4-.6.8-1.1 1.1-1.7 1.8-3.3 3.6-6.7 5.3-10 1-1.8 1.9-3.6 2.9-5.4.7-1.3.5-1.6-1-1.7-2.2-.2-4.5-.5-6.7-.9-.8-.1-1.4-.1-1.7.8-.7 1.7-1.6 3.4-3.4 4.1-1.2.5-2.2 1-2.9 2.1-.4.6-1.2.1-1.3-.8-.1-.7 0-1.5 0-2.3 0-.4-.1-.9-.1-1.5-.5.3-.7.4-.9.6-.7.7-1.4 1.4-2.1 2-1 .9-1.4.8-2.4-.2-.1-.1-.2-.2-.2-.1-.7.3-1.4.9-2 .8-.5-.1-1-.8-1.6-1.4-.1.2-.4.5-.7.9-.3.3-.6.7-1 1-.3.2-.9.5-1.1.4-.4-.3-.8-.8-.8-1.2 0-.8.2-1.6.3-2.4.1-.5.1-.9.2-1.4-.1 0-.2-.1-.3-.1-.2.3-.5.5-.7.8-.7 1.1-1.2 2.2-1.9 3.3-.2.3-.6.4-.9.5-.1-.4-.3-.8-.3-1.1.4-1.5.9-3 1.3-4.5 0-.1 0-.2-.2-.5-.3.5-.7.9-1 1.4-1.2 1.8-2.4 3.7-3.6 5.5-.2.2-.6.3-.9.4 0-.3-.1-.7 0-1 .7-1.9 1.5-3.7 2.3-5.5.1-.2 0-.4 0-1-.5.4-.8.8-1.2.9-1.4.5-1.9 1.7-2.5 2.9-.5.9-1.1 1.8-1.8 2.6-.3.3-1 .6-1.4.5-.3 0-.4-.7-.7-1.1 0-.1-.1-.2-.2-.4-.3.2-.6.4-.8.6-.7.6-1.4 1.5-2.4 1.1s-1.2-1.5-1.1-2.5c0-.1 0-.2-.3-.5-.3.5-.6 1-.9 1.6-.5.9-1 1.8-1.5 2.6-.2.3-.7.5-.9.5-.2-.1-.5-.6-.5-.9 0-.9.1-1.9.1-2.8 0-.3 0-.5 0-.8-.1 0-.2-.1-.3-.1-.3.5-.6.9-.8 1.4-1.1 1.8-2.1 3.5-3.3 5.3-1 1.5-2.1 1.4-2.9-.2-.4-.9-.7-1.9-.8-2.9s0-2.1 0-3.2c0-.2-.1-.3-.2-.7-.3.4-.6.6-.7.9-1.7 3.2-3.3 6.6-5.2 9.7-1.6 2.7-3.4 5.2-5.2 7.8-.5.7-1.4 1.3-2.2 1.7-.4.2-1.1-.2-1.6-.4-.2-.1-.1-.7-.2-1.2 1.6 1 2 1.1 3-.3 1.8-2.4 3.5-4.9 5.1-7.5 1.7-2.8 3.2-5.6 4.7-8.5 1.1-2.2 2.2-4.4 3.1-6.7 1.5-3.9 2.6-7.8 4.1-11.7 1.6-3.9 3.4-7.7 5.1-11.6.5-1.1 1.1-2.1 1.7-3.2-.4-.1-.6-.3-.8-.3-1.5 0-2.9.1-4.4.2-.2 0-.5 0-.7-.1-.9-.2-1.3.1-1.7.9-1.6 3.6-3.3 7.1-6.4 9.7-.9.7-2 1.3-3 1.7-.9.4-2.2-.9-2.3-2.2-.1-2 .2-4 .8-5.9.4-1.2.8-2.4 1.4-3.5 1.6-2.8 2.6-2.6 5.3-2.4 1.1.1 2.1.2 3.2.4.7.1 1.1-.2 1.4-.8 1.3-2.1 2.5-4.2 3.9-6.2.7-1 1.6-2 2.6-2.8.5-.4 1.3-.6 1.9-.8.3-.1.6.3.9.5 0 .1-.1.2-.1.3-.2 0-.4.2-.5.1-1.1-.1-1.9.4-2.5 1.1-1.5 2.2-3 4.4-4.4 6.6-.3.5-.6 1.1-1 1.8.3.1.5.3.7.3h5.3c1 0 1.4-.6 1.9-1.4.8-1.5 1.7-2.9 2.6-4.3.2-.3.4-.6.7-.8s.7-.3 1.1-.4c.1.4.2.7.2 1-.5 1.7-1 3.4-1.6 5.1.1 0 .3.2.5.2 1.6-.1 3.3-.3 4.9-.5.5-.1.9-.5 1.2-.8 1.2-1.5 2.3-3.1 3.5-4.6.2-.3.7-.4 1-.5.1.4.4.9.3 1.3-.3 1-.8 2-1.2 3-.1.2-.2.4-.4.9 10.3-1.9 19.9-5.4 29.6-8.2 0 .1.1.2.1.3-.5.3-1 .6-1.6.8-2.8 1-5.6 2-8.5 2.9-2.1.7-4.2 1.3-6.3 1.9-2.5.7-4.9 1.4-7.4 2-1.7.4-3.4.8-5.1 1.1-.9.2-1.6.5-2 1.3-1.8 3.6-3.6 7.2-5.4 10.8-1.3 2.6-2.7 5.3-4.1 7.9-1.7 3.3-3.5 6.5-5.2 9.7-.3.7-.4 1.4-.6 2.2-.2 1.1-.4 2.2-.6 3.4 0 .3.1.7.1 1 .1 0 .2 0 .3.1.1-.2.3-.4.4-.7 1.4-2.5 2.7-4.9 4.1-7.4.1-.2.5-.3.8-.4.1.3.3.7.2.9-.3.8-.8 1.6-1 2.4-.3 1.2-.5 2.4-.5 3.6 0 .8.7.8 1.1.4 1.1-1.2 2.3-2.3 3.2-3.6.7-1 1-2.3 1.6-3.5.4-.7.8-1.4 1.4-2 .2-.3 1-.6 1.1-.4.4.4.8.9.8 1.4s-.3 1.1-.5 1.7c-.1.3-.1.6-.2 1.2 1.1-.7 1.9-1.2 2.7-1.7.3-.2.7-.1 1.1-.2 0 .4.1.8 0 1.1-.1.6-.4 1.1-.6 1.7.1.1.2.1.3.2.4-.5.8-1 1.3-1.5.3-.3.6-.7.9-1 .4-.3.9-.4 1.4-.6 0 .4 0 .9-.1 1.3-.1.6-.2 1.3-.1 2.1.3-.3.5-.6.7-.9.6-.9 1.1-1.8 1.7-2.6.2-.2.6-.3.9-.5.1.3.4.7.3 1-.2 1-.6 2-.9 3s-.4 2-.6 3.1c0 .2.1.4.2.9.6-.7 1.1-1.2 1.6-1.7 1.8-1.9 2.9-4.3 4.2-6.6.9-1.6 1.8-2 3.6-1.5.7.2.6.6.4 1.1-.9 1.9-1.9 3.8-2.8 5.8-.2.4-.3.8-.2 1.2.2.8.7 1 1.4.5 1.1-.9 2-2 3-3 .2-.2.2-.5.3-.8.5-1.8.9-3.6 1.4-5.4.5-1.6 1.8-2.7 3.1-3.6 1.9-1.3 4-2.3 6.2-3.2 2.7-1 4.8-.2 6.6 2.1 1.2 1.5 1.9 3.3 2.4 5.1.1.2.2.5.3.7.1.1.3.2.4.3.1-.2.1-.5.3-.7 1.3-2.5 2.5-5.1 3.8-7.6.1-.2.2-.6.1-.8-1-2.4-.5-4.7.6-6.9 1.4-3 2.6-6 4.3-8.8 1.8-3.1 4-5.9 6.2-8.8.2-.3.9-.3 1.3-.5.1.5.4 1.1.2 1.6-1 2.4-2.1 4.8-3.3 7.2-1.7 3.6-3.5 7.2-5.2 10.8-.8 1.6-1.7 3.2-2.5 4.8-.1.2-.1.4 0 .9.5-.2 1.2-.3 1.6-.7 1.7-1.7 3.5-3.3 5-5.2 2.8-3.8 5.3-7.7 7.9-11.6 2.3-3.4 4.5-6.8 6.8-10.2.2-.3.6-.4 1-.6-.1.4 0 .9-.2 1.2-3.1 4.9-6.3 9.7-9.4 14.5s-5.4 9.9-7.3 15.2c-1 2.9-1.9 5.8-2.8 8.7-.2.5-.1 1 .6.9 2.5-.1 4.9-.3 7.4-.4 1.5-.1 2.1-1 2.3-2.3.4-3.2 1.7-6.1 3-9 1.7-3.8 3.5-7.6 5.6-11.2 2.9-5 6.2-9.9 10.4-13.9 1.7-1.7 3.6-3.2 5.9-4.2 2.4-1 4.5.1 4.7 2.7.1 1.8 0 3.7-.5 5.4-1 3.4-2.2 6.7-3.5 9.9-2 4.8-4.2 9.4-6.3 14.1-1.6 3.7-3.2 7.3-4.8 11-.3.6-.7 1.1-.9 1.6-.2.4-.4.8-.5 1.2.1.1.2.1.3.2.3-.2.6-.4.8-.6 1.4-1.6 2.7-3.2 4-4.8.2-.2.3-.5.5-.6.3-.1.7-.1 1-.2 0 .3.1.7 0 1-.1.4-.3.8-.5 1.3.1.1.2.1.3.2.2-.2.5-.4.7-.7.4-.5.8-1 1.2-1.5.5-.6 1.1-1 2-.3.5-.7.8-1.4 1.3-2 .2-.2.5-.3.7-.5.1.3.3.7.2.9-.3 1.6-.8 3.2-1.1 4.8-.1.5.1 1 .2 1.5.1 0 .2.1.3.1.5-.4 1-.8 1.4-1.3 1.2-1.4 2.4-2.8 3.5-4.3.6-.9 1.1-1.9 1.2-2.9.4-3.9 2-7.4 3.7-10.9 1.3-2.7 2.7-5.4 4.2-8 2-3.5 4.1-7 6.2-10.4.4-.7 1.1-1.2 1.7-1.8.2-.2.6-.3.8-.4.1.3.4.7.3 1-.2.8-.4 1.5-.7 2.3-.7 1.8-1.2 3.7-2.1 5.4-2.4 4.9-4.7 9.9-7.3 14.7-1.6 3.1-3.6 6-5.5 9-1.2 1.9-.7 3.9-.2 5.8.2.7.8.7 1.2.1.8-1.6 1.5-3.2 2.2-4.9.3-.7.4-1.4.7-2 .1-.2.5-.4.8-.5.1.3.3.7.2 1-.2.7-.5 1.4-.6 2.1-.1.3 0 .8.2 1.1.2.2.7.3 1 .1 1.5-.8 2.9-1.6 4.3-2.5.2-.1.3-.6.4-1 .1-2.9 1.6-5.1 3.3-7.3.1-.2.5-.2.8-.3.1.3.3.6.2.9-.5 1.3-1 2.6-1.5 3.8-.4 1-1 2-1.4 3.1-.3.9-.4 1.9-.3 2.9s.8 1.4 1.8 1c1-.5 1.7-1.1 2.3-2.1 1.3-2.2 2.1-4.7 4.2-6.4.5-.4 1-.7 1.7-.2.4.3.6.6.4 1.2-.6 1.6-1.2 3.2-1.8 5 .7-.3 1.3-.4 1.8-.7.9-.5 1.9-1.1 2.7-1.8.4-.3.8-.9 1.1-1.4.9-1.5 1.7-3 2.7-4.4.2-.3.7-.3 1-.5 0 .4.2.8.1 1.2-.1.5-.4.9-.7 1.5.5 0 .8-.1 1.4-.1-.1.5 0 1-.2 1.4-.9 2-1.9 3.9-2.8 5.9-.1.2 0 .6-.1.9.3-.1.7 0 .9-.2 1.7-1.8 3.4-3.5 5.1-5.3.1-.1.2-.4.3-.5.3-.1.6-.2.9-.2 0 .3.1.7-.1.9-.7 1.2-1.5 2.3-2.3 3.5-.2.4-.3.8-.4 1.2.1.1.1.1.2.2.3-.1.6-.2.9-.4 2.1-1.6 4.2-3.2 6.4-4.8.4-.3.8-.4 1.4-.5-.7 1.6-2.5 2.3-2.7 4.5.8-.8 1.4-1.4 1.9-2 1.2-1.2 2.3-2.4 3.5-3.6.2-.2.7-.2 1-.2-.1.3-.2.7-.4.9-1.3 1.4-2.5 2.8-3 4.6-.1.3-.2.6-.1.9 0 .3.1.7.3.9.1.1.6 0 .8-.2 2.9-1.6 5.5-3.5 7.6-6.1.9-1.1 2.2-1.9 3.3-2.7.2-.1.5 0 .7 0 0 .3.1.6 0 .8-.4.6-.8 1.2-1.3 1.7-.6.8-.6 1.2.3 1.5 2.3 1 6.4.5 8-2.4.9-1.5 1.7-3 1.7-4.9s-.8-3.2-2.4-3.9c-1.3-.6-2.8-.9-4.2-1.4-.5-.2-1-.4-1.5-.7-.2-.1-.3-.5-.2-.7s.5-.3.6-.3c3.1.9 6.4 1.6 8 4.8.5 1 .6 2.5.3 3.6-.6 2.9-2.1 5.4-5 6.7-2.1.9-4.3 1.1-6.3-.3-.5-.4-.8-.2-1.1.3-.9 1.3-1.9 2.6-2.9 3.9-.2.3-.8.3-1.3.4 0-.4-.1-.8-.1-1.2 0-.3.1-.5-.1-.9-.3.2-.5.3-.8.5-1.4.9-2.7 1.7-4.1 2.5-.8.4-1.4 0-1.5-.9-.1-.7 0-1.4 0-2.4-.6.6-.9 1-1.3 1.4-.5.5-.9 1-1.5 1.5-.3.2-.7.2-1 .3-.1-.4-.3-.8-.3-1.2.1-.4.4-.8.6-1.2.1-.3.2-.6.2-1.1-.2.1-.4.2-.6.4-1 .8-2 1.7-3.1 2.4-1.5 1.1-2 .9-2.6-.8-.3.2-.6.4-.9.6-.6.4-1.1 1-1.7 1.1-1 .3-1.7.6-1.9 1.7 0 .2-.5.3-.8.5-.2-.3-.5-.6-.5-.9.1-1.5.2-3.1.3-4.6 0-.3 0-.6-.1-1.1-.9.5-1.6 1-2.3 1.3-.9.5-1.9.8-2.9 1.3-.4.2-.8.6-1.2 1-.6.6-1 1.4-1.6 2-.7.7-1.1.7-1.6-.2-.4-.8-.9-1-1.6-.4-.8.6-1.5.4-2.1-.4-.2-.3-.5-.5-.8-1-.5 1-1 1.9-1.5 2.8-.2.4-.3.9-.6 1.2s-.7.5-1 .7c-.1-.4-.3-.8-.2-1.2.3-1.1.6-2.1 1.1-3.4-.5.2-.9.3-1.2.4-.8.4-1.6.7-2.5.2-.2-.1-.7.3-.9.5-.5.8-.8 1.7-1.4 2.5-.9 1.3-1.9 1.2-2.6-.2-.5-.9-.7-2-1.1-3.1-.2.1-.4.3-.6.5-1.2 1.4-2.4 2.9-3.6 4.3-.4.5-.9 1.3-1.7.8s-1.2-1.3-1-2.3c.1-.4.3-.8.3-1.2 0-.3-.2-.5-.3-.8-.2.2-.5.3-.6.5-.3.6-.4 1.2-.7 1.7-.1.2-.6.3-.9.4-.1-.3-.2-.6-.1-.9 0-.4.2-.9.3-1.3-.1-.1-.2-.1-.3-.2-.2.2-.4.4-.6.7-.5.7-.9 1.4-1.5 2-.2.2-.7.1-1.1.1 0-.3-.1-.6 0-1 0-.4.1-.8.2-1.2-.1 0-.2-.1-.4-.1-.2.3-.5.6-.7.8-1.2 1.4-2.4 2.8-3.7 4-.6.6-1.5.7-1.9 1.6-.8 1.6-1.7 3.1-2.7 4.7-.1.2-.6.3-.8.5-.1-.3-.4-.7-.3-1 .2-.5.6-1 .9-1.5.7-1 1.5-1.9 2-3 .7-1.3 1.5-2.7 1.2-4.5-.8 1.1-1.4 2.2-2.2 3.1-1 1.3-1.9 2.6-3.5 3.2-1.4.6-2.8.3-3.9-1-1.7-2-2.9-4.2-2.7-7 .1-1-.3-1.1-1.2-1-2.7.3-5.5.5-8.2.7-.6 0-.9.3-1 .9-.6 2.9-1 6-2.4 8.7-.3.5-.6 1-.9 1.5-.7 1-1.2 1-2 .1-.6-.6-.9-1.3-.9-2.2 0-.8-.3-1.6-.4-2.5-.3-2-.6-4-.9-5.9 0-.2-.4-.6-.5-.6-.4.1-1 .2-1.2.5-.7 1.2-1.3 2.4-2 3.6-2.4 4.4-4.7 8.9-7.1 13.3-.4.7-1 1.4-1.5 2-.2.2-.8.5-.9.4-.3-.2-.4-.6-.4-1 0-.2.2-.5.3-1zm32.3-20.4c.5 0 1-.1 1.4-.1.3 0 .5.3.8.4-.2.3-.3.6-.5.7-.3.2-.7.3-1 .3-.7.1-.8.5-.9 1.2-.1 2.4.8 4.5 2.2 6.4 1.2 1.6 2.7 1.8 4.1.5 1.1-1 2.1-2.1 2.9-3.3 1.4-2.1 2.5-4.3 3.7-6.5.2-.3.4-.6.6-.9.4.3.7.4 1 .7.2-.4.5-.8.7-1.1 1.6-3.4 3.2-6.8 4.7-10.3 1.6-3.6 3.3-7.2 4.8-10.8 1-2.4 1.8-4.8 2.6-7.2.8-2.3 1-4.6.9-7-.1-1-1.1-2.3-1.8-2.2-.8.1-1.6.3-2.3.7-1.3.8-2.5 1.7-3.7 2.6-2.3 1.5-3.8 3.7-5.5 5.9-1.3 1.7-2.5 3.4-3.6 5.1-1.6 2.6-3.3 5.2-4.7 7.9-1.3 2.3-2.2 4.8-3.4 7.2-1.3 3.2-2.4 6.3-3 9.8zm-60.7-27.4c-.5 0-.8 0-1 0-1.4.2-2.7.5-4.1.5-.8 0-1.2.3-1.5 1-1.2 2.6-2.5 5.1-3.7 7.7-1.8 3.7-3.6 7.3-5.4 11-.9 1.8-1.7 3.6-2.7 5.4s-1.9 3.6-2.1 5.6-.5 4.2.4 6.2c.3.6.6 1.1.9 1.6.5-.4 1-.8 1.4-1.2 0 0 .1-.1.1-.2 1.6-2.7 3.2-5.5 4.8-8.2.1-.2.2-.5.3-.8.3-1.5.5-3.1 1-4.5 1.2-3.1 2.4-6.1 3.8-9.1 2.1-4.5 4.5-8.9 6.7-13.4.5-.4.7-.9 1.1-1.6zm30.8 19.8c.3 2.3.3 4.6-.6 6.8-.3.8 0 1.3.9 1.5 2.5.3 5 .6 7.5.8 1.3.1 2.6-1.4 2.2-2.6-.7-2.1-1.5-4.2-2.5-6.2-.9-1.6-2.3-2.6-4.4-2.4-2.3.2-4.2 1.3-6.1 2.6-.9.6-1.4 1.7-2.4 2.3-.9.5-1.1 1.3-1.4 2.1-.1.3.2.7.3 1 .3-.1.6-.2.9-.4.6-.5 1.1-1.1 1.8-1.6.2-.2.7-.4.9-.3.2.2.4.6.3.9 0 .5-.2 1-.4 1.5-.1.4-.4.7-.5 1.1 1.2 1 1.6.9 1.9-.4.5-2.2 1-4.4 1.6-6.7zm15.7-2.2c-.9 1.8-1.8 3.6-2.7 5.4-.6 1.3-1.3 2.5-1.8 3.8-.6 1.3 0 2.2 1.4 2.2h2.6c2.6 0 2.6 0 3.3-2.5 1.3-4.8 3.2-9.4 5.3-14 .2-.4.3-.7.4-1.1-.4.1-.6.3-.8.5-1.2 1.4-2.4 2.8-3.7 4-1.1.9-2.3 1.8-4 1.7zm-74.7-7.8v1c0 1.4.9 2 2.2 1.4.8-.4 1.6-.9 2.3-1.5 2.7-2.4 4.1-5.6 5.6-8.8.1-.2-.2-.8-.4-.8-1.3-.2-2.7-.5-4.1-.6-1.1-.1-2.2.1-2.9 1.2-1.7 2.4-2.1 5.3-2.7 8.1zm120.5 12.8c.1 0 .2.1.3.1 5.9-8.8 10.7-18.2 14-28.4-.5.4-.9.8-1.2 1.3-2.3 3.9-4.5 7.9-6.7 11.8-2.5 4.4-4.7 8.9-6.3 13.8 0 .4 0 .9-.1 1.4zm-46.9 7.5c-.6 0-1.2.1-1.9 0-.8-.1-1 .3-.9 1.1.1.6.3 1.3.4 1.9.4 2.1.7 4.1 1.1 6.2.1.5.3.9.5 1.4.4-.4.9-.9 1.3-1.3.1-.1.2-.3.2-.4.7-2.6 1.4-5.2 2.1-7.7.2-.6-.2-1-.8-1-.6-.2-1.3-.2-2-.2zm12.1-37.4c-.1-.1-.2-.1-.3-.2-.2.2-.4.3-.6.5-1.4 2.1-2.9 4.1-4.2 6.2-2.4 3.9-4.3 8-5.9 12.3-.4 1-.3 2.1-.4 3.2.2 0 .3.1.5.1 3.8-7.3 7.6-14.6 10.9-22.1zm-68 31.9c.1.1.3.1.4.2 4.3-8.3 8.5-16.6 12.8-25-1-.3-1.5 0-1.8.6-.4.7-.9 1.4-1.2 2.1-1.4 2.8-2.9 5.6-4.3 8.5-1.9 4.1-3.8 8.3-5.7 12.4-.1.4-.1.8-.2 1.2zm-7.4-2.7c.1 0 .2.1.3.1l.3-.3c1-1.9 2-3.9 2.9-5.8 1.4-2.8 2.8-5.7 4.2-8.5.9-1.9 1.8-3.7 2.7-5.6.1-.2 0-.5-.1-.8-.3 0-.6 0-.9.2-.2.1-.4.4-.5.6-1.3 2.7-2.7 5.4-3.9 8.2-1.3 2.9-2.5 5.9-3.8 8.9-.5 1-.9 2-1.2 3zm46.2 6.9c-.3-.2-.7-.5-1.1-.6-.2-.1-.7.1-.8.4-.6 1.2-1.2 2.5-1.7 3.7-.2.5-.1.8.5.7.9-.1 3.2-3 3.1-4.2zm-3.2-1.6c-.4.2-.6.3-.7.4-1.2 1.2-1.9 2.7-1.7 4.4 0 .2.3.5.5.6.1.1.5-.2.6-.4.6-1.3 1.2-2.5 1.7-3.8.1-.3-.2-.8-.4-1.2zm-28.7 7.3c.2 0 .4 0 .4-.1.6-1 1.3-2 1.8-3.1.1-.1-.2-.5-.3-.6-.2-.1-.7 0-.8.1-.5.9-1 1.8-1.4 2.8 0 .2.2.6.3.9zm116.5-14.3c-1.3.2-1.8 1-1.6 2 .1.4 0 .8-.2 1.2-.2.5-.6.9-.9 1.3-.1.2-.2.5-.3.8 0 .1.3.3.3.2.2-.2.5-.4.7-.6.4-.7.7-1.4 1-2.1.4-.9.6-1.8 1-2.8zm-118-24.7c-.1 0-.2-.1-.3-.1-.8 1.4-1.6 2.8-2.5 4.2.1.1.2.2.3.4.4-.2.9-.3 1-.6.5-.9 1-1.9 1.4-2.9.1-.3.1-.6.1-1zm7.3 2.7c.7.5 1 .5 1.3 0 .5-.9 1-1.9 1.4-2.9.1-.1 0-.3-.1-.8-1 1.4-1.8 2.6-2.6 3.7zm105.7 30.7c.1 0 .3 0 .4.1.4-.7.9-1.5 1.3-2.2-.3-.1-.7-.3-.7-.2-.5.5-.9 1.1-1.2 1.6-.1.1.1.4.2.7zm-107.8-2.2c-.1-.1-.2-.1-.4-.2-.4.9-.9 1.7-1.2 2.6-.1.1.2.4.3.6.2-.1.5-.2.6-.4.2-.8.4-1.7.7-2.6zm120.4-5.4c-1.2.5-2.3 2.8-1.9 3.9.6-1.3 1.2-2.5 1.9-3.9zm18.8 4c.1.1.3.2.4.3.5-.8 1.1-1.7 1.6-2.5-.1-.1-.3-.2-.4-.3-.5.8-1 1.6-1.6 2.5zm-124.6 5.1c-1 .7-1.4 2.4-.7 3 .3-1 .5-1.9.7-3zm11.1-4c.1.1.3.1.4.2.2-.4.5-.9.7-1.3-.8.1-1.3.5-1.1 1.1z"/></svg>