<svg id="demaria-everett" xmlns="http://www.w3.org/2000/svg" viewBox="0 0 216 72"><title>chapdelaine-arlington</title><path d="M161.18,41.35c1.93-1,3.89-1.91,5.79-2.94,1.38-.74,2.68-1.64,4.06-2.36.36-.19.93,0,1.39,0,0,.48.11,1.09-.13,1.42a4.35,4.35,0,0,1-1.47,1c-.77.42-1.59.77-2.38,1.14l.21.53c1.12-.47,2.24-.92,3.35-1.42.56-.25,1.07-.63,1.65-.84a1.91,1.91,0,0,1,1.35-.11,2.67,2.67,0,0,0,2.83,0,1.32,1.32,0,0,1,1.89.44c.43.78.07,1.35-.64,1.78a6.14,6.14,0,0,0-.82.71l.09.34a4.48,4.48,0,0,0,1,0c2.84-.62,5.71-1.12,8.49-1.94a17.9,17.9,0,0,0,4-2.12,38.21,38.21,0,0,1,10.88-4.59,26.75,26.75,0,0,1,4.1-.54,2.84,2.84,0,0,1,1.5.35.81.81,0,0,1-.1,1.54c-4.78,2-9.41,4.41-14.52,5.55A7.33,7.33,0,0,0,189,42.18a9.11,9.11,0,0,0-.77,2,12.51,12.51,0,0,0,2.13.53c.65.06,1.33-.21,2-.16.4,0,.78.4,1.17.62-.28.34-.49.85-.85,1a7.34,7.34,0,0,1-4.3.68c-2.18-.5-2.65-1.91-2.27-4a6.76,6.76,0,0,0,.22-1.21c-1.19.59-2.88-.15-3.65,1.54a.75.75,0,0,1-.7.26c-1.27-.62-2.53-.27-3.78,0s-2.53.3-3.27-1.21a1.49,1.49,0,0,0-1.42-.31,4.55,4.55,0,0,1-3.94.49,4.16,4.16,0,0,0-2.46.51,2.76,2.76,0,0,1-2.56-.05,4,4,0,0,0-2.27.1c-.59.12-1.11.54-1.7.69-1.77.45-2.71-.51-2.26-2.25.07-.31.14-.61.27-1.14-1.75.78-3.28,1.53-4.86,2.12a21.55,21.55,0,0,1-3.55.93A1.45,1.45,0,0,1,149,43c-.87-1.06-1.68-.51-2.52,0a30.7,30.7,0,0,1-2.71,1.57c-.75.35-1.66.7-2.35-.18a1.79,1.79,0,0,1-.16-2.47c.09-.12.07-.34.17-.86-1.21.67-2.16,1.25-3.15,1.74-2,1-4.3,1.68-6.11,3-1.41,1-2.71.61-4.09.81a45.9,45.9,0,0,0-5,1.18,1.19,1.19,0,0,0-.66.5c-1.72,3.12-4.77,4.67-7.6,6.47-.64.41-1.34.74-2,1.15a1.13,1.13,0,0,1-1.66-.14c-.49-.59-.8-1.31-.19-1.94,1.4-1.43,2.92-2.74,4.3-4.18s3.27-1.87,4.93-2.75a3.45,3.45,0,0,0,1.17-1.12,9.46,9.46,0,0,0-4.34.14,13.93,13.93,0,0,0-2,.7,6.87,6.87,0,0,1-1.36.42c-1,.12-2.23.4-2.74-.61-.31-.63.13-1.64.24-2.65a21.1,21.1,0,0,1-2.49,1,51.79,51.79,0,0,1-8.13,2c-3.39.35-5-2.78-3.46-5.83,2-3.86,5.19-6.55,8.65-8.94,2.34-1.62,4.86-3,7.31-4.42,4.55-2.69,9.06-5.44,13.68-8a59.78,59.78,0,0,1,6.88-3.07,1.67,1.67,0,0,1,1.54.45,1.62,1.62,0,0,1-.16,1.58c-2.19,2-4.41,3.92-6.76,5.71-2.08,1.58-4.3,3-6.51,4.39-2.81,1.8-5.64,3.55-8.5,5.28-2.48,1.49-5,2.92-7.52,4.38-.2.12-.43.35-.62.33-.56-.08-1.1-.26-1.65-.39.18-.49.23-1.14.58-1.42a15,15,0,0,1,2.35-1.34c2.26-1.2,4.61-2.26,6.77-3.62,3.1-1.94,6-4.12,9.11-6.14,1.82-1.2,3.75-2.23,5.59-3.42,1.14-.73,2.19-1.61,3.29-2.42l-.19-.38a11.21,11.21,0,0,0-1.28.55q-6.84,3.89-13.65,7.79c-2.69,1.54-5.46,3-8,4.7-3.2,2.2-6.43,4.46-8.48,7.92-.14.25-.32.48-.45.73-1.22,2.43-.34,4,2.3,3.57a59.22,59.22,0,0,0,8.36-2.38c2.76-.89,5.47-1.94,8.2-2.94,1-.37,2-.79,3.06-1.2.74-.3,1.45-.36,1.8.52s-.25,1.2-.91,1.52q-3.59,1.74-7.14,3.52a1.79,1.79,0,0,0-.85.92c.22,0,.5.09.65,0,1.95-1.36,4.3-.91,6.43-1.44a2.58,2.58,0,0,1,3.19,1.23,1.49,1.49,0,0,0,1.27.47,48,48,0,0,0,12.89-4.17c1.67-.81,3.37-1.56,5-2.46s3.17-1.93,4.75-2.88c1.94-1.18,3.9-2.31,5.83-3.5s3.58-2.32,5.38-3.48c.28-.17.63-.45.89-.4a2.11,2.11,0,0,1,1.25.65c.13.19-.15.93-.44,1.13-1,.71-2.11,1.28-3.16,1.92-.45.26-.88.55-1.21.77l.27,1.44a5.65,5.65,0,0,0-1.25-.29,2.77,2.77,0,0,0-1.44.3q-4.57,3.16-9.09,6.43a3.83,3.83,0,0,0-1.2,1.62c1.86-.94,3.89-1.53,5.16-3.35a1.53,1.53,0,0,1,1.24-.61A1.44,1.44,0,0,1,151,39.2c-.07,2.29.78,2.08,2.27,1.43a105.51,105.51,0,0,0,10.11-5c3.93-2.22,7.71-4.71,11.56-7.08.93-.58,1.85-1.17,2.8-1.71a3.09,3.09,0,0,1,1.42-.56,1.67,1.67,0,0,1,1.19.75c.12.24-.19.95-.5,1.14-1.38.84-2.87,1.49-4.24,2.34-4.25,2.63-8.48,5.29-12.65,8a12.24,12.24,0,0,0-2.11,2.39Z"/><path d="M28.24,47.3c.44-.13,1-.13,1.29-.42C31.29,44.94,33.74,44.19,36,43a1.8,1.8,0,0,1,2.25.24,1.48,1.48,0,0,0,2.16.13c3.66-2.48,7.4-4.84,11-7.43,5-3.59,9.82-7.35,15-10.67.16-.1.34-.29.49-.27.47,0,1.15,0,1.34.28A1.38,1.38,0,0,1,68,26.68a14.29,14.29,0,0,1-2.26,1.74c-2.93,1.94-5.89,3.84-8.81,5.8a44.11,44.11,0,0,0-8.78,7.28,12.81,12.81,0,0,0-1.42,2.3c-.15.26-.23.81-.1.89a1.19,1.19,0,0,0,1,.18c2-.85,4.07-1.64,6-2.68s3.67-2.4,5.52-3.57c.65-.42,1.47-.79,2,.12S61,40,60.34,40.42q-2.42,1.39-4.8,2.85c-.69.42-1.33.92-2,1.38l.25.4c1.19-.55,2.4-1.06,3.57-1.64,1.45-.71,2.87-1.49,4.32-2.23.29-.14.66-.36.93-.29a2.21,2.21,0,0,1,1.26.72c.14.2-.16.88-.44,1.15-.71.65-1.52,1.19-2.29,1.77l.26.43,2.2-1c.86-.41,1.69-.87,2.57-1.24,1.83-.75,2.12-.6,2.85,1.24,2.9.52,5.52-.36,8.06-1.61.73-.36,1.44-.91,2.18-.07s.26,1.56-.19,2.34-.92,2-1.43,2.9a5,5,0,0,1-1.06,1.38c-.12.1-.84-.17-.94-.42a4.33,4.33,0,0,1-.34-1.84c0-.45.44-.87.67-1.31L75.72,45a30.91,30.91,0,0,1-3.21,1.32,22.78,22.78,0,0,1-3,.51,10.56,10.56,0,0,0-1.39.18c-2.1.63-2.47.49-3.31-1.4-1.24.54-2.47,1.14-3.74,1.6-2.17.79-2.69.58-3.82-1.32a36.31,36.31,0,0,1-4.11,1.42A3.7,3.7,0,0,1,50.72,47a2.36,2.36,0,0,0-2.28-.19,1.34,1.34,0,0,1-.53.2c-.86,0-2.06.25-2.5-.2-.59-.6-.65-1.77-.84-2.71-.07-.32.17-.71.37-1.46-.63.34-1,.51-1.28.7-3.3,2-6.56,4.06-9.9,6a4.38,4.38,0,0,1-4.62.29,17,17,0,0,0-3.59-1.28,1.81,1.81,0,0,0-1.19.28c-2.25,1.24-4.43,2.6-6.72,3.75a44,44,0,0,1-5.43,2.18,3.64,3.64,0,0,1-1.78-.11c-2.24-.44-3-2-3.18-4.12a14,14,0,0,1,2.33-9,30,30,0,0,1,4.24-5.54,59.82,59.82,0,0,1,11-8.57C27,26,29,24.5,31.18,23.17c4.9-3.05,10-5.82,15.65-7.15a8.57,8.57,0,0,1,3.67,0c3,.68,3.64,2.31,2.86,5.39a11.11,11.11,0,0,1-3.13,5.05c-2.77,2.77-5.57,5.5-8.45,8.14a24.87,24.87,0,0,1-3.46,2.27l-.25-.23a32,32,0,0,1,2.58-3.38c1.71-1.72,3.6-3.26,5.34-4.94a31.29,31.29,0,0,0,5.35-6.08,3.52,3.52,0,0,0,.32-3.42c-.56-1.15-1.85-1.3-3-1.24a11.53,11.53,0,0,0-3.37.53A47.9,47.9,0,0,0,34,23.53c-2.07,1.41-4.41,2.43-6.49,3.84-5,3.4-10,6.88-14.09,11.39A16.39,16.39,0,0,0,9,49.77c0,2.26,1.63,3.48,3.74,2.64a67.19,67.19,0,0,0,6.81-3.23q4.16-2.19,8.19-4.63a41.91,41.91,0,0,0,3.4-2.6,6.36,6.36,0,0,1,1.67-1.06c.41-.13,1,.17,1.42.28-.17.45-.23,1-.55,1.31-1.41,1.13-2.89,2.17-4.34,3.25-.44.33-.85.71-1.28,1.06Z"/></svg>