<svg enable-background="new 0 0 216 72" viewBox="0 0 216 72" xmlns="http://www.w3.org/2000/svg"><path d="m142.5 12.5c-.2.2-.5.4-.7.7-1.5 1.8-3 3.7-4.4 5.5s-2.7 3.7-4 5.5c-1.1 1.4-2.2 2.7-3.3 4.1-1.2 1.5-2.4 3.1-3.6 4.6-.5.6-.9 1.2-1.3 1.9-.3.5-.2 1 .3 1.5.5.4 1 .5 1.5.1 1.1-.8 2.1-1.7 3.1-2.6.8-.8 1.5-1.7 2.2-2.4.2-.2.6-.3.8-.2s.3.5.3.8-.1.7-.2 1.2c2.2-.5 3.9-1.6 5.1-3.2 1.1-1.4 2-2.9 3-4.4.1-.1.1-.3.2-.3.3-.2.8-.5 1-.4.5.3.2.7-.1 1-1.1 1.6-2.3 3.1-3.3 4.7-.5.7-.8 1.6-.5 2.7.6-.4 1-.6 1.4-1 2.4-2.4 4.9-4.8 7.3-7.2 2.2-2.2 4.4-4.4 6.6-6.7 1.9-1.9 3.7-3.9 5.5-5.8.2-.2.8-.4.9-.3.4.3.2.7-.1 1-.7.7-1.5 1.4-2.2 2.2-2 2.2-4.1 4.3-6.1 6.5-.4.5-.9 1-1.2 1.6-.9 1.8-1.8 3.6-2.5 5.4-.3.8-.2 1.7-.3 2.6 0 .2.1.5.2.5.2 0 .5 0 .7-.2 1.6-1.3 3.3-2.6 4.9-3.9 1.1-.9 2.3-1.8 3.4-2.7.3-.3.5-.6.9-.9.2-.2.6-.2.8-.2 0 .3.1.6.1.9v.1c-.1.4-.3.7-.4 1.1.4.1.9.3 1.2.2.7-.1 1.4-.4 2.1-.7.5-.2.8-.2 1 .4.7 1.7 1.9 2.3 3.7 1.9 3.5-.8 6.9-1.7 10.3-3 3.3-1.3 6.7-2.6 10-3.8.6-.2 1.2-.4 1.8-.5.2 0 .6 0 .7.2s0 .5-.1.8c-.9 1.9-2.5 3.3-4.1 4.7-.9.8-1.8 1.8-2.7 2.7-.7.6-1.4 1.2-2 1.9-1.2 1.2-2.4 2.5-3.5 3.7-.9 1-1.9 1.9-2.8 2.9-1.1 1.2-2.2 2.4-3.3 3.5-1.3 1.4-2.7 2.8-4.1 4.2-1 1-2 2-3 3-.8.8-1.6 1.5-2.5 2.2-.1.1-.4 0-.7 0 0-.2 0-.6.2-.7.4-.4.9-.7 1.3-1.1 2.5-2.5 5-4.9 7.5-7.5 1.8-1.9 3.5-3.9 5.3-5.8 2.3-2.4 4.5-4.9 7.1-7.1 1.9-1.7 3.5-3.6 5.3-5.4.2-.2.3-.4.3-.8-.9.3-1.8.7-2.7 1-2.9 1.1-5.7 2.2-8.6 3.3-1.9.7-3.9 1.4-5.9 2-1.6.4-3.2.6-4.8.9-1.4.2-2.4-.6-3.2-1.5-.5-.5-.7-.8-1.5-.4s-1.8.8-2.8.1c-.4-.3-.7-.7-1.1-1.1-.7.6-1.4 1.3-2.2 1.9-2 1.7-4 3.3-6.1 4.9-.8.6-1 .5-1.5-.4s-.5-1.7-.2-2.6c.3-1 .6-2 .9-3 .2-.4.4-.8.6-1.3.2-.3.3-.6.5-.9-.1-.1-.1-.1-.2-.2-.2.2-.5.3-.6.6-2.1 2.8-4.8 5-7.2 7.4-.5.5-1.1 1.1-1.7 1.4-1 .6-1.4.3-1.6-.8-.1-.4-.1-.7-.1-1.3-.3.2-.5.3-.7.5-1 1-2.4 1.4-3.7 1.8-.5.1-.7-.1-.8-.6-.1-.3-.1-.5-.2-.9-.3.2-.4.3-.5.4-1.1 1.6-2.4 2.9-4 3.9-1.2.8-2.4.6-3-.6-.6-1-1-1.3-2.5-.9-2.8.8-4.9 2.4-6.8 4.6-1.9 2.3-3.4 4.9-4.9 7.5-.5.8-.5 1.9-.8 2.9.1.1.2.1.2.2.2-.1.5-.2.7-.4 1.6-1.7 3.3-3.3 4.8-5.1 1.2-1.3 2.3-2.6 3.4-3.9.9-1 1.7-2.1 2.5-3.2.6-.8 1.3-1.5 2-2.2.1 0 .2.1.3.1 0 .3 0 .5-.1.8-.2.3-.4.6-.7.9-.9 1.1-1.9 2.1-2.8 3.3-1.4 1.8-2.8 3.6-4.2 5.4-.4.5-.9 1-1.3 1.4-1.3 1.3-2.6 2.7-3.9 4-.5.5-1 1.1-1.7.7s-.4-1.3-.2-1.9c.4-1.8 1.1-3.4 2.1-4.9 1.7-2.8 3.4-5.5 5.7-7.8 1.6-1.7 3.7-2.8 5.9-3.5.5-.2 1.2-.1 1.8 0 .5.1.8-.1 1-.4.9-1.2 1.8-2.5 2.8-3.7 1.1-1.4 2.3-2.8 3.4-4.2 1.8-2.3 3.5-4.6 5.2-6.9.9-1.2 1.9-2.4 2.8-3.6.6-.8 1.2-1.7 1.9-2.5s1.4-1.5 2.1-2.2c.2-.2.6-.3.7-.2.2.1.4.5.3.8 0 .5-.1 1.1-.4 1.5-.5 1.1-1.1 2.3-1.7 3.4-.1.2-.5.3-.7.4 0-.3-.2-.6-.1-.8.5-1.1 1.1-2.2 1.7-3.3-.4-.4-.5-.5-.6-.5z"/><path d="m49.2 34.8c.4-.1.6-.1.7-.1 2.2-.8 4.4-1.7 6.6-2.5.3-.1.5-.3.8-.4.2-.1.6-.1.8.1.1.1.1.6 0 .8-.4.6-.7 1.2-1.2 1.7-.9.8-1.2 1.8-1.5 3-.6 2.6-1.1 5.3-2.9 7.4-.1.2-.3.3-.4.5-.5.5-1.5.6-1.9.3-.6-.5-.6-1.1-.4-1.8.3-.7.5-1.4.9-2 1.2-1.9 2.5-3.7 3.8-5.5.2-.3.4-.7.6-1.1.3-.6.7-1.1 1.1-1.7-1.8.8-3.7 1.5-5.6 2.3-.7.3-1.3.6-1.9 1-1.2.8-1.6 2-2.3 3.2-1 1.7-2.1 3.4-3.1 5.1-1.6 2.6-3.3 5.1-5 7.7-2.1 3.2-4.1 6.4-6.2 9.7-1.1 1.7-2.1 3.5-3.2 5.3 0 .1-.1.2-.1.2-.3.4-.7.9-1.3.7s-.6-.8-.5-1.3c.5-2.3.8-4.6 1.6-6.8 1-2.7 2-5.4 3.5-7.9 1-1.6 2.1-3.1 3.1-4.6 1.7-2.5 3.7-4.6 6-6.6 1.6-1.4 3.5-2.5 5.1-3.8.6-.5 1.3-1.1 1.7-1.7 1.2-2 2.3-4.1 3.4-6.1 1.1-2.1 2.3-4.2 3.4-6.3 1.5-2.8 3-5.6 4.5-8.5 1.1-2.1 2-4.2 3-6.3.7-1.4 1.4-2.7 2.1-4 .1-.2.3-.4.4-.5s.4-.1.5 0 .2.3.2.5-.1.4-.2.5c-1.2 1.5-2.3 3.7-3.4 5.8-1.2 2.4-2.3 4.8-3.6 7.1-2.4 4.5-4.8 8.9-7.2 13.4-.5.9-1 1.7-1.6 2.5 0 .2-.1.3-.3.7zm-20.9 31.7c2.9-4.6 5.8-9.3 8.7-13.9s5.9-9.2 8.9-13.8c-1.1.1-6.6 4.9-8.6 7.4-4.9 5.8-8.2 12.5-9 20.3zm22.5-22.4c.1.1.1.2.2.2.3-.2.6-.3.8-.5 1.1-1.6 2-3.3 2.1-5.3-1.2 1.8-2.7 3.4-3.1 5.6z"/><path d="m90.5 19.5c-.1.3-.1.6-.2.7-.9.6-1.2 1.7-1.7 2.6-1.8 3-3.6 6.1-5.5 9.2-.6 1-1.3 2-2 3 .1.1.1.1.2.2.2-.2.3-.5.5-.7 1.4-1.9 2.9-3.6 4.8-4.9.3-.2.7-.1 1-.2 0 .3.1.7 0 1-.3.7-.7 1.3-1 1.9-.2.3-.3.7-.4 1.1-.1.6.2.9.8 1 1.1.1 2.1 0 3-.5 1.9-1 3.9-1.9 5.8-3.1.9-.5 1.5-1.5 2.2-2.3.9-1.1 1.8-2.4 2.7-3.5.4-.5.9-1 1.4-1.5 1.3-1.5 2.7-3 4-4.4.1-.1.2-.4.4-.4.2-.1.5-.1.8-.1 0 .2.1.5 0 .7-.5.7-1 1.4-1.6 2-1.5 1.7-2.9 3.5-4.4 5.2-1.6 1.9-3.4 3.7-5 5.5-.1.1-.2.2-.3.4-.4 2.2-1.5 4.2-1.1 6.5.1.4 0 .9-.5 1-.6.1-.6-.5-.6-.9 0-2.1.1-4.1 1.1-6 0 0 0-.1 0-.4-.3.2-.6.3-.9.5-1.9 1.3-4 2.1-6.1 2.6-.9.2-1.8-.1-2.3-.9-.6-.8-.6-1.7 0-2.6.2-.2.3-.5.4-.8-.1-.1-.2-.1-.3-.2-.9 1.1-1.9 2.3-2.8 3.4-1 1.2-2 2.4-3 3.6-.2.2-.6.1-.9.2 0-.3-.1-.7 0-.9 1.9-4.4 4.8-8.2 7.2-12.3.7-1.2 1.3-2.5 2-3.6.5-.7 1.2-1.4 1.8-2 .1-.1.2 0 .5-.1z"/><path d="m75.8 34.7c-.3.1-.6.2-.9.4-1.9 1.1-3.6 2.5-5 4.2-.2.2-.3.6-.3.9-.2 2.1-1.1 4.1-2 6-1.1 2.1-2.2 4.3-3.3 6.4-.6 1.1-1.2 2.2-1.9 3.3-.3.5-.8.9-1.2 1.3-.1.1-.4.1-.5.1-.2-.2-.3-.4-.3-.6.1-.7.1-1.5.4-2.1.7-1.9 1.4-3.8 2.3-5.6 1.2-2.3 2.5-4.6 3.8-6.9.3-.5.8-1 1.2-1.5.2-.3.2-.7.3-1-.4 0-.7-.1-1.1-.1-.8 0-1.6.4-2.5 0-1.3-.6-1.6-1.7-.5-2.7 1.7-1.8 3.7-3.4 5.7-5 .1-.1.3-.2.4-.2.2 0 .5.1.7.2-.1.2-.1.5-.2.6-.9.8-1.9 1.6-2.8 2.4-1.1.9-2.1 1.7-3.2 2.5-.1.1-.2.5-.1.7s.5.3.7.4c.5 0 1.1-.1 1.6-.1.6 0 1.2.1 1.7.2.2 0 .5-.1.7-.3 1.3-1.1 2.5-2.3 3.9-3.3.7-.5 1.6-.9 2.4-1.3.9-.3 1.4.1 1.3 1 0 .4-.2.7-.4 1-.9 1.2-1.8 2.3-2.7 3.5-.4.6-.8 1.2-1.3 1.8-.2.3-.4.6-.6.7s-.6.1-.9.2c0-.3 0-.7.1-.9 1.1-1.4 2.2-2.8 3.4-4.2.5-.6.8-1.2 1.3-1.8-.1-.1-.2-.2-.2-.2zm-7.6 6.7c-.1 0-.2-.1-.3-.1-.2.4-.3.9-.5 1.2-1.1 2-2.2 3.9-3.2 5.9-.8 1.6-1.5 3.3-2.3 5-.1.2-.1.5-.1.8.1 0 .2.1.3.1 2-4.4 4.8-8.3 6.1-12.9z"/><path d="m63.1 33.7c-.2.3-.3.5-.4.7-.8 1.3-1.5 2.6-2.3 3.9-1.1 1.8-2.4 3.6-3.6 5.3-.5.8-1.1 1.5-1.7 2.3-.2.2-.5.2-.8.3 0-.3-.1-.7.1-.9 2.8-3.5 5.2-7.4 7.2-11.4.1-.2.3-.5.5-.7.1-.1.4-.1.5-.1.2.1.3.4.5.6z"/><path d="m184.7 9.8c-.1.1-.3.3-.5.4-.4.1-1.3-1.1-1.2-1.5.1-.2.3-.5.6-.6.5-.1 1.1.8 1.1 1.7z"/><path d="m106.3 39.2c-.3-.4-.5-.6-.5-.8-.1-.5.4-1.1.9-1 .2.1.6.5.6.6-.3.4-.6.7-1 1.2z"/></svg>