<svg xmlns="http://www.w3.org/2000/svg" viewBox="0 0 100 100"><defs><style>.cls-1{isolation:isolate;}.cls-2,.cls-4{mix-blend-mode:multiply;}.cls-3{fill:#e7c55b;}.cls-4{fill:#98c3d1;}</style></defs><title>icons</title><g class="cls-1"><g id="Layer_1" data-name="Layer 1"><g class="cls-2"><path class="cls-3" d="M84.84,32.77A13.67,13.67,0,0,1,66,48.55L45.18,65.47A13.68,13.68,0,0,1,25.87,80.65a.74.74,0,0,1-.15-1.25L32.44,74l.11-.08A18.42,18.42,0,0,0,35,72.29a5.1,5.1,0,0,0,.75-7.17,5.1,5.1,0,0,0-7.17-.74,17.81,17.81,0,0,0-2.05,2.09l-.1.09L19.73,72a.75.75,0,0,1-.71.13.73.73,0,0,1-.48-.53A13.66,13.66,0,0,1,37.36,55.84L58.2,38.92A13.66,13.66,0,0,1,77.5,23.74a.75.75,0,0,1,.42.58.77.77,0,0,1-.27.67l-6.72,5.45a.38.38,0,0,1-.11.08,19.46,19.46,0,0,0-2.47,1.58,5.09,5.09,0,0,0-.74,7.17,5.07,5.07,0,0,0,7.16.74,18.57,18.57,0,0,0,2.06-2.09l.09-.09,6.72-5.45a.76.76,0,0,1,.71-.14A.77.77,0,0,1,84.84,32.77ZM79.25,45.52a12.25,12.25,0,0,0,4.37-11.21L77.91,39a21.9,21.9,0,0,1-2.2,2.22A6.58,6.58,0,1,1,67.41,31,20.8,20.8,0,0,1,70,29.26l5.71-4.64a12.17,12.17,0,0,0-16,14.4.73.73,0,0,1-.25.76L37.93,57.28a.73.73,0,0,1-.79.1,12.17,12.17,0,0,0-17.39,12.7l5.71-4.63a21.17,21.17,0,0,1,2.2-2.23,6.6,6.6,0,0,1,9.26,1,6.6,6.6,0,0,1-1,9.26,20,20,0,0,1-2.63,1.7l-5.71,4.64a12.18,12.18,0,0,0,16-14.41.73.73,0,0,1,.26-.76l21.55-17.5a.73.73,0,0,1,.79-.09A12.26,12.26,0,0,0,79.25,45.52Z"/><path class="cls-3" d="M83.62,34.31A12.18,12.18,0,0,1,66.23,47a.73.73,0,0,0-.79.09L43.89,64.61a.73.73,0,0,0-.26.76,12.18,12.18,0,0,1-16,14.41l5.71-4.64A20,20,0,0,0,36,73.44a6.6,6.6,0,0,0,1-9.26,6.6,6.6,0,0,0-9.26-1,21.17,21.17,0,0,0-2.2,2.23l-5.71,4.63a12.17,12.17,0,0,1,17.39-12.7.73.73,0,0,0,.79-.1l21.56-17.5a.73.73,0,0,0,.25-.76,12.17,12.17,0,0,1,16-14.4L70,29.26A20.8,20.8,0,0,0,67.41,31a6.58,6.58,0,1,0,8.3,10.22A21.9,21.9,0,0,0,77.91,39Z"/></g><path class="cls-4" d="M14.28,38.46c.55.73,5.71,7.79,6.09,8.21a1.45,1.45,0,0,0,1.8.11,35,35,0,0,0,4.21-3.54c.69-.77.79-1,.56-1.88-.35-1.14.88-4.16,4.47-3.87a7.83,7.83,0,0,1,5.81,3.09l.73,1a4.2,4.2,0,0,0,.4,4.34L62.63,79.8a4.41,4.41,0,0,0,6.14.73l3.58-2.68a4.42,4.42,0,0,0,1-6.11L47.76,39a4.29,4.29,0,0,0-4.21-1.55,11.89,11.89,0,0,1-1.11-1.83c-.3-1-1.4-6.52,2.94-10a11.2,11.2,0,0,1,11.4-1.5c.82.41,1.21.18,1.48-.15a.89.89,0,0,0-.1-1.32,18.58,18.58,0,0,0-16.51-2.94c-9.77,2.82-14.42,7.89-15.19,8.72s-.94,2.48-1.23,3.53c-.42,1.4-2.59,1.88-3.29,1.71-1.06-.22-2.63-.45-3.69.35C17,35,15,36.38,14.67,36.7A1.31,1.31,0,0,0,14.28,38.46Z"/></g></g></svg>