<svg viewBox="0 0 100 100" xmlns="http://www.w3.org/2000/svg"><path d="m84.84 32.77a13.67 13.67 0 0 1 -18.84 15.78l-20.82 16.92a13.68 13.68 0 0 1 -19.31 15.18.74.74 0 0 1 -.15-1.25l6.72-5.4.11-.08a18.42 18.42 0 0 0 2.45-1.63 5.1 5.1 0 0 0 .75-7.17 5.1 5.1 0 0 0 -7.17-.74 17.81 17.81 0 0 0 -2.05 2.09l-.1.09-6.7 5.44a.75.75 0 0 1 -.71.13.73.73 0 0 1 -.48-.53 13.66 13.66 0 0 1 18.82-15.76l20.84-16.92a13.66 13.66 0 0 1 19.3-15.18.75.75 0 0 1 .42.58.77.77 0 0 1 -.27.67l-6.72 5.45a.38.38 0 0 1 -.11.08 19.46 19.46 0 0 0 -2.47 1.58 5.09 5.09 0 0 0 -.74 7.17 5.07 5.07 0 0 0 7.16.74 18.57 18.57 0 0 0 2.06-2.09l.09-.09 6.72-5.45a.76.76 0 0 1 .71-.14.77.77 0 0 1 .49.53zm-5.59 12.75a12.25 12.25 0 0 0 4.37-11.21l-5.71 4.69a21.9 21.9 0 0 1 -2.2 2.22 6.58 6.58 0 1 1 -8.3-10.22 20.8 20.8 0 0 1 2.59-1.74l5.71-4.64a12.17 12.17 0 0 0 -16 14.4.73.73 0 0 1 -.25.76l-21.53 17.5a.73.73 0 0 1 -.79.1 12.17 12.17 0 0 0 -17.39 12.7l5.71-4.63a21.17 21.17 0 0 1 2.2-2.23 6.6 6.6 0 0 1 9.26 1 6.6 6.6 0 0 1 -1 9.26 20 20 0 0 1 -2.63 1.7l-5.71 4.64a12.18 12.18 0 0 0 16-14.41.73.73 0 0 1 .26-.76l21.55-17.5a.73.73 0 0 1 .79-.09 12.26 12.26 0 0 0 13.07-1.54z" fill="#e7c55b"/><path d="m83.62 34.31a12.18 12.18 0 0 1 -17.39 12.69.73.73 0 0 0 -.79.09l-21.55 17.52a.73.73 0 0 0 -.26.76 12.18 12.18 0 0 1 -16 14.41l5.71-4.64a20 20 0 0 0 2.66-1.7 6.6 6.6 0 0 0 1-9.26 6.6 6.6 0 0 0 -9.26-1 21.17 21.17 0 0 0 -2.2 2.23l-5.71 4.63a12.17 12.17 0 0 1 17.39-12.7.73.73 0 0 0 .79-.1l21.56-17.5a.73.73 0 0 0 .25-.76 12.17 12.17 0 0 1 16-14.4l-5.82 4.68a20.8 20.8 0 0 0 -2.59 1.74 6.58 6.58 0 1 0 8.3 10.22 21.9 21.9 0 0 0 2.2-2.22z" fill="#e7c55b"/><path d="m14.28 38.46c.55.73 5.71 7.79 6.09 8.21a1.45 1.45 0 0 0 1.8.11 35 35 0 0 0 4.21-3.54c.69-.77.79-1 .56-1.88-.35-1.14.88-4.16 4.47-3.87a7.83 7.83 0 0 1 5.81 3.09l.73 1a4.2 4.2 0 0 0 .4 4.34l24.28 33.88a4.41 4.41 0 0 0 6.14.73l3.58-2.68a4.42 4.42 0 0 0 1-6.11l-25.59-32.74a4.29 4.29 0 0 0 -4.21-1.55 11.89 11.89 0 0 1 -1.11-1.83c-.3-1-1.4-6.52 2.94-10a11.2 11.2 0 0 1 11.4-1.5c.82.41 1.21.18 1.48-.15a.89.89 0 0 0 -.1-1.32 18.58 18.58 0 0 0 -16.51-2.94c-9.77 2.82-14.42 7.89-15.19 8.72s-.94 2.48-1.23 3.53c-.42 1.4-2.59 1.88-3.29 1.71-1.06-.22-2.63-.45-3.69.35-1.25.98-3.25 2.36-3.58 2.68a1.31 1.31 0 0 0 -.39 1.76z" fill="#98c3d1"/></svg>