<svg xmlns="http://www.w3.org/2000/svg" viewBox="0 0 100 100"><defs><style>.cls-1{isolation:isolate;}.cls-2{mix-blend-mode:multiply;}.cls-3{fill:#98c3d1;}.cls-4{fill:#e7c55b;}</style></defs><title>icons</title><g class="cls-1"><g id="Layer_1" data-name="Layer 1"><g class="cls-2"><path class="cls-3" d="M33.72,84.37A23.72,23.72,0,1,1,57.43,60.65,23.72,23.72,0,0,1,33.72,84.37Zm.29-18a2,2,0,0,1-.9-.35,8.73,8.73,0,0,1-1.74-1.84l-.31-.42-4.41,3a8.54,8.54,0,0,0,2.4,2.56,11.43,11.43,0,0,0,3.14,1.69v3.24h3.52v-3.2a20,20,0,0,0,2.75-1.79,11,11,0,0,0,2-1.84A4.13,4.13,0,0,0,41,65a5.36,5.36,0,0,0-.5-2.62,6.5,6.5,0,0,0-2.25-2c-1.15-.72-2.38-1.4-3.67-2A18.56,18.56,0,0,1,32.17,57a1,1,0,0,1-.48-.72c0-.22.23-.51.7-.86a2.1,2.1,0,0,1,1.13-.52c.55,0,1.39.72,2.54,2.18l.31.43,4.41-3a10.73,10.73,0,0,0-5.07-4.3V47H32.19v3.09A15.72,15.72,0,0,0,29,52.42a9.65,9.65,0,0,0-2.16,2.42,4.46,4.46,0,0,0-.39,1.95,4.88,4.88,0,0,0,.5,2.15A5.85,5.85,0,0,0,29.11,61a33.88,33.88,0,0,0,3.65,2,14.43,14.43,0,0,1,2.48,1.34q.51.44.51.72c0,.2-.24.47-.71.82A2.17,2.17,0,0,1,34,66.39Z"/></g><g class="cls-2"><path class="cls-4" d="M67.28,66.86A23.72,23.72,0,1,1,91,43.14,23.72,23.72,0,0,1,67.28,66.86Zm.3-18a2,2,0,0,1-.9-.35,9,9,0,0,1-1.74-1.84l-.31-.43-4.41,3.05a8.4,8.4,0,0,0,2.4,2.55,11.48,11.48,0,0,0,3.14,1.7V56.8h3.51V53.6A19.56,19.56,0,0,0,72,51.8,11,11,0,0,0,74,50a4.22,4.22,0,0,0,.56-2.48,5.28,5.28,0,0,0-.51-2.61,6.46,6.46,0,0,0-2.24-2c-1.16-.71-2.38-1.39-3.67-2a17.85,17.85,0,0,1-2.42-1.37c-.32-.26-.49-.5-.49-.72s.24-.51.71-.86a2.1,2.1,0,0,1,1.13-.53c.54,0,1.39.73,2.54,2.19l.31.43L74.35,37a10.75,10.75,0,0,0-5.08-4.29v-3.2H65.76v3.08a16.52,16.52,0,0,0-3.22,2.34,10,10,0,0,0-2.16,2.42,4.4,4.4,0,0,0-.4,2,4.68,4.68,0,0,0,.51,2.14,5.79,5.79,0,0,0,2.19,2.07,32.93,32.93,0,0,0,3.65,2,13.55,13.55,0,0,1,2.48,1.35c.33.28.5.53.5.72s-.23.47-.7.82A2.17,2.17,0,0,1,67.58,48.88Z"/></g></g></g></svg>