<svg viewBox="0 0 21.426 21.435" xmlns="http://www.w3.org/2000/svg"><g fill="#fff"><path d="m10.719 1.93c2.864 0 3.2.013 4.329.063a5.875 5.875 0 0 1 1.989.368 3.318 3.318 0 0 1 1.231.8 3.36 3.36 0 0 1 .8 1.231 5.9 5.9 0 0 1 .368 1.989c.05 1.131.063 1.47.063 4.33s-.013 3.2-.063 4.33a5.875 5.875 0 0 1 -.368 1.989 3.309 3.309 0 0 1 -.8 1.231 3.363 3.363 0 0 1 -1.231.8 5.9 5.9 0 0 1 -1.989.368c-1.131.05-1.47.063-4.33.063s-3.2-.013-4.33-.063a5.875 5.875 0 0 1 -1.988-.364 3.317 3.317 0 0 1 -1.231-.8 3.363 3.363 0 0 1 -.8-1.231 5.9 5.9 0 0 1 -.369-1.989c-.05-1.131-.063-1.47-.063-4.33s.013-3.2.063-4.33a5.875 5.875 0 0 1 .368-1.985 3.326 3.326 0 0 1 .8-1.231 3.36 3.36 0 0 1 1.231-.8 5.9 5.9 0 0 1 1.989-.368c1.126-.05 1.466-.063 4.33-.063zm0-1.93c-2.91 0-3.274.012-4.419.063a7.824 7.824 0 0 0 -2.6.5 5.223 5.223 0 0 0 -1.9 1.237 5.248 5.248 0 0 0 -1.239 1.9 7.85 7.85 0 0 0 -.5 2.6c-.048 1.145-.061 1.509-.061 4.419s.013 3.274.063 4.418a7.825 7.825 0 0 0 .5 2.6 5.231 5.231 0 0 0 1.239 1.9 5.239 5.239 0 0 0 1.9 1.235 7.85 7.85 0 0 0 2.6.5c1.143.05 1.507.063 4.418.063s3.275-.013 4.418-.063a7.825 7.825 0 0 0 2.6-.5 5.479 5.479 0 0 0 3.132-3.132 7.85 7.85 0 0 0 .5-2.6c.05-1.143.063-1.507.063-4.418s-.013-3.274-.063-4.418a7.825 7.825 0 0 0 -.5-2.6 5.029 5.029 0 0 0 -1.232-1.904 5.239 5.239 0 0 0 -1.9-1.235 7.85 7.85 0 0 0 -2.6-.5c-1.144-.053-1.508-.065-4.418-.065z" transform="translate(0 .001)"/><path d="m13.287 7.781a5.506 5.506 0 1 0 5.506 5.506 5.508 5.508 0 0 0 -5.506-5.506zm0 9.078a3.571 3.571 0 1 1 3.571-3.571 3.572 3.572 0 0 1 -3.571 3.571z" transform="translate(-2.568 -2.568)"/><path d="m25.2 6.823a1.286 1.286 0 1 1 -1.29-1.286 1.285 1.285 0 0 1 1.29 1.286z" transform="translate(-7.467 -1.827)"/></g></svg>