<svg viewBox="0 0 80.116 41.964" xmlns="http://www.w3.org/2000/svg"><path d="m60.93 39.381v.228h-17.93v-27.409h17.93z" fill="#f6b95e" transform="translate(5.966 1.584)"/><path d="m45.415 40.46v.34h-19.415v-37h19.415z" fill="#f6b95e" transform="translate(3.551 .391)"/><path d="m28.457 38.854v.457h-19.757v-18.387l9.251-6.624 9.936 5.482h.571z" fill="#f6b95e" transform="translate(1.094 1.882)"/><g fill="none" stroke="#002d40" stroke-linecap="round" stroke-miterlimit="10"><path d="m1 40.85h78.116" stroke-width="2"/><path d="m7 39.381v-19.986l9.822-7.195 10.621 6.053" stroke-width="2" transform="translate(.852 1.584)"/><path d="m25.4 40.4v-39.4h20.671v39.515" stroke-width="1.986" transform="translate(3.466 -.007)"/><path d="m43.5 10h18.958v29.236" stroke-width="2" transform="translate(6.037 1.271)"/><path d="m13.677 25.547h8.565" stroke-width="2"/><path d="m13.677 33.541h8.565" stroke-width="2"/><path d="m35.033 9.102h8.565" stroke-width="2"/><path d="m35.033 17.096h8.565" stroke-width="2"/><path d="m35.033 25.319h8.565" stroke-width="2"/><path d="m54.676 17.895h8.565" stroke-width="2"/><path d="m54.676 25.89h8.565" stroke-width="2"/><path d="m54.676 34.227h8.565" stroke-width="2"/><path d="m35.033 33.313h8.565" stroke-width="2"/></g></svg>