<svg enable-background="new 0 0 216 72" viewBox="0 0 216 72" xmlns="http://www.w3.org/2000/svg"><path d="m37.7 40c-.4-.1-.8-.2-1.1-.2-2.3-.1-4.6-.3-6.9-.4-.9 0-1.8.1-2.5.9-.2.2-.5.3-.8.4-.1-.1-.1-.1-.2-.2.1-.4.1-.7.2-1.3-.8-.3-1.6-.6-2.4-.9-2.7-1-5.3-2.3-7.2-4.5-1.1-1.3-1.6-2.9-1.8-4.6-.2-2.3.4-4.5 1.2-6.6.9-2.3 2.3-4.2 3.9-6.1 1-1.1 2-2.2 2.9-3.4.2-.3.3-.7.3-1 .1-.3.1-.7.2-1 1.1-.1 2.1-.1 3.1-.2 1.1 0 1.4-.2 1.5-1.4 0-.7.2-1.2.9-1.5.3-.1.5-.5.6-.8.2-.7.7-.9 1.4-.9.8 0 1.7.1 2.5 0 .5-.1 1-.4 1.4-.6.7-.3 1.3-.9 1.9-1 1.8-.5 3.6-.9 5.5-1.2 1.8-.3 3.7.2 5.4.7 1 .3 1.9.7 2.8 1.1.5.2 1 .5.8 1.1s-.7.6-1.3.5c-.4-.1-.8 0-1.2.1-.8.1-1.4 0-2-.8s-.9-.8-1.6-.1c-.2.2-.4.4-.7.6-.8.5-1.3.3-1.7-.5-.4-.9-.4-.8-1.4-.6-1.3.4-2.7.6-4.1.9-.6.1-1 .3-1 .9 0 .5-.2 1-.7 1.1-.6.1-1-.1-1.3-.6-.1-.1-.1-.1-.1-.1-.7.3-1.3.5-1.9.8-.3.2-.5.5-.6.9-.1.8-.5 1-1.2 1.1-.8.1-1.7.4-2.5.7-.2.1-.5.3-.6.5-.3.7-.9 1-1.5 1.2-.3.1-.7.2-.9.5-1.9 2.1-3.8 4.1-5.7 6.3-.7.9-1.3 1.9-1.7 3-.9 2.5-1.9 5-1.1 7.7.4 1.2.9 2.1 1.9 3 1.9 1.7 4.1 2.6 6.5 3.4.6.2 1.1.4 1.6.6.7.3 1.4.2 1.9-.4.8-.9 1.6-1.8 2.5-2.7 1-1 2.1-1.9 3.2-2.9.5-.4 1-.7 1.4-1.2 1-1.2 2.4-1.9 3.7-2.7 1.9-1.1 3.8-2.2 5.7-3.2.8-.4 1.6-.8 2.5-1 1.4-.3 2-1.3 2.4-2.5.9-2.5 1.6-4.9 1.8-7.5.1-1.2.3-2.4-.6-3.5-.4-.3 0-1 1-1.1 1.4-.1 2.8 1.1 2.8 2.6 0 .4-.1.9-.4 1.2-.7.9-1 1.8-1 2.9 0 1.9-.8 3.6-1.5 5.4-.1.2-.2.3-.2.5 0 .3 0 .8.2 1 .1.1.6 0 .9-.1.5-.1 1-.3 1.5-.3 1 .1 2.3 1.5 2.4 2.5 0 .5-.3.8-.8.6-.2-.1-.5-.3-.7-.4-1.4-.9-4.2-.9-5 .4-.4.7-.7 1.4-1.1 2.1-1 1.7-2.1 3.3-3.1 4.9-.7 1.1-1.2 2.3-1.8 3.6.3 0 .6.1.7 0 3.2-1.7 6.6-3 10-4.2.8-.3 1.7-.3 2.5-.4.3 0 .8.3 1 .6.3.5.3 1.1 1 1.3 1 .3 2 .6 3 .1.4-.2.7-.4 1.1-.5s.9-.2 1.1 0 .3.8.2 1.1c-.1.4-.4.7-.6 1s-.5.6-.9 1c.5.1.8.3 1.1.3 1.1-.1 2.2-.2 3.4-.3.8-.1 1.4-.5 1.7-1.2.4-.9 1.1-1.5 1.9-1.7 1.1-.2 2.1-.4 3.2-.4.8 0 1.1 1 .6 1.6-.4.4-.9.7-1.4 1-.4.2-.8.3-1.1.5v.3c.3.1.6.2.9.2 1.5.1 3.1.2 4.6.2 1 0 1.8-.4 2.4-1.1.1-.2.2-.3.4-.5.4-.4.8-.7 1.4-.4.4.2.4 1.1 0 1.6-.3.4-.8.8-1.1 1.2-.2.3-.4.6-.8 1 .5.2.8.3 1 .3 1.6 0 3.1.1 4.7 0 1.8-.1 3.7-.3 5.5-.6 1.4-.2 2.8-.5 4.1-.9 2.3-.7 4.5-1.6 6.7-2.4.4-.1.7-.5 1.1-.7-.2-.3-.2-.6-.4-.7-.4-.6-.4-1.2.1-1.7.9-.9 1.9-1.9 2.9-2.7.7-.5 1.5-.9 2.1-1.4.3-.2.4-.5.6-.8-.4-.1-.8-.3-1.1-.1-1 .6-2 1.2-2.9 2-1.3 1.2-2.4 2.5-3.7 3.7-1.4 1.3-2.9 2.5-4.4 3.6-.6.4-1.6.6-2.4.6-1 .1-1.5-.9-.9-1.7s1-1.7 2-2.1c.3-.1.5-.4.7-.7 1.8-2.4 4.3-4 7.1-5.1 1.9-.7 3.2-2 4.2-3.8.8-1.5 1.1-3 1.5-4.6.1-.4-.1-.9-.2-1.4s-.3-.9-.6-1.3c-.2-.3-.6-.6-.9-.9s-.7-.6-.9-1c-.1-.2 0-.7.2-.9s.7-.3.9-.1c.9.6 1.7 1.4 2.5 2.1.2.2.2.7.1 1.1-.1.6 0 1 .4 1.4.3.3.5.8.4 1.2-.3 1.3-.6 2.6-1 3.8-.2.5-.5.9-.8 1.3-.1.2-.1.5-.2.9h1.3c.6 0 1.2-.1 1.8 0 1 .2 1.3.9.7 1.8-.4.6-1 1.2-1.7 1.6-.7.5-1.2.8-.9 1.8.2.8-.5 1.4-.8 2-1 1.8-2.6 3.3-3.3 5.4-.2.5-.4.9-1 .7s-1-.4-.9-1.1c0-.2 0-.4 0-.7-.3.1-.5 0-.7.1-1.3.9-2.9 1.3-4.5 1.7-.8.2-1.5.5-2.2.8-2.6.9-5.3 1.2-8 1.6-3 .5-6 .5-9.1.1-1-.1-2.1-.2-3.1-.7-.5-.3-.9-.6-1.2-1.2-.1-.3-.6-.7-.9-.6-1.3.3-2.5-.2-3.7-.3-.7-.1-1.4-.1-2.1 0-1.1.2-2.1.5-3.2.7-1.5.4-3.4-.6-3.9-2.1-.1-.2-.2-.4-.4-.7-.7.4-1.3.8-1.9 1.2-.3.2-.6.6-1 .7-.3.1-.7 0-1 0 0-.3-.1-.7.1-1 .2-.5.5-.9.8-1.4-.1-.1-.2-.2-.2-.2-.3.1-.7.2-.9.4-.6.5-1.2 1-1.8 1.6s-1.2.7-1.6.3c-.4-.5-.2-1.2.3-1.7.4-.4.8-.8 1.2-1.2.1-.1 0-.3 0-.5-1 .3-1.9.5-2.8.9-1.6.7-3.1 1.6-4.7 2.2s-3 1.7-4.9 1.2c-.2-.1-.6.1-.8.3-.9 1.1-1.7 2.2-2.6 3.3-.1.2-.2.4-.3.6.2.2.4.5.5.7.1.3.2.8.1 1-.1.3-.6.5-.9.5-.9-.1-1.6 0-2.3.5-.5.4-1.1.1-1.1-.6-.1-.7 0-1.3.7-1.8.8-.7 1.6-1.1 1.7-2.3zm10-14.1c-.1-.1-.2-.2-.3-.3-.4.2-.9.3-1.3.6-1.7 1-3.4 2-5 3.1-1.4.9-2.7 1.9-3.9 3.1-.7.7-1.1 1.6-1.5 2.5-.4 1.2.2 1.8 1.4 1.5s2.3-.7 3.5-1c1.4-.3 2.5-1.2 3.2-2.4 1.2-1.9 2.3-3.8 3.5-5.8.1-.4.2-.9.4-1.3zm-13.1 11.9c-1.1-1-.9-2.2-1.1-3.5-1.1 1.1-2.4 1.9-3.1 3.4 1.4.4 2.7.6 4.2.1zm65.9-8c-.3.1-.6.2-.8.3-1.1.8-2.2 1.6-3.3 2.4-.4.3-.6.6-.2 1 1.1 0 3.9-2.3 4.3-3.7zm8.6-.7c-1.4 0-3.4 1.5-3.7 2.9 1.2.3 3.1-1.2 3.7-2.9zm-69.1 8c-.6.2-1 .4-1.5.6v.3c.2.1.5.4.7.3.4-.1.7-.4.8-1.2z"/><path d="m154 27.3c-1.4.7-8.2 9.5-8.8 11.5 1.5 1 1.5 1.2 0 2.3-.1.1-.2.1-.2.2-.5.5-1.1.7-1.5.3-.4-.3-.5-1-.5-1.5 0-.4.2-.8.4-1.1 1-2.5 2.6-4.8 4.4-6.8.3-.3.5-.7.7-1-.1-.1-.2-.2-.2-.3-.4.1-.7.2-1.1.4-.8.4-1.6 1-2.5 1.3-1 .4-2 .7-3.1.2-.6-.3-.9-.7-.9-1.4 0-1.4.6-2.5 1.8-3 .4-.2 1.1-.1 1.5.1s.6.6.4 1.2c-.3.1-.7.1-1 .2-.5.2-.8.7-.6 1.1.3.5.7.5 1.1.2 1.5-1.1 3.3-1.7 5-2.5 2.2-1 3.8-2.6 5.4-4.4 1.1-1.2 2.1-2.5 3.1-3.8.4-.4.9-.8 1.3-1.2 1-1 1.9-1.9 2.9-2.9.2-.2.5-.5.8-.7.2-.1.7-.2.8-.1.2.2.4.6.4.9-.2.5-.4 1.1-.8 1.5-1.8 2.1-3.7 4.2-5.5 6.3-.3.4-.8.7-1.1 1s-.6.6-.9.9c1 .8 1.3.8 2 .1 1-.9 2-1.7 3-2.6.6-.5 1.2-.5 1.6.1s.3 1.2-.4 1.6c-1.2.8-2.5 1.6-3.7 2.5-.4.3-.7.9-.8 1.5-.5 2.4-1.9 4.3-2.9 6.5-.2.4-.8.9-.3 1.3.2.2.9 0 1.3-.1.5-.1.9-.3 1.3-.5.5-.2 1-.4 1.7-.7-.3-.5-.5-.8-.7-1-.4-.5-.5-1-.1-1.5.6-.7 1.2-1.4 1.9-1.8 1-.5 2.1-.8 3.2-1 .4-.1.9.1 1.4.2.2 0 .4.2.7.3 1.5.4 1.5.4 1.5 1.9.4 0 .7.1 1.1.1.3 0 .6-.1.9-.1.7 0 1 .5.8 1.2-.1.3-.3.6-.4 1 0 .1.1.1.1.2.9-.3 1.8-.5 2.6-.9.7-.3 1.2-.3 1.9.2 2 1.4 4.1 2.3 6.6 1.6 1.3-.3 2.7-.5 4-.6.4 0 .8.1 1.1.3 1.7 1.2 4.5 1.1 6.1-.2.4-.3.8-.6 1.2-.8 1.5-1 2.1-1 3.5.1.3.2.5.7.5 1.1.1.7.3 1.1 1.1 1.3 1.8.4 3.6 1 5.3 1.4.7.2 1.4.3 2.1.4s1.2.7 1.1 1.3-.8 1-1.5.8c-2.2-.7-4.4-1.3-6.5-2.1-1.4-.5-2.9-.5-4.3-.5-1 0-1.9.1-2.8-.3-.3-.2-.8-.2-1.2-.1-1.3.4-2.5.4-3.8-.1-1.2-.5-1.2-.4-2 .5-.6.7-1.3.6-1.7-.2-.1-.2-.2-.4-.3-.7-.9.1-1.8.1-2.8.2-1 0-2 0-3 0-.4 0-.9.2-1.3.4s-.7.5-1.1.6c-.8.2-1.3-.4-1-1.1.1-.2.2-.3.2-.5.1-.3.2-.7.2-1-.4-.1-.8-.3-1.1-.2-.5.1-1 .3-1.6.5-.8.2-1.5.4-2.3.3-.9 0-1.6-.4-1.9-1.3-.2-.6-.6-.7-1.2-.5-2.5.8-5 1.5-7.2 2.9-1.5.9-3 .7-4.6.6-.7 0-1.2-.6-1-1.4.2-1 .5-2 1.1-2.8 1.1-1.6 1.7-3.4 2-5.3 0-.6-.1-1.2-.9-2zm9.7 5.7c-.1-.1-.2-.3-.2-.4-1.4.2-2.8.3-4 1.1-.2.1-.3.5-.2.7s.4.4.6.4c.9-.2 1.8-.3 2.6-.7.5-.2.8-.7 1.2-1.1z"/><path d="m12.8 65c.3-.1.5-.2.8-.3 2.9-1.8 5.5-3.9 7.8-6.4.5-.5.7-1 .5-1.7-.3-1.3 0-1.5 1.2-1.2.5.1 1.1 0 1.6-.1s1-.2 1.2.3c.3.5.2 1-.3 1.4-2.2 2-4.4 4-6.7 5.9-1.8 1.5-3.8 2.7-5.7 4.1-.5.3-.9.8-1.3 1.1-.7.6-1.3.3-1.4-.6-.1-1.2 0-2.5.7-3.6.3-.4.5-.9.6-1.4.9-2.9 2.6-5.4 4.1-8 1.6-2.6 3.3-5.1 5-7.6.5-.8 1.3-1.3 1.4-2.3 0-.5 0-.9 0-1.4 0-.1-.1-.3-.1-.4-.1-.6-.1-1.1.6-1.3.5-.2 1.2.2 1.3.9.1 1 0 2 0 3 0 .2-.1.4-.3.5-2.4 2.3-4 5.3-5.8 8-.8 1.2-1.5 2.5-2.2 3.8-1 2-2 3.9-3 5.9-.2.3-.2.7-.3 1 .2.2.3.3.3.4z"/><path d="m130.8 26.6c.5-.2 1.1-.5 1.6-.6.7-.1 1.5-.1 2.2 0 1 .2 1.3 1.1.7 2-.2.3-.4.6-.7.9-.8 1-1.6 1.9-2.4 2.9-.2.2-.3.6-.3.9 0 .8-.5 1.1-1.2 1.1-.4 0-1-.2-1.3-.6-.4-.5-.2-1.1.3-1.6.8-.8 1.5-1.6 2.2-2.4.3-.3.4-.8.7-1.3-1.2-.3-1.9.3-2.6.8s-1.2 1.2-1.7 1.9c-1.3 1.9-3 3.5-4.9 4.9-.9.7-1.7 1.3-2.6 2-.7.6-1.6.8-2 .3s-.1-1.2.7-1.9c.6-.4 1.2-.8 1.7-1.4.4-.4.6-.9 1-1.4.7-.9 1.4-1.8 2.2-2.7.6-.6 1.4-1.2 2.2-1.7 1.7-1.1 2.2-2.9 2.3-4.8 0-.4 0-.9 0-1.3.1-1.6-.4-2.9-1.6-4-.4-.4-.7-.8-.9-1.2-.1-.4 0-.8 0-1.2.4.1.9 0 1.1.2.6.5 1.2 1.1 1.6 1.8.6 1.1 1.1 2.3 1.6 3.6.3 1 .3 2-.1 3-.2.4-.2.9-.3 1.3.3.4.4.4.5.5z"/><path d="m139.3 33.1c-.3.2-.5.5-.8.6-.9.4-1.8.8-2.8 1-1.3.3-2.7-.8-2.7-2.1 0-.2 0-.4.1-.5.8-.9 1.6-1.7 2.5-2.5.1-.1.7 0 .9.2.4.4.3.9 0 1.4-.3.4-.5.7-.8 1.1.8.6 1.3.3 1.9.1.5-.1 1.2-.4 1.7.7z"/><path d="m34.2 45.6c.3.2.8.4.8.6.1.3-.1.7-.3 1-.5.5-1 1-1.6 1.5-.1.1-.2.2-.3.2-1.4-.2-1.8.9-2.4 1.8-.2.3-.2.7-.2 1.1 0 .8-.4 1.2-1 1.1-.4-.1-.8-.3-.9-.6s0-1 .3-1.2c.6-.4 1-.9 1.1-1.6 0-.1.2-.3.3-.4 1-.9 1.9-1.8 2.9-2.7.3-.4.8-.6 1.3-.8z"/><path d="m150.6 34.8c-.9 1.8-2 3.2-3.7 4.1-.1-.1-.2-.1-.3-.2.1-.3.2-.6.4-.8 1.9-2.3 2.6-3 3.6-3.1z"/><path d="m114.4 36.1c-.1.4 0 .7-.1.9-.2.4-.4.8-.7 1.1s-.6.5-1 .5c-.1 0-.5-.4-.5-.6 0-.4.2-.9.5-1.1.4-.4 1-.5 1.8-.8z"/><path d="m23.8 61.6c-.1.6-.4.9-.9.8-.4-.1-.9-.5-1-.8-.1-.5.4-.7.9-.7s.9.2 1 .7z"/></svg>