<svg viewBox="0 0 216 72" xmlns="http://www.w3.org/2000/svg"><path d="m120.9 32.07c-.64.44-1.14.72-1.58 1.08a2.64 2.64 0 0 1 -3.89-.78c-.85-1.31-.91-1.32-1.94-.16a28.11 28.11 0 0 0 -1.78 2.4c-.44.62-.95.81-1.46.47s-.53-.86-.11-1.52c.32-.49.64-1 .91-1.5a1.39 1.39 0 0 0 0-.61c-.19 0-.48 0-.58.14a11.25 11.25 0 0 1 -4.47 2.84 3 3 0 0 0 -1 1c-1 1.28-1.85 2.65-2.91 3.85a2.51 2.51 0 0 1 -3.51.38 15.2 15.2 0 0 1 -1.88-1.66c-.54-.48-.78-.45-1 .24a35.05 35.05 0 0 0 -1.57 7.56 11.48 11.48 0 0 0 .47 2.92c0 .19.19.36.21.54a2.57 2.57 0 0 1 -.09.61c-.22-.06-.51 0-.65-.2a4.74 4.74 0 0 1 -1.18-3.38 21 21 0 0 1 1-6.29c.39-1.25.59-2.54.87-3.82a2 2 0 0 0 -.68-1.95 7.64 7.64 0 0 1 -2.37-3.46c-.13-.51-.56-.53-.91-.19a14.76 14.76 0 0 0 -1 1.19 4.32 4.32 0 0 1 -.4.53c-.36.34-.81.59-1.27.25a1 1 0 0 1 -.25-1.28c.46-1 .92-2 1.35-3a4.58 4.58 0 0 0 .31-1.21c0-.19-.08-.54-.18-.56a.79.79 0 0 0 -.65.17c-.68.73-1.36 1.47-2 2.26-1.07 1.36-2.11 2.73-3.1 4.14a16.25 16.25 0 0 0 -.89 1.77c-.14.26-.29.62-.52.71a1.41 1.41 0 0 1 -1.11.07 1.18 1.18 0 0 1 -.31-1.06q.81-2.14 1.81-4.2c.9-1.85 1.87-3.66 2.81-5.49.69-1.35 1.4-2.7 2.08-4.06a2.73 2.73 0 0 0 .17-.71l-.21-.1a9.42 9.42 0 0 1 -1 .89c-2 1.28-4 2.55-6.08 3.79-1 .6-1.93 1.14-2 2.53a8.78 8.78 0 0 1 -.66 2.14 9 9 0 0 1 -.53 1.56 1.76 1.76 0 0 1 -1 .88c-.24.06-.69-.43-.89-.76a3.44 3.44 0 0 1 -.16-1.03c-.08-.47-.33-.55-.7-.25-.81.67-1.57 1.4-2.43 2a9.52 9.52 0 0 1 -2.51 1.43c-1.44.47-3.29-1-3.57-2.59a7.72 7.72 0 0 1 0-3.79 2.74 2.74 0 0 0 0-.86l-.18-.1a4.65 4.65 0 0 0 -.59.49c-1.45 1.68-2.9 3.36-4.31 5.07a5.07 5.07 0 0 1 -1.83 1.6 1.37 1.37 0 0 1 -1.55-.15c-.83-.64-.89-.56-1.46.35a16.85 16.85 0 0 1 -2 2.57 1.44 1.44 0 0 1 -1.72.12 1.66 1.66 0 0 1 -.7-1.82c.26-1 .61-2 .91-3a7.47 7.47 0 0 0 .14-.94c-1.17.59-2.15 1.09-3.14 1.57a5.67 5.67 0 0 1 -.92.36 2.17 2.17 0 0 0 -1.41 1.31c-.78 1.81-1.56 3.62-2.37 5.42a2.43 2.43 0 0 1 -.59.9 1.11 1.11 0 0 1 -.87.23 6.41 6.41 0 0 1 -3.1-2.28c-.5-.71-1.05-1.38-1.58-2.06-.77-1-1.65-.94-2.32.12l-2.95 4.6c-.23.35-.49.68-.74 1-.85 1.13-1.66 2.3-2.58 3.37a15.86 15.86 0 0 1 -2.12 2c-.19.15-.6.05-.9.06 0-.29 0-.67.14-.88 1.31-1.65 2.73-3.21 4-4.9 1.37-1.85 2.61-3.8 3.88-5.71.27-.41 0-.65-.4-.8a5.22 5.22 0 0 1 -3.53-5c0-.66 0-1.39.77-1.74a1.72 1.72 0 0 1 2 .37c.85.84 1.61 1.76 2.43 2.63.2.21.54.55.68.5s.42-.45.58-.72c.34-.57.66-1.14 1-1.73 1.57-3.14 3.12-6.27 4.68-9.41.86-1.74 1.76-3.46 2.58-5.21 1.52-3.21 3-6.43 4.48-9.66.41-.9.94-1.17 1.47-.61a1.07 1.07 0 0 1 .22.93c-.82 1.91-1.7 3.79-2.58 5.67-1.08 2.3-2.23 4.57-3.23 6.91a19.44 19.44 0 0 0 -.84 3.34 18.32 18.32 0 0 0 -.49 2.29c0 .33.14.9.37 1a1.22 1.22 0 0 0 1.08-.25c1.09-1.14 2.14-2.32 3.13-3.56 1.24-1.56 2.48-3.14 3.59-4.8s2.08-3.48 3.11-5.23c.09-.14.14-.35.27-.42s.62-.39.84-.3a1 1 0 0 1 .45.77 3.78 3.78 0 0 1 -.37 1.52c-1.06 2.08-2.21 4.1-3.26 6.18-.78 1.53-1.47 3.11-2.19 4.68s-1.52 3.33-2.27 5q-.46 1.06-.87 2.16a.55.55 0 0 0 0 .45.65.65 0 0 0 .53 0c2.56-1.18 5.07-2.38 6.65-4.94a8.5 8.5 0 0 1 2.19-1.86c.54-.41 1-.24 1.43.27.69.8.83.75 1.29-.22.06-.13.12-.25.19-.37.4-.67 1-.92 1.42-.61a1.11 1.11 0 0 1 .12 1.57c-.41.62-.88 1.21-1.25 1.86-.83 1.45-1.62 2.91-2.4 4.38-.07.13 0 .34 0 .52.2-.06.46-.06.59-.18a24.86 24.86 0 0 0 2.3-2.29c1.46-1.78 2.84-3.63 4.26-5.45a1.12 1.12 0 0 0 .08-1.36 8.9 8.9 0 0 1 -.45-6.34 25.48 25.48 0 0 1 1-3.26 8 8 0 0 1 2.5-3.58 2.46 2.46 0 0 1 2.45-.34 3.66 3.66 0 0 1 1.6 1 25.7 25.7 0 0 1 2.75 3.91 41.68 41.68 0 0 1 1.88 4.64c.15.41.19.86.31 1.29s.23.71.35 1.06h.23a7.64 7.64 0 0 0 .47-.69c.89-1.7 1.71-3.44 2.65-5.1 1.53-2.68 3.12-5.32 4.73-8a12.86 12.86 0 0 1 1.65-2.09 1.31 1.31 0 0 1 1-.35c.2 0 .46.57.42.86a19.33 19.33 0 0 1 -.58 2.9c-.31 1.09-.7 2.17-1.1 3.23s-.79 2.14-1.29 3.16q-1.18 2.47-2.52 4.86a24.74 24.74 0 0 1 -1.6 2.32c-.15.21-.27.45-.41.67l.14.19a3.64 3.64 0 0 0 .73-.31 26.56 26.56 0 0 0 6.31-5.55 1.3 1.3 0 0 1 .81-.5.81.81 0 0 1 .67 1.25c-.58 1.2-1.19 2.38-1.79 3.56l-3.88 7.69c-.2.39-.4.78-.59 1.17l.25.16c.37-.42.73-.86 1.12-1.27a36.78 36.78 0 0 1 2.9-3.06 1.44 1.44 0 0 1 2.32 1.18 10.27 10.27 0 0 1 -.18 1.62c0 .18-.07.35-.13.61.19 0 .32 0 .39-.09 1.21-1.14 2.37-2.34 3.63-3.42s2.39-1.89 3.64-2.77a1.29 1.29 0 0 1 1.07 0 1.84 1.84 0 0 1 .63 1.79c-.6 1.9-1.22 3.81-1.83 5.71-.35 1.09-.7 2.17-1.07 3.25-.19.58.14.69.59.84 1.77.6 3.52.11 5.28 0a2.27 2.27 0 0 0 2.17-1.24.73.73 0 0 0 -.29-1.11c-.79-.48-.74-.54 0-1.1a2.29 2.29 0 0 0 .73-1c.64-1.79 1.18-3.63 1.87-5.42.85-2.23 1.81-4.42 2.73-6.62.85-2 1.69-4.06 2.58-6.06a4.42 4.42 0 0 1 .93-1.27.87.87 0 0 1 1.43.13 2 2 0 0 1 .37 2.18c-1.08 2.91-2 5.88-3.22 8.75-1.07 2.59-2.35 5.09-3.57 7.62-.55 1.11-1.2 2.18-1.79 3.27a1.17 1.17 0 0 0 -.07.38l.14.17c.6-.39 1.21-.77 1.78-1.19.88-.63 1.75-1.29 2.6-2a1 1 0 0 1 1.56.05.77.77 0 0 0 1 .15 1.56 1.56 0 0 1 2.25.94 3 3 0 0 1 .09.32c.41 1.43 1.37 1.83 2.58 1a12.38 12.38 0 0 0 4.92-6c1.28-3.6 2.76-7.14 4.25-10.66.71-1.69 1.62-3.29 2.48-4.91.12-.22.46-.32.7-.47.14.27.41.56.38.81a7.63 7.63 0 0 1 -.45 1.75c-.46 1.25-1 2.47-1.46 3.71l-2.38 6.1c0 .1-.12.19-.15.29-.45 2-1.77 3.5-2.59 5.29-1.28 2.8-2.5 5.63-3.75 8.45-.23.53-.5 1-.73 1.58a4 4 0 0 0 -.12.77 5.57 5.57 0 0 0 1-.74q2.94-3.78 5.84-7.6c.63-.81 1.22-1.66 1.84-2.48.25-.32.52-.7 1-.44a1.21 1.21 0 0 1 .57 1.43c-.49 1.32-1 2.62-1.45 4-.09.25.07.6.12.9.26-.1.6-.13.76-.32 1.56-1.81 3.08-3.64 4.61-5.47a9.38 9.38 0 0 0 .61-.8c.28-.4.69-.72 1.11-.39a2.11 2.11 0 0 1 .59 1.17 1.84 1.84 0 0 1 -.31.93c-.36.79-.74 1.56-1.11 2.33-.21.45-.38.92.09 1.29a1.1 1.1 0 0 0 1.47 0 31.4 31.4 0 0 0 2.91-2.73c.95-1.08 1.73-2.31 2.57-3.48.28-.38.52-.77 1.07-.44a1 1 0 0 1 .46 1.42 2.21 2.21 0 0 0 .24 2.76 1.12 1.12 0 0 1 .07 1.53 2.41 2.41 0 0 0 -.2.84 3.67 3.67 0 0 0 .91.18c1.64-.15 2.65-1.29 3.63-2.44s2-2.47 3-3.64a10.16 10.16 0 0 1 1.88-1.5 1.49 1.49 0 0 1 2.29 1.22 3.81 3.81 0 0 0 .25.79 5.13 5.13 0 0 0 .76-.43c.47-.4.88-.86 1.35-1.24a1.06 1.06 0 0 1 1.85.48 3.11 3.11 0 0 1 .15 1.14c0 .94-.11 1.89-.09 2.83a1.18 1.18 0 0 0 .39.9 1.15 1.15 0 0 0 1-.14 9.82 9.82 0 0 0 1.42-1.24c1.55-1.47 3.13-2.92 4.63-4.44a3.09 3.09 0 0 1 3.65-.74c1 .4 1 .37 1.55-.51a.73.73 0 0 1 .59-.33 1.14 1.14 0 0 1 .79.47 2 2 0 0 1 .12 1.21 21.34 21.34 0 0 1 -.82 2.45 3.56 3.56 0 0 0 1.2 4.57.9.9 0 0 0 .52.25c1.37-.07 2.76-.08 4.12-.27a18 18 0 0 0 5.93-2.37 14.6 14.6 0 0 0 2.62-2.37c.14-.13.15-.38.29-.51a4.44 4.44 0 0 1 .63-.39c.12.24.38.51.33.7a3.8 3.8 0 0 1 -.61 1.34 14.25 14.25 0 0 1 -7.74 4.6 16 16 0 0 1 -3.8.83c-2.36 0-3.66-.24-4.92-2.5-.3-.55-.53-1.13-.83-1.77-1.15.95-2.32 1.89-3.47 2.88-.51.44-1 .81-1.71.46a1.45 1.45 0 0 1 -.8-1.88 17.71 17.71 0 0 1 .92-2c.08-.18.19-.37.28-.55l-.13-.15a2.71 2.71 0 0 0 -.51.26c-1.13 1-2.27 1.95-3.38 2.95a2.63 2.63 0 0 1 -1.43.92 1.76 1.76 0 0 1 -2.2-1.45c-.17-.89-.17-1.81-.27-2.71a5 5 0 0 0 -.21-.76 2.22 2.22 0 0 0 -.66.37c-1.12 1.35-2.2 2.72-3.3 4.08a5 5 0 0 1 -.64.66c-.36.33-.76.5-1.19.13a1 1 0 0 1 -.24-1.29c.58-1.26 1.14-2.53 1.7-3.8a1.81 1.81 0 0 0 .18-.63.51.51 0 0 0 -.2-.41.5.5 0 0 0 -.43.12c-1.07 1.21-2.1 2.45-3.18 3.64-1.39 1.53-2.65 3.24-4.73 3.95a2.53 2.53 0 0 1 -2.67-.37 1.79 1.79 0 0 1 -.63-2.22 1.69 1.69 0 0 0 .17-.89 3.73 3.73 0 0 0 -.5-1 3.48 3.48 0 0 0 -.8.46c-1.04 1.01-2.04 2.16-3.13 3.2a2.44 2.44 0 0 1 -2.72.81 2.87 2.87 0 0 1 -1.7-2.82c-.74.81-1.37 1.53-2 2.23a22.86 22.86 0 0 1 -1.72 1.69 1.31 1.31 0 0 1 -2.25-.72c-.11-.38-.12-.77-.22-1.15a2 2 0 0 0 -.26-.47 1.62 1.62 0 0 0 -.46.28c-1.69 2.05-3.35 4.12-5 6.17-.69.84-1.45 1.61-2.1 2.48a6 6 0 0 0 -1.29 3c-.1 1-.53 1.92-.68 2.9-.4 2.69-.67 5.4-1.1 8.08-.27 1.66-.7 3.3-1.12 4.94-.25 1-.68 1.88-.94 2.84a10.25 10.25 0 0 1 -2.53 4.34 1.53 1.53 0 0 1 -2.49-.13 4.81 4.81 0 0 1 -.78-3.73 60 60 0 0 1 1.33-6.77 51.3 51.3 0 0 1 1.85-6 22.35 22.35 0 0 1 2.13-4.23c1.13-1.75 2.49-3.35 3.65-5.07a11 11 0 0 0 .88-2.21c.08-.2.1-.43.18-.64.79-2 1.6-4.07 2.39-6.11a2.85 2.85 0 0 0 -.06-.83zm-47.46-6.78 2.27-.43a2.43 2.43 0 0 0 1.9-2.3 34.18 34.18 0 0 0 -1-5.22 34.64 34.64 0 0 0 -2.12-5.13 6.67 6.67 0 0 0 -2.39-2.75 2 2 0 0 0 -2.69.58 16 16 0 0 0 -2 4 10.4 10.4 0 0 0 -.56 5.64 2.09 2.09 0 0 0 1.1 1.76 1 1 0 0 1 .45.73 2.43 2.43 0 0 0 1.75 2.21 8 8 0 0 0 3.29.91zm-30-3.18a3 3 0 0 0 -.4.43q-1.43 2.82-2.86 5.63c-.65 1.28-1.34 2.55-2 3.85a1.14 1.14 0 0 0 -.1.89 1 1 0 0 0 .84.35 26.74 26.74 0 0 0 7.26-1.75 1.61 1.61 0 0 0 .73-.75c.58-1.2 1.1-2.42 1.64-3.64q1.47-3.3 2.93-6.61a7.22 7.22 0 0 0 .23-.83l-.18-.11a4.4 4.4 0 0 0 -.63.59c-1.14 1.5-2.21 3.06-3.42 4.5a3 3 0 0 1 -1.77 1.06 2 2 0 0 1 -2.18-2.24c.06-.4-.01-.8-.06-1.37zm73 23.15a3.88 3.88 0 0 0 -.53.5c-.53.84-1 1.71-1.58 2.54-2 3.06-2.83 6.57-3.79 10a40.64 40.64 0 0 0 -.9 6.16 4.58 4.58 0 0 0 .16 1.64.94.94 0 0 0 .53.64.91.91 0 0 0 .76-.34 25.93 25.93 0 0 0 1.73-2.91 25 25 0 0 0 .83-2.44 22.75 22.75 0 0 0 1.35-6.33 43.81 43.81 0 0 1 .75-4.93c.24-1.3.58-2.58.87-3.87a2.87 2.87 0 0 0 -.15-.66zm-47.39-13.61a5.25 5.25 0 0 0 .65-.2 24.1 24.1 0 0 0 5.6-4.24c.15-.14.17-.42.25-.64a2.44 2.44 0 0 0 -.68-.12 7.53 7.53 0 0 1 -6.45-1.61c-.31-.26-.53-.25-.7.15a8.4 8.4 0 0 0 -.56 5 1.85 1.85 0 0 0 1.89 1.66zm19-25.55a128.33 128.33 0 0 0 -9.23 17c2.59-.75 9.79-14.1 9.23-17zm10.14 17.9-.19-.18a7.4 7.4 0 0 0 -1 .69c-1 1-2.07 2-3.12 3-1.36 1.28-1.38 1.27-.64 3a9.55 9.55 0 0 0 .89 1.49 2.27 2.27 0 0 0 .66.61c.7.44 1 .31 1.3-.48l1.17-3.46a13.73 13.73 0 0 0 .93-4.67zm1.84 15 .1-.13c.24-.07.57-.06.7-.22.91-1 1.78-2.1 2.64-3.18 0 0-.24-.43-.36-.42-.77 0-1.53.24-2.3.25-1.15 0-2.31-.07-3.46-.1-.25 0-.62 0-.73.18a.85.85 0 0 0 0 .76 6.92 6.92 0 0 0 1.38 1.75 12.55 12.55 0 0 0 2 1.16zm-57-.5a5.25 5.25 0 0 0 .89-1c.59-1.16 1.12-2.35 1.65-3.54a2.31 2.31 0 0 0 .08-.75 3.33 3.33 0 0 0 -.84.05c-.37.11-.69.36-1.06.46-1 .27-2 .49-3 .71s-1.08.5-.49 1.26a9.55 9.55 0 0 0 .82 1.15c.58.62 1.21 1.09 1.92 1.71zm64.17-10.13.38.15a83 83 0 0 0 6.53-16.35l-.45-.18c-2.28 5.41-4.45 10.86-6.46 16.38zm-47.71-2.65-.26-.17c-1.06.82-2.19 1.57-3.17 2.48a12.39 12.39 0 0 0 -2.93 5.32c-.06.19.08.45.13.68.22-.12.52-.17.65-.35 1.47-1.95 2.92-3.9 4.34-5.88.46-.65.83-1.38 1.24-2.08zm-26.8 4.41a3.21 3.21 0 0 0 3 3c.57 0 .83-.36.56-.86a5.06 5.06 0 0 0 -.6-.8c-.58-.69-1.15-1.42-1.79-2.06-.21-.21-.62-.21-.94-.31-.08.27-.17.54-.23.81a.66.66 0 0 0 -0 .22zm136.18-1.86a.94.94 0 0 0 -.2-.38.45.45 0 0 0 -.43.07c-.43.6-.83 1.22-1.22 1.86a.47.47 0 0 0 .07.44.44.44 0 0 0 .43 0 2.8 2.8 0 0 0 1.35-1.99z"/></svg>