<svg viewBox="0 0 216 72" xmlns="http://www.w3.org/2000/svg"><path d="m40.83 18.94c2.87.16 5.12.23 7.37.42a13 13 0 0 1 5.26 1.64c2.3 1.25 2.69 4.55 1.79 6.32a19.87 19.87 0 0 1 -5.62 6.2c-2.09 1.71-4.37 3.18-6.6 4.7-.7.48-1.53.77-2.26 1.21-.28.16-.44.52-.66.78.26.2.5.52.78.57a11.8 11.8 0 0 1 6 2.95 11.59 11.59 0 0 1 1.4 1.84c.17.25.24.59.45.79a4 4 0 0 0 .87.46c.12-.29.26-.58.36-.87a9.82 9.82 0 0 1 .66-1.89c.42-.67.93-.66 1.41 0a6.69 6.69 0 0 1 .83 1.51c.18.4.21.87.38 1.27.3.7.82.75 1.2.1a5.29 5.29 0 0 0 1-3.09 1.82 1.82 0 0 1 2.13-2.11 7.4 7.4 0 0 0 5.38-1.56 2.32 2.32 0 0 1 1.2-.18 7.55 7.55 0 0 0 1.31.13c2-.41 3.93-.93 5.91-1.32a26.23 26.23 0 0 1 3.74-.49c.86-.05 1.36.58 1.38 1.46v.61c-.07 1.38.16 1.63 1.52 1.57a4.73 4.73 0 0 1 4 1.75c1.32 1.44 1.8 2.63.61 4.29-.33.46-.49 1.06-.83 1.52-.47.63-1.06.63-1.36-.08a16.13 16.13 0 0 1 -.79-2.94c-.19-1-.33-1.2-1.32-1.09a7.28 7.28 0 0 0 -3.76 1.91c-.1.08-.16.23-.26.32-.61.6-1.32 1.49-2.14 1.06-.64-.33-1-1.31-1.32-2.06a1.35 1.35 0 0 1 .2-1c.62-1 1.32-2 1.94-3a1.23 1.23 0 0 0 .1-.94c0-.13-.55-.2-.81-.14-1.54.33-3.07.69-4.59 1.09-1.15.31-1.24.68-.92 1.81s1 2.29.47 3.57a2.06 2.06 0 0 1 -2.2 1.6 5.27 5.27 0 0 0 -1.77.36 5.34 5.34 0 0 1 -4.1-.24 8.06 8.06 0 0 1 -1.72-.9c-.64-.41-1-.22-1.3.41s-.29 1.06-.51 1.55c-.58 1.25-1.27 1.45-2.32.59-.62-.51-1.13-1.17-1.72-1.74a4.88 4.88 0 0 0 -.87-.58 8.69 8.69 0 0 0 -.44.86c-.1.25-.06.6-.22.77a2.85 2.85 0 0 1 -1.25.92c-.26 0-.75-.52-.94-.91-.38-.76-.54-1.62-.94-2.37a7.62 7.62 0 0 0 -1.6-2.32 9.56 9.56 0 0 0 -4.46-2.22c-.84-.16-1.26.21-1.17 1.06.18 1.91.42 3.81.57 5.72a5.37 5.37 0 0 1 -.21 1.82.9.9 0 0 1 -1.52.51 2.49 2.49 0 0 1 -1-2.14c.05-1.43.06-2.86.05-4.29 0-.68-.12-1.36-.12-2s-.35-1.08-1.06-1.06c-.55 0-1.1.06-1.65.09a2.51 2.51 0 0 1 -2.55-1.92c-.18-.89.47-1.22 1.09-1.52.86-.42 1.76-.77 2.63-1.18 1.25-.6 1.37-.89 1.07-2.27a21.71 21.71 0 0 1 -.49-2.63c0-.48.12-1 .76-1s.86.35 1 .84c.2.69.32 1.4.55 2.08.41 1.19.77 1.33 1.79.63 2.4-1.65 4.75-3.36 7.16-5a20.17 20.17 0 0 0 4.82-4.58 6.93 6.93 0 0 0 .71-1.13 2 2 0 0 0 -.79-3 9.83 9.83 0 0 0 -2.93-1.15 42.29 42.29 0 0 0 -14-.1 141.73 141.73 0 0 0 -18 3.62 65.52 65.52 0 0 0 -7.31 2.79 2.86 2.86 0 0 0 -1 .72c-.65.69-1 .71-1.65 0a1.39 1.39 0 0 1 .06-2.1 4.66 4.66 0 0 1 1.15-.62 34.2 34.2 0 0 1 4.27-1.75c4-1.1 7.94-2.14 11.94-3.06 2.5-.58 5.05-1 7.59-1.32 2.92-.44 5.86-.68 8.19-.93zm21.28 24.93-1.55.43a8 8 0 0 1 -1.26.31c-.54.06-1.11.13-1.14.78s.62.67 1.11.75c1.35.21 2.69.41 4 .63.68.1 1-.22 1-.93a2.17 2.17 0 0 0 -2.16-1.97z"/><path d="m143.28 36.55a5.19 5.19 0 0 0 1.12-.11c2.58-.79 5.24-.42 7.86-.52 1.35-.06 1.82.42 1.8 1.76a1.2 1.2 0 0 0 .94 1.32 7.77 7.77 0 0 1 1.78 1.34c.35.28.64.62 1 .93s.86.48 1.28-.07a6.93 6.93 0 0 1 .91-1c.5-.48 1.07-1 1.8-.64a2.43 2.43 0 0 1 1.44 2c.11 2 .87 2.78 2.88 3a12.65 12.65 0 0 0 4.59-.17c.77-.2 1.35.46 1.19 1.3a2.09 2.09 0 0 1 -1.64 1.8 51.31 51.31 0 0 1 -5.4.47 3 3 0 0 1 -2.83-1.45 4 4 0 0 0 -.32-.4c-1-1.19-1.2-1.14-2 .22a3.46 3.46 0 0 1 -1.35 1.43 1.31 1.31 0 0 1 -1.86-1.07c-.07-1.62-1.11-2.59-2.06-3.64-.7-.77-1.42-1.46-1.34-2.65 0-.62-.51-.77-1.07-.88a22.22 22.22 0 0 0 -5.93.11c-.68 0-1.36.06-2 .06-.84 0-1.16.33-1 1.14a11 11 0 0 0 .58 1.64 4.5 4.5 0 0 1 -1.34 4.64 1.49 1.49 0 0 1 -2.34-.22 1.6 1.6 0 0 1 .26-2.29 2.16 2.16 0 0 0 .52-3 2.91 2.91 0 0 0 -1.3-1.18 2 2 0 0 1 -.93-3.28 3 3 0 0 0 .86-2 3.16 3.16 0 0 1 .11-.6c.14-.55.31-1.13 1.06-1s.87.63.78 1.32c-.18 1.35.13 1.6 1.95 1.69z"/><path d="m190.84 42.32a9.81 9.81 0 0 0 -1.33 0 2.16 2.16 0 0 0 -1 .36 1 1 0 0 0 -.34.86c.06.21.52.41.8.41a14.34 14.34 0 0 0 1.94-.2 33.12 33.12 0 0 0 3.43-.56 3.07 3.07 0 0 0 2.2-3.12 3.69 3.69 0 0 1 2.13-3.88 65.66 65.66 0 0 1 6.59-3.06 5.84 5.84 0 0 1 1.92-.29c1-.06 1.47.28 1.63 1a1.91 1.91 0 0 1 -1 2c-1.9.84-3.83 1.64-5.72 2.52a3.93 3.93 0 0 0 -2.24 2.85 31.83 31.83 0 0 1 -1.21 4.11c-.55 1.48-1.7 1.83-3.12 1.18a2.49 2.49 0 0 0 -1.47-.2c-1.8.39-3.58.85-5.36 1.32a3.19 3.19 0 0 1 -3.74-3.58 2.92 2.92 0 0 0 -.54-2.29c-.8-1.17-.52-1.92.83-2.26s2-1.36 2.79-2.31a2.8 2.8 0 0 1 2.54-1.18 2.46 2.46 0 0 1 .6.12 5.81 5.81 0 0 1 2.9 4.2 1.72 1.72 0 0 1 -1.8 1.92c-.47 0-1 0-1.43 0zm-1-1.81a1.13 1.13 0 0 0 1.25-1c0-.66-.47-.75-1-.73s-1.15.11-1.16.85a.84.84 0 0 0 .94.88z"/><path d="m122.21 44.53a6.21 6.21 0 0 1 1.42-.07 2 2 0 0 1 1.26.62 1.29 1.29 0 0 1 -.3 1.23 14.52 14.52 0 0 1 -2.59 1.38 9 9 0 0 1 -1.78.47 1.49 1.49 0 0 1 -.89 0 6.08 6.08 0 0 0 -4.79-.08c-1.45.49-2 .24-2.63-1.15a1.09 1.09 0 0 0 -1.83-.46 13.23 13.23 0 0 0 -1.46 1.44c-.56.61-1.12.87-1.86.29-.54-.43-.87-.3-1.18.34a5.06 5.06 0 0 1 -1.13 1.46c-.66.61-1.29.48-1.62-.35a8.84 8.84 0 0 1 -.56-2.15c-.12-.78-.4-1.07-1-.64a8.52 8.52 0 0 0 -1.67 1.72c-.34.41-.52 1-.85 1.39s-.78.46-1.22 0a2.74 2.74 0 0 1 -.18-3.74 8.21 8.21 0 0 1 5.52-3 2.57 2.57 0 0 1 2.85 1.33c.47.76.71.84 1.32.23a9.92 9.92 0 0 1 5.51-2.56 2.9 2.9 0 0 1 1.45.5 1.88 1.88 0 0 1 .55.6 1.59 1.59 0 0 0 1.9.83c.9-.28.59-1.08.79-1.7a10.88 10.88 0 0 1 1.18-2.46 1.16 1.16 0 0 1 1.8.12 3.08 3.08 0 0 1 .65 2.6c-.4 1.66-.41 1.66 1.34 1.81z"/><path d="m145.42 31.08-2.34.85a5.84 5.84 0 0 1 -1 .33 19.56 19.56 0 0 0 -6.34 2.22 1.29 1.29 0 0 1 -1.1-.06 2.27 2.27 0 0 1 .12-3.16 9.76 9.76 0 0 1 1.4-.62c3.37-1.47 7-1.85 10.57-2.45s7.38-1.1 11.05-1.77c2.08-.37 4.12-1 6.16-1.53 1.21-.33 1.81-.06 2.27 1.19a1.72 1.72 0 0 1 -1.12 2.13 10.74 10.74 0 0 1 -1.81.36c-4.44.8-8.87 1.62-13.32 2.37-1.48.24-3 .27-4.49.4z"/><path d="m93.15 50.72c-1.14.29-1.86-.19-2.27-1.37-.29-.82-.81-.91-1.54-.39a20.84 20.84 0 0 1 -1.73 1.28 3.81 3.81 0 0 1 -1.73.48 1.28 1.28 0 0 1 -1.15-1.67 31.17 31.17 0 0 0 1.08-3.17c.34-1.44 1.38-2.33 2.27-3.35a.88.88 0 0 1 1.36-.13c1 .88 2 1.79 2.87 2.75a11.54 11.54 0 0 1 1.19 1.65 2.06 2.06 0 0 0 1.41 1.07.75.75 0 0 1 .58 1c-.43 1.66-.64 2.13-2.34 1.85z"/><path d="m182.75 44a3.63 3.63 0 0 1 -1.6 3.35.9.9 0 0 1 -1.34-.21 2.81 2.81 0 0 1 -.62-2.6 11.71 11.71 0 0 0 -.27-6.76 35.24 35.24 0 0 1 -.94-3.45 2.6 2.6 0 0 1 .34-1.55c.57-1 1.38-1 2 0a11.7 11.7 0 0 1 1.85 6.09c.06 1.72.38 3.41.58 5.13z"/><path d="m172.81 43.19a12.84 12.84 0 0 0 -1.33-6 7.68 7.68 0 0 1 -.41-3.72c0-.68 1-1 1.63-.58a3.13 3.13 0 0 1 1 1.37c.82 2.54 1.61 5.09 2.31 7.67a3.92 3.92 0 0 1 -.78 3.86 1.76 1.76 0 0 1 -1.29.57c-.31 0-.68-.61-.8-1a14.92 14.92 0 0 1 -.33-2.17z"/></svg>