<svg xmlns="http://www.w3.org/2000/svg" viewBox="0 0 100 100"><defs><style>.cls-1{isolation:isolate;}.cls-2{fill:#98c3d1;}.cls-2,.cls-3,.cls-4,.cls-5{mix-blend-mode:multiply;}.cls-3{fill:#e7c55b;}.cls-4,.cls-5{fill:none;stroke-miterlimit:10;stroke-width:2.83px;}.cls-4{stroke:#568095;}.cls-5{stroke:#d49162;}</style></defs><title>icons</title><g class="cls-1"><g id="Layer_1" data-name="Layer 1"><path class="cls-2" d="M36.93,14.3A23.91,23.91,0,0,0,19.27,54.41L10.7,62.09l26.1.06a23.93,23.93,0,1,0,.13-47.85Z"/><path class="cls-3" d="M38.85,59.34a23.94,23.94,0,0,0,24,23.86L89,83.13l-8.57-7.67A23.94,23.94,0,1,0,38.85,59.34Z"/><line class="cls-4" x1="23.69" y1="30.42" x2="49.27" y2="30.42"/><line class="cls-4" x1="23.69" y1="36.82" x2="49.27" y2="36.82"/><line class="cls-4" x1="23.69" y1="43.21" x2="36.48" y2="43.21"/><line class="cls-5" x1="76.78" y1="54.41" x2="51.19" y2="54.41"/><line class="cls-5" x1="76.78" y1="60.81" x2="51.19" y2="60.81"/><line class="cls-5" x1="76.78" y1="67.2" x2="63.99" y2="67.2"/></g></g></svg>