<svg enable-background="new 0 0 216 72" viewBox="0 0 216 72" xmlns="http://www.w3.org/2000/svg"><path d="m64.2 27.6c.1-.4.2-.8.4-1.2-1.1.6-1.2.9-.8 1.9.1.1 0 .4-.1.5-.6.8-1.2 1.7-1.9 2.5-1.1 1.4-2.2 2.8-3.4 4.2-1 1.2-2 2.4-3.1 3.5-.4.4-.2.7.1 1l.9.9c.6.7 1.4.8 2.6.3 1.5-.6 3.1-1.1 4.7-1.2.3 0 .7 0 .9.2.5.6.8.3 1.3-.1 2.3-2.1 4.5-4.3 6.8-6.4 1.6-1.5 3.2-3 4.8-4.4.5-.5 1-.6 1.5-.1.5.6.3 1-.2 1.6-2 2-4 4-5.9 6.1-.7.8-1.4 1.7-2 2.6-.1.1-.1.3-.2.6.4-.1.6-.2.8-.3 2.5-1.6 4.9-3.1 7.4-4.7.3-.2.6-.3.9-.4.5-.2 1-.5 1.4.2.4.6.2 1.2-.3 1.8-1.3 1.5-2.5 3-3.8 4.5 0 .1 0 .3-.2.8.6-.1 1 0 1.3-.2 1.6-.8 3.2-1.8 4.9-2.6 1.4-.7 2.8-1.4 4.1-2.2.5-.4.8-1.2 1.1-1.8 1.1-2.1 2.7-3.8 4.3-5.5 2.4-2.6 5.1-4.9 8-7 .9-.6 2-1.1 3-1.5s1.9-.8 2.9-1.2c.9-.3 1.8-.5 2.7-.7.8-.1 1.5.3 1.8 1s.6 1.5-.1 2.1c-1.3 1.2-2.7 2.5-4 3.7-.5.5-1.1.9-1.7 1.4-2.3 1.6-4.5 3.3-6.8 4.9-1.9 1.3-3.9 2.3-5.9 3.4-.9.5-1.8.9-2.6 1.6-.4.4-.8 1.1-.8 1.6-.1.6.5.7 1 .4 1-.6 2.1-1.2 3.1-1.8.7-.4 1.3-.9 2-1.4 2-1.4 3.9-2.7 5.9-4.1.3-.2.7-.4 1-.4.5 0 1.4.1 1.5.3.2.5.1 1.3-.2 1.7-1.1 1.4-2.4 2.7-3.6 4.1-.7.8-1.4 1.7-2.1 2.6-.2.2-.3.6-.3.9 0 .7-.4.7-.9.7-.8-.1-1.3-1.1-.9-1.9 1-2.2 2.9-3.6 4.4-5.4.2-.2.3-.4.5-.6-.1-.1-.2-.2-.2-.2-.9.8-1.8 1.6-2.7 2.4-1.3 1.1-2.6 2.2-4 3.3-.7.6-1.5 1.2-2.4 1.5-.7.3-1.6.3-2.3.2s-1.1-.6-1.3-1.4-.5-.7-1.1-.4c-2.6 1.4-5.3 2.7-7.9 4.1-1.1.6-2.2.4-3-.6-.5-.7-.4-1.5 0-2.2.3-.5.6-.9.9-1.4-.1-.1-.2-.1-.3-.2-.6.4-1.3.8-1.9 1.3-1.1.8-2.2 1.7-3.6 2.1-1.3.4-2.3 0-2.8-1.4-.2.1-.5.2-.7.4-1.8 1.9-3.6 3.7-5.3 5.6-.5.5-1 .5-1.4-.1-.2-.2-.3-.5-.4-.7.7-1.2 1.4-2.3 2-3.4.1-.2.1-.5 0-.6s-.4-.2-.6-.1c-1.1.4-2.2.8-3.4 1.2-1.1.4-2 .2-2.7-.8-.7-.8-2.4-.7-3.1.1-1.1 1.3-2.4 2.5-3.6 3.8-.5.5-1.1.9-1.5 1.4s-.7.6-1.3.1c.5.9 0 1.4-.6 2-1.5 1.5-2.9 3-4.4 4.4-.4.4-.9.7-1.2 1.2-.1.2-.5.2-.6.2-.2.4-.4.9-.7 1.3-.7.9-1.5 1.8-2.2 2.7-.2.3-.6.4-.9.6-.6.6-1.1 1.3-1.6 2-1.5 1.7-3.1 3.5-4.7 5.1-.3.3-1 .2-1.6.3-.1-.4-.3-1-.2-1.3 1-2.4 2-4.9 3.6-7 .5-.7.8-1.5 1.3-2.2 2-2.8 3.9-5.6 6-8.2 1.3-1.5 3-2.7 4.6-3.9 1.4-1.1 3-2.1 4.5-3.1.2-.1.4-.2.5-.2-.1-.1-.1-.2-.2-.3-.8-.1-1.5-.1-2.3-.2-2.8-.3-5.6-.5-8.2-1.6-.8-.3-1.6-.7-2.4-1-1.3-.6-1.7-1.8-1.6-3.1.1-1.1.4-2.1 1-3.1 1.4-2.5 3.2-4.7 5.1-6.7 2.6-2.7 5.2-5.5 8.2-7.8 1.6-1.2 3.1-2.7 4.7-3.9 2-1.5 4.1-2.9 6.2-4.2 1.9-1.3 3.9-2.3 5.9-3.3.4-.2.9-.2 1.4-.4 1.4-.6 2.9-1.2 4.3-1.7 2.2-.8 4.3-1.6 6.7-1.6 2.5 0 3.5 2.3 2.5 4.3-1.5 3.1-3.5 5.8-5.6 8.5-1.8 2.3-3.4 4.6-5 6.9-.8 1.1-1.7 2.2-2.5 3.3-.4.5-.8 1-1.2 1.6-.1 0-.3-.1-.4-.1zm-30 7.9c-.1 1.5.7 2 1.4 2.5 2.4 1.4 5.2 1.6 7.9 2 1.9.3 3.8.4 5.7.4 1 0 2.1-.3 2.9-.8 1.2-.9 2.2-2.1 3.2-3.3 1.8-2.2 3.6-4.4 5.3-6.6l4.8-6c1.8-2.3 3.5-4.7 5.2-7 1.8-2.4 3.6-4.8 5.3-7.3.7-1 1.2-2.2 1.8-3.4.4-.8 0-1.5-.9-1.6-.5-.1-1.1-.1-1.6 0-1.9.6-3.8 1.2-5.7 1.8-1.1.4-2.2.7-3.2 1.2-1.7.7-3.4 1.3-4.9 2.2-2.5 1.4-5 3-7.3 4.7-2.2 1.6-4.3 3.3-6.3 5.1-2.4 2.1-4.7 4.3-6.9 6.7-1.8 2-3.5 4.2-5.1 6.3-1.1.9-1.7 2.2-1.6 3.1zm75-14.1c-.5-.1-.8-.3-1-.2-2 .8-4 1.6-6 2.6-1.2.6-2.3 1.6-3.3 2.4-1.1.9-2.2 1.9-3.3 2.9-.4.4-.8.9-1.3 1.3-1.1 1.2-2.3 2.3-3.4 3.5-.1.1 0 .3-.1.5.2 0 .4 0 .5-.1.3-.2.5-.4.8-.6 2-1.2 4-2.4 6-3.7 2.3-1.5 4.5-3.2 6.6-4.8 1.3-1 2.5-2.1 3.7-3.1.4 0 .5-.3.8-.7zm-78.9 42.2c6.1-6.7 12.2-13.4 18.2-20.1-.1-.1-.1-.1-.2-.2-3.9 2.4-7.6 4.9-10.6 8.5-2.9 3.6-5.3 7.6-7.4 11.8zm21.2-21.4c-1.3.4-1.3.5-1.2 1.2.2-.1.3-.2.5-.4.1-.2.3-.4.7-.8z"/><path d="m127.6 40c1.6-.3 3.3-.2 4.7-1 1.6-.9 2.9-2.4 4.4-3.7.6-.6 1.2-1.2 1.9-1.8.5-.4.5-.7 0-1.1-.3-.2-.6-.8-.5-1 .1-.3.6-.6 1-.7s.8-.1 1.2-.1c1.7.1 2.8-.7 4-1.8 1-1 2.3-1.7 3.5-2.6.3-.2.6-.4.9-.6.7-.4 1.5-.3 1.9.2.4.7.1 1.2-.7 1.6-.3.1-.6.3-.8.5-.8.6-1.6 1.2-2.6 2 .5.1.7.2.9.2 1.6-.1 3.2-.3 4.8-.4 1.2-.1 2.4-.3 3.5-.2 2.8.3 4.8-1 6.8-2.6 2.1-1.7 4.3-3.3 7-4 .6-.2 1.3-.4 1.9-.5.8-.1 1.5.2 1.8 1s-.1 1.4-.7 1.9c-1.1.8-2.2 1.7-3.3 2.5-.3.2-.5.4-1 .8.6.1.9.1 1.3.1 3.1 0 6.1-.1 9.2-.1 2.5 0 4.9.1 7.4.2.4 0 .7.4 1 .6-.3.3-.6.6-1 .8-.1.1-.2 0-.3 0-2.6.1-5.1.2-7.7.3-3.5.1-7 .1-10.4 0-1.3 0-2.5.1-3.6 1.1-.9.8-2.1 1.4-3.2 2.1-.9.6-1.8 1.2-2.7 1.8-.7.4-1.4.8-2.3 1.4.6 0 1 0 1.3-.1 1.4-.6 2.8-1.3 4.2-1.9 2.1-.9 4.2-1.9 6.3-2.7.3-.1.9.1 1.1.3s0 .8-.2 1.1c-.1.3-.5.4-.8.6 0 .1.1.2.1.3.3-.1.6-.1.9-.2.4-.2.7-.4 1.1-.6 1.3-.5 1.5-.4 2.2.8.4-.3.8-.7 1.3-.9 1.3-.7 2.7-1.3 4.1-1.9.3-.1.7-.1 1-.1.6 0 1.1.1 1.2.7s-.2 1-.7 1.3c-1.7.9-3.4 1.9-5 2.9-.2.1-.4.4-.4.6s.3.5.5.6c1.1.1 2.3.2 3.5.2.2 0 .5-.2.7-.1.2 0 .6.2.6.4.1.2-.1.5-.3.7-.1.1-.3.2-.4.2-2.2.8-4.4.9-6.3-1-.2-.2-.6-.2-.8-.2-1.4.5-2.1.2-2.7-1.3-.2-.6-.6-.3-.9-.2-.8.4-1.6.9-2.5 1.2-1.5.7-2 .4-2.6-1-.1-.1-.6-.2-.9-.1-1.2.5-2.3 1.2-3.4 1.7-.9.4-1.8.6-2.7.7-.5.1-1.1-.3-1.6-.4-.4-.1-.9-.3-1.3-.2-1.8.6-3.5 1.4-5.3 2-.8.3-1.7.5-2.6.5-.5 0-1.3-.4-1.5-.8s.2-1.2.5-1.6c.5-.7 1.1-1.2 1.7-1.8 0-.1-.1-.1-.1-.2-.2.1-.5.1-.7.2-1.7 1-3.3 2.1-5 3.1-.9.5-1.9.9-2.8 1.3-.7.3-1.4.1-1.9-.5-.3-.4-.6-.6-1.1-.1-.2.2-.8.3-1.2.2-1.3-.3-2.5 0-3.7.6-.9.5-1.9.8-2.9 1.2-.6.2-1.9-.6-1.9-1.2 0-.2.2-.5.3-.7.5-.6.9-1.1 1.4-1.6 0 0 0-.1 0-.3-.3.1-.5.2-.7.3-1.1.6-2.1 1.2-3.1 1.7-1.5.7-3.1 1.4-4.7 2-1 .4-2.2.6-3.3.6-2.1.1-3.5-1.8-3.1-3.8.1-.5.1-1.1.3-1.6.6-2.1 2.1-3.6 3.6-5.1 1.9-1.9 3.9-3.7 6-5.3 2.3-1.7 4.8-3.2 7.2-4.7 1.8-1 3.6-2 5.5-2.8 1.5-.6 3-1.6 4.8-1.4 1.5.1 2.5 1.9 1.9 3.3-1 2.2-2.5 4-4.3 5.6-.6.5-1 1.2-1.5 1.7-.7.6-1.4 1.2-2.1 1.8-.8.7-1.7 1.3-2.6 2s-1.4.6-2-.2c-.4-.6-.1-1 .2-1.4.7-.8 1.5-1.5 2.2-2.2 2-2 3.9-4 5.9-6 .2-.2.6-.3 1-.5.3-.1.7-.1.8-.4.3-.5.3-1.1.5-1.6-.5 0-1-.2-1.4 0-1.4.5-2.8.9-4.2 1.6-1.7.8-3.5 1.8-5.1 2.8-2.2 1.4-4.3 3-6.4 4.6-1.5 1.1-2.9 2.2-4.3 3.5-1.7 1.5-3.4 3.1-4.3 5.3-.1.2-.2.5-.2.7-.2.8-.3 1.6.4 2.2.7.5 1.5.3 2.3-.1.4-.2.9-.2 1.3-.4 2.8-1.2 5.5-2.5 8.2-3.7 1.1-.5 2.2-1.1 3.4-1.6 1-.5 2-1 3.1-1.4.5-.2 1.1-.6 1.5 0s.3 1.2-.3 1.7c-1.3 1.1-2.6 2.2-4 3.3-.1.1-.4.2-.5.2-.2.5-.2.6-.1.7zm28.7-8.4c-.5-.1-.8-.2-1.1-.1-3.1.2-6.2.4-9.3.6-1 .1-2.2.2-3 .8-2.5 1.7-4.7 3.7-6.6 6-.1.2-.2.3-.3.5.2 0 .5.2.7.1 1.3-.6 2.7-1.2 4-1.8 1.5-.7 2.9-1.4 4.4-2.1.6-.3 1.3-.6 1.4.5 0 .1.1.1.2.2.7.6.7 1 0 1.7-.4.3-.6.8-1 1.2.2.1.3.2.4.1 1.5-.5 3-.9 4.4-1.6.9-.5 2.1-.5 2.7-1.6.5-.9 1-1.8 1.6-2.7.3-.6.9-1 1.5-1.8zm6.8-2.9c1 .4 1.9.4 2.7-.2 1.1-.7 2.2-1.5 3.3-2.2.5-.3.9-.7 1.4-1.1-.1-.1-.2-.2-.3-.4-2.8.5-4.7 2.6-7.1 3.9zm-1.2 2.6c-.1-.1-.1-.2-.2-.3-1.4-.3-5.2 2.3-5.3 3.9 2-1.2 3.7-2.4 5.5-3.6z"/></svg>