<svg viewBox="0 0 21.442 17.419" xmlns="http://www.w3.org/2000/svg"><path d="m21.436 6.06a8.67 8.67 0 0 1 -2.525.691 4.423 4.423 0 0 0 1.934-2.433 8.85 8.85 0 0 1 -2.793 1.068 4.4 4.4 0 0 0 -7.5 4.012 12.484 12.484 0 0 1 -9.06-4.598 4.4 4.4 0 0 0 1.361 5.871 4.4 4.4 0 0 1 -1.993-.548v.054a4.4 4.4 0 0 0 3.53 4.312 4.4 4.4 0 0 1 -1.16.155 4.519 4.519 0 0 1 -.829-.08 4.414 4.414 0 0 0 4.107 3.057 8.823 8.823 0 0 1 -5.464 1.885 8.682 8.682 0 0 1 -1.051-.063 12.439 12.439 0 0 0 6.747 1.976 12.431 12.431 0 0 0 12.515-12.519c0-.192 0-.381-.013-.569a8.854 8.854 0 0 0 2.194-2.274z" fill="#fff" transform="translate(.006 -4)"/></svg>