<svg id="demaria-everett" xmlns="http://www.w3.org/2000/svg" viewBox="0 0 216 72"><title>cressman-winthrop</title><path d="M112.87,38.65l-4.38,1.54a6.18,6.18,0,0,1-.72.26c-.54.15-1.14.24-1.47-.32s.1-.93.49-1.3a8,8,0,0,0,.76-.88l-.13-.18-3.84,1.58a21,21,0,0,1-2.82,1.09,1.65,1.65,0,0,1-1.29-.54,1.18,1.18,0,0,1-.07-1.16,1.8,1.8,0,0,1,1.37-.42c.76.2.08.56-.18,1.09,1.13-.41,2.08-.73,3-1.1,1.54-.62,3.08-1.26,4.61-1.9,1.36-.57,2.71-1.17,4.12-1.77.7.55.75,1.12,0,1.43A7.49,7.49,0,0,0,109,38.26c-.21.26-.56.4-.8.68a11,11,0,0,0,3.41-.9,44.81,44.81,0,0,1,4.87-1.74c.26-.09.66.27,1,.43a2.94,2.94,0,0,1-.58.79,7.4,7.4,0,0,1-1.24.58l.06.27,1.14-.24c1.11-.3,2.24-.92,3.32-.84,2.32.17,4.31-1,6.52-1.18a20.18,20.18,0,0,1,4.76-.24c3.61.61,7.22.18,10.82.39,1.89.11,3.78.35,5.68.51,1.66.13,3.33.21,5,.34,3.8.29,7.59.6,11.39.9,1.52.12,3,.23,4.55.38s3.3.36,5,.54,3.17.35,4.76.49l8.34.66c1.44.12,2.87.3,4.31.41,2.19.17,4.4.2,6.58.46,2.68.33,5.35.82,8,1.26.79.12,1.57.29,2.34.47a2.35,2.35,0,0,1,.62.38l-.1.19-2.07-.2-5.94-.55c-2.38-.23-4.75-.51-7.13-.68s-4.77-.22-7.15-.37c-2.13-.13-4.25-.33-6.38-.51l-8.66-.77c-.94-.08-1.87-.2-2.81-.27-2.89-.22-5.78-.39-8.66-.63-3.43-.28-6.86-.63-10.29-.9-2.12-.18-4.25-.25-6.37-.4-1.55-.11-3.1-.31-4.65-.4-1.82-.09-3.65-.11-5.47-.15-.21,0-.41.16-.62.2a4.77,4.77,0,0,1-2.41-.21,6.82,6.82,0,0,0-3.27-.12c-2.13.42-4.2,1.09-6.3,1.65-.24.06-.63.13-.72,0-.58-.69-1.2-.3-1.79-.13-1.12.31-2.22.7-3.34,1S113.1,39.93,112.87,38.65Z"/><path d="M70.41,42c-2.41-.19-4.9-.3-7.36-.61a2.21,2.21,0,0,1-2.23-1.89.71.71,0,0,0,0-.21c-.14-.36-.5-.83-.39-1a4.47,4.47,0,0,1,1.14-1.11c.15-.12.52-.19.58-.12.5.62,1,.13,1.45,0,1.73-.43,3-1.62,4.33-2.67a19.44,19.44,0,0,1,1.83-1.16,33.3,33.3,0,0,0,6.57-4.93,1.76,1.76,0,0,0,.46-.6c.58-1.7,2.11-2.52,3.32-3.61.36-.33.85-.57,1.24-.07s0,.81-.31,1.12c-.94.94-1.92,1.85-2.83,2.83-1.34,1.46-1,2.16.38,2.89A11.18,11.18,0,0,0,82,32c1.7.32,3.4.71,5.07,1.18,1.06.29,1.67,1.18,1.36,1.9a3.62,3.62,0,0,1-1.21,1.75c-1.67,1-3.17,2.28-5.13,2.78s-3.57,1.17-5.39,1.6a40.64,40.64,0,0,1-4.41.6C71.71,41.91,71.09,42,70.41,42ZM61.75,39.2l0,.28a3.45,3.45,0,0,0,1,.6,39.84,39.84,0,0,0,4.73.55c1.91,0,3.82-.22,5.74-.25A24.7,24.7,0,0,0,80.63,39c.68-.23,1.32-.57,2-.86s1.13-.45,1.67-.73a6.71,6.71,0,0,0,1.46-.93C86.24,36,87,35.44,87,34.91c0-.76-1-.9-1.71-1-1.06-.24-2.14-.39-3.2-.61-2.33-.49-4.71-.91-6.09-3.14C71.45,33.55,67,36.93,61.75,39.2Z"/><path d="M37,38.77c.56-.11,1.17-.42,1.66-.28s.66.76,1.1,1.32c.62-.22,1.44-.58,2.29-.83,1-.3,2.09-.53,3.15-.75s1.92-.33,2.88-.47,1.25.17,1,1.52A13.11,13.11,0,0,0,51,37.76c.91-1.06,1.67-2.23,2.52-3.35.14-.19.38-.43.57-.43A2,2,0,0,0,55.61,33c1.25-1.55,2.47-3.12,3.72-4.67a9.5,9.5,0,0,1,1.34-1.42c.23-.18.64-.13,1-.18,0,.33.12.74,0,1-.45.65-1,1.24-1.51,1.85-1.4,1.66-2.8,3.31-4.19,5a1.33,1.33,0,0,0-.34.68,1.47,1.47,0,0,0,.18,1c.13.17.56.19.85.15A15.06,15.06,0,0,0,58.08,36c-.19.94-.94,1.39-2.28,1.51s-1.55-.81-1.88-1.88c-.61.8-1.17,1.46-1.64,2.18-1,1.53-2.59,2.27-4.05,3.2A.83.83,0,0,1,47,40.3a9.14,9.14,0,0,1,0-1.09,26.72,26.72,0,0,0-3.08.52c-1.4.39-2.75.92-4.11,1.41s-1.73.18-2-1.1c-1.08.23-2.16.48-3.25.69-.93.18-1.31-.28-1-1.31-.71.33-1.37.59-2,.92-1.27.68-2.52,1.4-3.79,2.1-.19.1-.4.28-.58.26a5.69,5.69,0,0,1-1-.35c.21-.3.36-.72.65-.87.86-.43,1.8-.72,2.67-1.13,1.9-.9,3.78-1.84,5.67-2.76a1.64,1.64,0,0,1,.51-.18,2.76,2.76,0,0,1,1.32.05C37.1,37.56,37,38.22,37,38.77Z"/><path d="M19.76,38.87a2.55,2.55,0,0,0,3.16.57c.61-.26,1.24-.45,1.86-.67l.2.3c-.16.2-.27.5-.48.58-1,.4-2,.81-3,1.11a2.14,2.14,0,0,1-2-.5c-.76-.65-.74-.59-1.26.25-.23.37-.72.57-1,.9a48.15,48.15,0,0,1-6.87,5.8,8.16,8.16,0,0,1-1.92,1,2.88,2.88,0,0,1-1.13,0,2.85,2.85,0,0,1,.07-1.14,9.08,9.08,0,0,1,1.24-1.77c1.21-1.35,2.48-2.64,3.73-4l5-5.27a11.84,11.84,0,0,0,.9-1.09,8.48,8.48,0,0,1,2.36-2.49,7,7,0,0,0,1.38-1.63c1.5.17,2.08,1,1.39,2.52a10.61,10.61,0,0,1-2.16,3.5A12.82,12.82,0,0,0,19.76,38.87Zm-2.18-1.65a19.8,19.8,0,0,1-1.41,1.91c-1.81,1.93-3.65,3.82-5.48,5.73-.36.37-.73.74-1.09,1.12l.21.24c1.18-.81,2.43-1.55,3.53-2.46,1.44-1.19,2.76-2.53,4.15-3.79C18.42,39.12,18.47,38.7,17.58,37.22Zm1.65.53c1.15-1.61,2.73-3,3-5A7.12,7.12,0,0,0,19.23,37.75Z"/><path d="M103.53,31.68A28.4,28.4,0,0,0,100.16,33a61.06,61.06,0,0,0-5.35,3.31,9.09,9.09,0,0,0-1.8,2,1.08,1.08,0,0,0-.12.88c0,.12.51.17.77.14a21,21,0,0,1,2.64-.21,5,5,0,0,1-3.14,1.2c-1.18,0-1.75-.66-1.54-1.81a5.38,5.38,0,0,1,2-2.77,20.25,20.25,0,0,1,6.9-4.18c1.73-.65,3.41-1.42,5.17-1.94a27.76,27.76,0,0,1,4.37-.78c.39-.05.83.26,1.25.41-.21.43-.31,1-.66,1.27a24.86,24.86,0,0,1-3.54,2.11,23,23,0,0,1-3.29,1.08.82.82,0,0,1-1.11-.59c-.06-.21.27-.55.46-.81a3,3,0,0,1,.47-.38Zm6-1.44-.15-.31-.84.14c-.28.05-.56.13-.85.18-.49.09-1.12,0-1.44.3s-.15.88-.2,1.34c0,0,0,.05.15.17Z"/></svg>