<svg viewBox="0 0 100 100" xmlns="http://www.w3.org/2000/svg"><path d="m30 31.64v-12.64h15.4l.55 11.7 7.43 5.39v15.19h-23.38z" fill="#e7c55b"/><path d="m42.61 34.83c-1.16-1.78-2.49-2.3-3.7-2.23a4.13 4.13 0 0 0 -3.71 2.23c-2.93 4.49 3.71 12.29 3.71 12.29s6.63-7.8 3.7-12.29zm-3.7 3.58a2 2 0 1 1 2-1.95 2 2 0 0 1 -2 1.95z" fill="#d49162"/><path d="m73.52 51.28h-17.75l.3-15.88-8.26-5.4v-11h26.19z" fill="#e7c55b"/><path d="m50.8 78h-20.8v-24.49h24.49v13.49z" fill="#e7c55b"/><path d="m73.41 78h-20.48l4.25-12.4-.59-12.09h16.82z" fill="#98c3d1"/></svg>