<svg xmlns="http://www.w3.org/2000/svg" viewBox="0 0 131.135 280.8">
  <defs>
    <style>
      .cls-1 {
        fill: #002d40;
      }
    </style>
  </defs>
  <g id="Group_10" data-name="Group 10" transform="translate(1.8 -0.1)">
    <path id="Path_834" data-name="Path 834" class="cls-1" d="M127.5,93.7c1.6-.4,1.7.5,1.7,1.6-.1,2.6,0,2.6-2.7,2.6-1,0-2,.1-3,0-1.1-.1-1.3.4-1.3,1.4v28.2c0,.7.3,1,1,1h4.4a5.638,5.638,0,0,1,1.2.4c-.3.2-.7.5-1.2.8v19c1.7-.5,1.7.6,1.6,1.7-.1,2.5,0,2.5-2.5,2.5-1.1,0-2.2.1-3.2,0s-1.2.3-1.2,1.2v29H128c.3,0,.7.3,1,.4,0,.1-.1.3-.1.4-.4.1-.8.1-1.2.2v19.1c1.7-.2,1.7.9,1.6,2.1-.1,2.3,0,2.3-2.3,2.3h-4.8c0,.6-.1,1.1-.1,1.7v43.8a3.352,3.352,0,0,1,0,1,4.053,4.053,0,0,1-.5.9c-.1-.3-.4-.5-.4-.8-.1-.7,0-1.4-.1-2.2a.877.877,0,0,0-.6-.7h-9.8v6.6c0,2.2,0,2.2,2.1,2.4.7.1.8.4.8,1v10.4c0,2.5-.1,5,0,7.6,0,1.1-.3,1.5-1.5,1.5-30.1,0-60.1.1-90.2.1H1.5c-1.1,0-1.5-.2-1.4-1.4.1-6.3,0-12.6,0-19.2a30.283,30.283,0,0,1,3.1-.2V207.9c-.8-1-2.8,1-2.9-1.3-.1-.9-.3-2,.2-2.7.3-.5,1.5-.6,2.4-.9V153a1.268,1.268,0,0,0-.6-.1c-1.9-.2-1.9-.2-1.9-2.1v-.2c0-2.2-.3-2,1.9-2a1.486,1.486,0,0,0,.6-.1V97.9c-.3,0-.7-.1-1-.1-1.5,0-1.5,0-1.5-1.6V93.6c1,0,1.7-.1,2.6-.1V41.6l-.1-.1c-.8-.1-2,.1-2.2-.3a8.315,8.315,0,0,1-.3-2.8c0-.4.1-.8.1-1.3.9,0,1.6-.1,2.6-.1V35.7c-.2-3.2-.3-6.5-.5-9.7,0-.6-.2-1-.9-.9A6.151,6.151,0,0,1,.4,25V21.4c0-.2.5-.6.8-.6,5.2,0,10.3-.1,15.5,0,3.9.1,3.8.2,3.8-3.6,0-1.4,0-2.9.1-4.3,0-.9-.3-1.2-1.2-1.2-2.4.2-4.5.3-6.6.3a3.429,3.429,0,0,1-1.6-.4c2.9-.9,5.9-.2,9-.5a14.719,14.719,0,0,0,0-2.1,1.174,1.174,0,0,0-1-.6h-8c-.1-.1-.1-.3-.2-.4a2.355,2.355,0,0,1,1-.5c2.3,0,4.6,0,6.8.1,1,0,1.4-.3,1.4-1.3,0-.9,0-1.6-1.3-1.5a22.854,22.854,0,0,1-3.7,0c-1.1-.1-2.3-.5-3.4,0-.2.1-.5-.3-.8-.5.1-.1.1-.3.2-.4h7.3c1.7,0,1.7,0,1.8-1.7V.2a.6.6,0,0,0,.4-.1,5.16,5.16,0,0,1,.2,1.1c0,2.6,0,2.6,2.7,2.6h5.5a3.75,3.75,0,0,1,1.1.1c0,.1.1.3.1.4a5.638,5.638,0,0,1-1.2.4H20.8V7.5h8.8c.2,0,.4.2.6.4-.2.1-.4.4-.6.4H20.9V11c3.1.3,6.2-.3,9.2.3v.5H20.9c0,.9.1,1.7.1,2.4v5.6c0,.7.2,1.1,1,1.1,12.1,0,24.2-.1,36.4-.1a3.445,3.445,0,0,0,.9-.1V14.8a.758.758,0,0,0-.2-.4c-.3-.2-.9-.4-.9-.7a13.1,13.1,0,0,1,0-2.8c0-.2.4-.4.6-.4H70.5c.6,2.3.4,3.5-.8,3.9v6.2H80.5V14.7c0-.2-.3-.3-.4-.5-.2-.3-.6-.6-.6-.9-.2-2.8-.2-2.8,2.6-2.8H98.2c.7,0,1,.2.9.9v2a1.445,1.445,0,0,1-.2.7c-1.4.3-.9,1.4-.9,2.2-.1,1.5,0,2.9,0,4.5h14.8c.9,0,1.1.3,1.1,1.1v1.2c0,1.9,0,1.9-2.1,2.1-.3,3.9-.5,7.8-.8,11.7,1,.2,2.4.1,2.6.5a6.054,6.054,0,0,1,.2,3c-.1,2-1.9.3-2.7,1.1,0,.5-.1.9-.1,1.4v29c0,1.1.3,1.4,1.4,1.4,5.3-.1,10.6,0,15.8,0,.3,0,.6.3.9.5-.3.1-.5.3-.8.4a.756.756,0,0,0-.4.1C127.5,80.8,127.5,87.1,127.5,93.7ZM88.1,207.3l.5-.5a8.752,8.752,0,0,1,1.6-.2h36.2c.5,0,1.1-.1,1.6-.1.4-2.3.4-2.3-1.8-2.3H2c-.9,0-1.1.4-1.1,1.1a6.882,6.882,0,0,0,.2,1.3c.3,0,.6.1.9.1H40.3a5.349,5.349,0,0,1,1.6.4l.3.3a4.961,4.961,0,0,1-1.3.3H5.3c-.5,0-.9.1-1.5.1v51.1c0,1.3.5,1.6,1.7,1.2a5.9,5.9,0,0,1,1.4-.2H26.8c1.2,0,2.5.3,3.7.4a2.768,2.768,0,0,0,.9-.1,15.169,15.169,0,0,1,2.1-.3H71.6c1.1,0,1.5-.3,1.4-1.4V240.3c0-.6.2-1.2.2-1.7.1.1.2.1.2.2a15.666,15.666,0,0,1,.5,3c0,5.6-.2,11.2-.2,16.8,0,1.7.2,1.7,1.8,1.3a2.485,2.485,0,0,1,.8-.1c1.2.2,1.6-.4,1.5-1.6V239.5c0-7.1-.1-14.2-.1-21.2,0-1.8.9-2.7,2.8-2.7h19.7c2.1,0,2.2.1,2.2,2.1v40.6c0,1.2.4,1.6,1.5,1.5h.6c1.6,0,1.6,0,1.7-1.7v-43a9.7,9.7,0,0,1,.1-1.7c.3-1.5.2-1.6-1.3-1.6H84.6a5.274,5.274,0,0,1-1.2-.3c.2-.1.3-.3.5-.4a6.752,6.752,0,0,1,1.4-.2h21c0-.7.1-1.2.1-1.8,0-1.5,0-1.5-1.5-1.5H89C89,207.7,88.6,207.5,88.1,207.3ZM38.7,28.8l-3,.6v8.1c.8-.4,1.6-.5,2-1,.8-.8,1.2-2,2.1-2.7.8-.5,1.7-1.5,2.9-.9l.5.5c-.9.4-1.8.8-2.7,1.3a3.8,3.8,0,0,0-1.8,2.4h2.6c1.9,0,3.9.1,5.8.2.2.2.4.5.6.7a5.274,5.274,0,0,1-1.2.3c-14,0-28,0-42-.1H.9v2.4c.4,0,.7.1,1,.1H49.2c.5,0,.9.2,1.4.2l.5.5a7.719,7.719,0,0,1-1.5.2H3.8V93.7H109.7V41.6H79.6c-.4,0-.9-.2-1.3-.2l.4-.4a12.233,12.233,0,0,1,1.7-.3h29.4a13.334,13.334,0,0,0,2,0,1.765,1.765,0,0,0,.9-.8c.3-1.5.1-1.6-1.5-1.6-9.4,0-18.9,0-28.3.1-.4,0-.9-.2-1.3-.2a4.62,4.62,0,0,0,.7-.7c.2-.3.5-.6.5-.9V30c0-1.7,0-1.7,1.7-1.7h17c1.6,0,1.7,0,1.7,1.7v6.4c0,.6.2,1,.9.9h4.7c.7,0,1-.3,1-1,0-1.8.1-3.5.2-5.3a17.518,17.518,0,0,1,.4-4c.4-1.4.4-1.5-1-1.5H3.2q.3,5.85.6,11.4c0,.2.6.6.9.6,1.5,0,3-.1,4.5-.1.9,0,1.2-.3,1.2-1.2V30c0-1.1.3-1.6,1.5-1.6,5.8,0,11.5.1,17.3,0,1.3,0,1.6.5,1.6,1.6v5.2c0,2.3,0,2.3,2.3,2.3,1.1,0,1.5-.4,1.4-1.5q-.15-3,0-6c0-.5.5-1.4.9-1.4a14.645,14.645,0,0,1,2.9.2C38.4,28.5,38.5,28.6,38.7,28.8ZM76.4,152.2a7.58,7.58,0,0,1,1.6-.3h50.1c.5-2.4.5-2.4-1.7-2.4H75.3c-.5,0-1.1-.2-1.6-.2l-.5-.5a9,9,0,0,1,1.6-.3h33.5c.5,0,1-.1,1.6-.1V130.8c0-7.1.1-14.2.2-21.3,0-3.5,0-7.1.1-10.6,0-.8-.3-1-1.1-1-3.9.1-7.8.1-11.7.1H5.1a3.751,3.751,0,0,0-1,.1v50.6c1,0,2-.1,2.9-.1H55.8a6.106,6.106,0,0,1,1.3.3l-.5.5a15.17,15.17,0,0,1-2.1.3H2.8c-1.6,0-1.6,0-1.6,1.6,0,.3.1.5.1.8H52.4a5.02,5.02,0,0,1,1.2.2l-.5.5a10.793,10.793,0,0,1-1.9.3H5.4a7.568,7.568,0,0,0-1.5.1v50.2H108c1.8,0,1.8,0,1.8-1.7V153.1H78.7a8.584,8.584,0,0,1-1.7-.3ZM1,272.4c1.4-.1,2.6-.3,3.8-.3H16.3A24.367,24.367,0,0,1,19,272c2.8.2,5.7,1,8.5-.2h.2c1.3.1,2.5.3,3.8.3H73.2V260.9H1C1,264.9,1,268.6,1,272.4ZM79.7,217c0,.4-.1.7-.1,1v40.9c0,.8.2,1.1,1.1,1.1h19.7c.9,0,1.3-.2,1.3-1.2V218.1c0-1-.3-1.2-1.3-1.2H80.7A3.083,3.083,0,0,0,79.7,217ZM1,279.9a24.4,24.4,0,0,1,2.6-.1H72c1,0,1.3-.4,1.3-1.3,0-1.1-.1-2.2,0-3.2.1-1.1-.4-1.4-1.4-1.4H28.8c-.6,0-1.3.1-2,.1-.1-.9-.7-.7-1.4-.5a12.859,12.859,0,0,1-1.9.4c-.9.1-1.8.1-2.7.2,0,.6-.1,1.2-.1,1.8-.1-2.1-1.4-2.9-3.5-2.4a13.522,13.522,0,0,1-2.9.5c-3.4.1-6.9,0-10.3,0a5.84,5.84,0,0,1-1.8-.4c-.7-.2-1.1-.1-1.1.7C1,276,1,277.9,1,279.9ZM128.2,94.6H1.2v2.3h127ZM1,24.2H101c3.5,0,7-.1,10.4,0,1.2,0,1.3-.5,1.4-1.5,0-1.1-.7-1-1.3-1H1C1,22.6,1,23.3,1,24.2Zm96.2-3.4c-.3-.5-.6-.8-.6-1.1.1-1.5.2-2.9.4-4.4.1-.7-.3-.9-.9-.9H82c-.6,0-.8.3-.8.9v4.8c0,.6.3.8.9.8,3.3-.1,6.6-.1,9.9-.1ZM102.1,37V30.4c0-1-.3-1.3-1.3-1.3H85.3a6.151,6.151,0,0,0-1.3.1v8c.8-.4,1.7.4,2-.8.6-2.3,2.6-3.2,4.6-3.8a8.381,8.381,0,0,1,7.2,1.1,5.1,5.1,0,0,1,1.9,2.2C100.2,37,100.8,37.3,102.1,37ZM11.5,29.2v7c0,.3.4.9.6.9a2.246,2.246,0,0,0,1.4-.6,10.814,10.814,0,0,0,1.1-1.8,6.427,6.427,0,0,1,4-2.2,9.249,9.249,0,0,1,6.3,1,4.936,4.936,0,0,1,2.6,3.2c.1.2.8.4,1.3.4.2,0,.6-.3.6-.5V29.2Zm98,230.5V207.8h-1.6v50.7C107.9,259.9,108,260,109.5,259.7Zm-19.7,16h0c-2.5.1-5,.1-7.4.1-2.7,0-2.6,0-2.6,2.7,0,1.1.4,1.3,1.4,1.3,6.2,0,12.5.1,18.7.1,1,0,1.4-.4,1.2-1.4a4.819,4.819,0,0,1,0-1.2c.5-1.4.2-1.7-1.3-1.7C96.5,275.7,93.1,275.7,89.8,275.7Zm12.5-5.3h0v8.4c0,.6,0,1.1.9,1.1.9-.1,1.8,0,2.7-.1a.849.849,0,0,0,.7-.7c.1-2.9.2-5.8.2-8.7,0-2.1-.1-4.1,0-6.2.2-3.1.2-3.2-2.8-3.2h-.6c-.9-.1-1.2.3-1.2,1.2C102.3,264.9,102.3,267.7,102.3,270.4Zm-.6-9.3H79.5a24.178,24.178,0,0,1,.3,2.5c0,.8.4,1.2,1.3,1.2h19.1a1.268,1.268,0,0,0,.9-.4C101.3,263.3,101.4,262.3,101.7,261.1Zm-27.4,0v18.7a25.982,25.982,0,0,1,2.8,0c1.1.1,1.4-.3,1.4-1.3V261.1Zm5.3,9.8c.1.7.1,1.4.2,2,.1,1.6.1,1.6,1.7,1.6h14a23.2,23.2,0,0,1,3.8.5h.6c.6-.2,1.8-3.1,1.5-3.6a.842.842,0,0,0-.7-.4H81.6A12.122,12.122,0,0,0,79.6,270.9Zm28.1,4.2H111c1.8,0,1.9,0,1.8-1.8-.1-2.5-.3-5-.5-7.6a5.853,5.853,0,0,1,.2-1.3l.3-3a.7.7,0,0,0-.5-.4h-4.6C107.7,265.8,107.7,270.4,107.7,275.1Zm-28.1-9c.1.8.1,1.3.2,1.9.1,1.7.1,1.7,1.8,1.7,6.4.1,12.8.1,19.2.2.3,0,.7-.1.8-.3a3.352,3.352,0,0,0,0-1,3.81,3.81,0,0,1-.3-1c.4-1.5.5-1.5-1.1-1.5H79.6ZM68.2,20.7V14.5H60.1v6.2Zm48.1,53.8c-2.7-.3-2.7-.3-2.7,2.1V89.4c0,.8.4,1.2,1.1,1.2,1.4.1,1.7-.2,1.7-2.1,0-3.9-.1-7.8-.2-11.7A17.7,17.7,0,0,0,116.3,74.5Zm0,117.7v-6.7c0-1.4,0-1.4-1.7-1.5-1.1,0-1.1.7-1.1,1.4,0,1.2.1,2.3.1,3.5V199c0,1,.4,1.4,1.4,1.4s1.3-.4,1.3-1.4C116.3,196.8,116.3,194.5,116.3,192.2Zm0-62.9h-1.6c-.8,0-1.1.3-1,1.1v13.8c0,.9.4,1.2,1.2,1.2a6.6,6.6,0,0,0,1.4-.1Zm1-54.9V87c0,.5-.3,1.1-.3,1.6a2.458,2.458,0,0,0,.5,1.7,2.223,2.223,0,0,0,1.6.3c.3-.1.6-.9.6-1.4V75.6c0-.4-.1-.8-.1-1.2Zm6.8,117.8v7.1c0,.9.4,1.1,1.2,1.1s1.3,0,1.3-1V185.3c0-1.1-.6-1.1-1.4-1.1s-1.1.3-1.1,1.1Zm-3.4-.1v7c0,.8.1,1.3,1.1,1.3.9,0,1.4-.3,1.4-1.3V185.3c0-1-.4-1.2-1.3-1.2-1,0-1.2.4-1.2,1.3Zm-1.1-8.1c-.9.4-2.2-.7-2.2,1-.1,4.8,0,9.7,0,14.5a1.085,1.085,0,0,0,.8.8c1.3.2,1.5,0,1.5-1.4V185.4C119.7,185,119.6,184.6,119.6,184Zm3.6-93.9V76.2c0-1.9,0-1.9-1.9-1.8-.1,0-.3.1-.4.1,0,.1-.1.1-.1.2,0,5-.1,10.1-.1,15.1,0,.8.5.9,1.1.8A7.836,7.836,0,0,0,123.2,90.1Zm.9,39.3v14c0,2.1.1,2.1,2.2,1.8.1,0,.1-.1.3-.2V131.3C126.6,129.1,126.6,129.1,124.1,129.4Zm2.5-39.3V76.3c0-2.1,0-2.1-2.2-1.9-.1,0-.1.1-.3.2,0,.3-.1.7-.1,1.1V89.3c0,1.3.4,1.6,1.6,1.2A6.892,6.892,0,0,0,126.6,90.1Zm-5.9,55.1c2.1.5,2.4.3,2.4-1.7V130.6c0-1-.3-1.3-1.2-1.2-.4,0-.8.1-1.2.1C120.7,134.7,120.7,140,120.7,145.2Zm-1.1.1V129.5h-2.2v15.8ZM80.2,13.4H97.7c.3-1.9.2-2-1.6-2H82C80.1,11.4,80,11.4,80.2,13.4Zm30.5,178.5h0c0,2.4.1,4.8,0,7.2,0,.8.2,1.2,1.1,1.3,1,0,1.1-.5,1.1-1.3V184.7c0-1.1-.9-.7-1.4-.7-.3,0-.7.5-.8.8C110.7,187.2,110.7,189.6,110.7,191.9Zm2.2-111h0V75.5c0-.8-.2-1.2-1.1-1.2-1,0-1.1.4-1.1,1.2,0,4.6.1,9.2,0,13.9,0,1.1.6,1.1,1.3,1.2.9.1.9-.5.9-1.2C112.9,86.5,112.9,83.7,112.9,80.9Zm0,48.6c-2.1-.3-2.1-.3-2.1,1.7v12.5c0,1.9.2,2,2.1,1.6Zm-2.2-36a1.952,1.952,0,0,0,.7.1h13.9c.8,0,1.3-.1,1.3-1.2s-.5-1.1-1.3-1.1H112c-.4,0-.8.1-1.2.1C110.8,92.2,110.7,92.8,110.7,93.5Zm.1,55.1h14.5c.8,0,1.2-.2,1.2-1.1,0-1-.3-1.2-1.2-1.2H111.9c-1,0-1.3.4-1.2,1.3A2.787,2.787,0,0,1,110.8,148.6Zm-.1,52.4c.3.9-.8,2.2.8,2.2,4.7.1,9.4,0,14.1,0,.8,0,.9-.4.9-1.1,0-.6.1-1.2-.8-1.2C120.8,201,115.9,201,110.7,201Zm10.6-72.6a11.978,11.978,0,0,1,0-1.9c.1-1-.3-1.4-1.3-1.3-2.4.1-4.8,0-7.2,0-2.1,0-2.1,0-2.1,2.1,0,.2-.1.4,0,.5.2.2.4.6.6.6ZM26.3,37c-.3-2.2-2.8-3.6-6-3.5-2.9,0-5.3,1.5-5.4,3.5Zm60.9,0H98.8c-.3-2.1-2.6-3.5-5.7-3.5C90.1,33.4,87.6,34.8,87.2,37Zm23.6,146.2a19.669,19.669,0,0,0,2.4.3c.8,0,1.6-.3,2.4-.3h5.5v-3.1c-2.7,0-5.3-.1-7.9,0C110.5,180.3,110.4,179.6,110.8,183.2Zm10.4-71.6h-9.1c-1.1,0-1.4.3-1.4,1.3s.3,1.5,1.4,1.4c2.4-.1,4.7,0,7.1,0,2.3,0,2.3,0,2.2-2.3C121.3,112,121.3,111.9,121.2,111.6ZM110.8,213c.3,0,.7.1,1,.1h8c.9,0,1.3-.2,1.2-1.2,0-.9,0-1.6-1.3-1.6-2.4.1-4.7,0-7.1,0-2.2,0-2.3,0-2.1,2.3A1.38,1.38,0,0,1,110.8,213Zm10.1,23.7c.4-2.5.3-2.6-2-2.6h-6.2c-2.1,0-2.1,0-2,2,0,.2.1.4.1.6Zm-5.1,3.5h4.3c.3,0,.8-.1.8-.3a4.5,4.5,0,0,0,0-2c-.1-.3-.8-.5-1.2-.5-2.7,0-5.4.2-8.1.2-.9,0-.9,0-1,1.2,0,.7-.1,1.4,1,1.3C113,240.1,114.4,240.2,115.8,240.2Zm5.5-139.6V97.8h-9.7c-.3,0-.8.1-.9.4a1.567,1.567,0,0,0,1.5,2.4h9.1Zm0,52.3c-3.4,0-6.6-.1-9.9,0-1.2,0-.5,1.1-.6,1.7s.1.9.8.9h9.7Zm-.1,13.7h-9.4c-1.1,0-1.1.5-1.1,1.3,0,.9.2,1.3,1.2,1.2,2.4-.1,4.9,0,7.3,0C121.5,169.1,121.5,169.2,121.2,166.6Zm.1-51.4H110.9c0,.3-.1.6-.1.9,0,1.7,0,1.7,1.7,1.7h6.6C121.4,117.8,121.4,117.8,121.3,115.2Zm-10.5-10.9c3.5-.2,6.9-.3,10.4-.5v-2.4c-2.7,0-5.4-.1-8.1,0C110.5,101.6,110.5,101.7,110.8,104.3Zm10.4.5h-8.8c-1.9,0-1.9.1-1.8,2,0,.9.4,1.1,1.2.9a14.279,14.279,0,0,1,2.9-.3c2.1-.1,4.3,0,6.5,0C121.2,106.4,121.2,105.7,121.2,104.8Zm.2,68.7h-9.8a1.268,1.268,0,0,0-.9.4c-.6,1.2,0,2.1,1.3,2.1h9.1A12.073,12.073,0,0,0,121.4,173.5Zm-10.6-7.9h10.5v-2.3H110.8Zm10.5-57.3h-8.6c-2.1,0-2.1,0-1.9,2.1,0,.1.1.1.2.3h10.3Zm0,68.6H110.9c-.5,2.2-.3,2.5,1.7,2.5h8.6A22.631,22.631,0,0,0,121.3,176.9Zm0-20.4h-9.8c-1.1,0-.6.9-.7,1.5s0,1,.8,1h9.7Zm-.2-34.6H110.9c-.6,2.1-.4,2.4,1.6,2.4h6.8c2.1,0,2.1,0,1.8-2.2C121.2,122.1,121.2,122.1,121.1,121.9Zm.1,50.6a2.22,2.22,0,0,1,.1-.9c.2-1.1-.2-1.6-1.4-1.6-2.3.1-4.7,0-7,0h-2v2.5Zm.1-53.9H110.9c-.4,2.3-.4,2.3,1.7,2.3h8.6A19.3,19.3,0,0,0,121.3,118.6Zm-.1,43.7v-2.4h-9.8c-1,0-.7.8-.7,1.3s-.1,1.1.7,1.1Zm-10.5,71H121V231H110.7Zm10.2-15.9H110.6v2.3h10.3Zm-10.2,26.2h8.5c2,0,2,0,1.9-2,0-.1-.1-.2-.1-.3H110.8A16.222,16.222,0,0,0,110.7,243.6Zm10.2-19.4H110.7v2.4h8.4c2.1,0,2.1,0,1.9-2.1C121,224.4,121,224.4,120.9,224.2Zm-10.3,23.7a9.577,9.577,0,0,0,0,1.7c.1.3.4.7.7.7h9c.9,0,.7-.7.7-1.2s.3-1.2-.7-1.2Zm.1-24.7h9.7c1.1,0,.5-1,.6-1.5s-.1-.9-.8-.9h-9.6A18.482,18.482,0,0,1,110.7,223.2Zm0,23.8h8.5c2,0,2,0,1.8-2,0-.1-.1-.2-.1-.4H110.7C110.7,245.4,110.7,246.1,110.7,247Zm0-17.1h10.2c.3-2.4.3-2.4-1.9-2.4h-8.3Q110.7,228.7,110.7,229.9Zm0-15.9a2.22,2.22,0,0,1-.1.9c-.2,1.2.2,1.6,1.5,1.5,2.3-.1,4.6,0,6.9,0,2.2,0,2.2,0,1.9-2.2,0-.1-.1-.1-.2-.2ZM69.3,13.4c.7-1.6.4-2-1.3-2H60.4c-1.7,0-1.9.3-1.4,2Zm43.3,262.2h-4.3a1.143,1.143,0,0,0-.7.8c0,1.1.2,2.3.2,3.3,1.5.1,2.8.2,4.1.2a1.126,1.126,0,0,0,.8-.5c.1-.3-.2-.6-.3-.9-.1-.2-.2-.3-.1-.5C112.4,277.3,112.5,276.6,112.6,275.6Zm8.4-67.9H110.6c0,.6.1,1.2.1,1.8H121Z"/>
    <path id="Path_835" data-name="Path 835" class="cls-1" d="M81.7,37.9a7.719,7.719,0,0,1-1.5.2h-31a7.006,7.006,0,0,1-1.4-.3c-.2-.2-.4-.5-.6-.7,1.1-.1,2.2-.2,3.4-.3-1.2-2.7-3.4-3.3-5.9-3.5-.5,0-1-.1-1.5-.1l-.5-.5a1.905,1.905,0,0,1,1-.5,10.123,10.123,0,0,1,3,.2c2,.6,4,1.2,4.8,3.6.3,1,1.1,1.2,2.2.9V36a56.607,56.607,0,0,1,.1-5.8c.1-1-.2-1.2-1.1-1.2H40.8a15.171,15.171,0,0,1-2.1-.3l-.4-.4a4.508,4.508,0,0,1,1.1-.3H53.5c1.1,0,1.4.4,1.4,1.4v6.5c0,.8.3,1.1,1.1,1.1h2.9V30.1c0-2,0-2,2-2H77.7c1.5,0,1.6.1,1.6,1.7v6.1c0,.9.3,1.3,1.3,1.2a13.552,13.552,0,0,1,2,.2A1.583,1.583,0,0,0,81.7,37.9ZM69,29.1H61.1c-.9,0-1.3.2-1.3,1.2.1,1.8,0,3.7,0,5.5,0,.5-.3,1.2.6,1.3a1.391,1.391,0,0,0,1.7-.9,5.456,5.456,0,0,1,2-2.5,8.826,8.826,0,0,1,7.1-1.1c2.1.6,4,1.6,4.7,3.9.3.9.9.7,1.4.6a1.149,1.149,0,0,0,.6-.9c.1-2,0-4,0-6,0-.9-.3-1.1-1.2-1.1C74.2,29.2,71.6,29.1,69,29.1Zm5.7,7.8c-.2-2.1-3.3-3.8-6.4-3.5s-5,1.6-5,3.5Z"/>
    <path id="Path_836" data-name="Path 836" class="cls-1" d="M88.1,207.3a9,9,0,0,1-1.6.3h-11c-1.4,0-1.6.3-1.2,1.7.1.5.1.9.2,1.6.4,0,.8.1,1.3.1h7.3a5.02,5.02,0,0,1,1.2.2c-.2.1-.3.3-.5.4a7.972,7.972,0,0,1-1.5.3h-7c-.9,0-1.3.3-1.3,1.3.1,2.1.2,4.1.2,6.2a15.526,15.526,0,0,1-.4,2.1c-.1.1-.2.3-.4.4a7.006,7.006,0,0,1-.3-1.4c0-4,.1-7.9.1-11.9a3.751,3.751,0,0,0-.1-1c-.5,0-.8-.1-1.2-.1H44a11.27,11.27,0,0,1-1.8-.3l-.3-.3c.3-.1.7-.4,1-.4H87.6a2.92,2.92,0,0,1,.9.2A.918.918,0,0,1,88.1,207.3Z"/>
    <path id="Path_837" data-name="Path 837" class="cls-1" d="M50.7,40.8a4.253,4.253,0,0,1,1.1-.2H77.7a4.508,4.508,0,0,1,1.1.3l-.4.4a6.753,6.753,0,0,1-1.4.2H52.5a5.852,5.852,0,0,1-1.3-.2C51,41.1,50.9,40.9,50.7,40.8Z"/>
    <path id="Path_838" data-name="Path 838" class="cls-1" d="M53.5,152.2A7.719,7.719,0,0,1,55,152H74.8a9,9,0,0,1,1.6.3l.4.4a5.274,5.274,0,0,1-1.2.3H54.2a5.274,5.274,0,0,1-1.2-.3Z"/>
    <path id="Path_839" data-name="Path 839" class="cls-1" d="M73.5,149.3a3.553,3.553,0,0,1-1,.2h-15a4.508,4.508,0,0,1-1.1-.3l.5-.5a4.961,4.961,0,0,1,1.3-.3H71.8a7.894,7.894,0,0,1,1.3.3C73.2,149,73.4,149.1,73.5,149.3Z"/>
    <path id="Path_840" data-name="Path 840" class="cls-1" d="M73.6,221.9c.1-.1.2-.3.4-.4a5.274,5.274,0,0,1,.3,1.2c0,4.9-.1,9.9-.1,14.8a6.106,6.106,0,0,1-.3,1.3c-.1-.1-.2-.1-.2-.2a8.753,8.753,0,0,1-.2-1.6V223.5A2.856,2.856,0,0,1,73.6,221.9Z"/>
    <path id="Path_841" data-name="Path 841" class="cls-1" d="M99,81.9c2.2.3,2.1.3,2.1,2.4,0,1-.4,1.3-1.4,1.3H81.1c-.9,0-1.5-.2-1.5-1.3,0-2,0-2.2,1.4-2.3,1.1,0,.9-.7.9-1.3V54.3c-.7-.2-1.4-.3-2.4-.5,1.4-1.6,2.6-3,3.9-4.4a2.168,2.168,0,0,1,1.4-.5c3.9,0,7.8-.1,11.6,0a2.842,2.842,0,0,1,1.7.9,25.465,25.465,0,0,1,2.6,3,1.431,1.431,0,0,1,.3,1.1c0,.2-.6.4-.9.4-.8,0-1.2.2-1.1,1.1V81.1C98.9,81.2,99,81.5,99,81.9ZM83.2,68h0V80.7c0,1,.3,1.3,1.2,1.2h12c.9,0,1.3-.3,1.3-1.2V55.5c0-1-.3-1.3-1.3-1.3-4,0-7.9.1-11.9,0-1,0-1.3.3-1.3,1.3C83.2,59.7,83.2,63.9,83.2,68ZM99.1,52.9a8.794,8.794,0,0,0-.6-1c-1.1-1.4-2.1-2.5-4.3-2.3a45.708,45.708,0,0,1-7.4,0c-2.1-.2-3.1,1-4.2,2.3a8.744,8.744,0,0,0-.8,1Zm.8,31.5V83.2H81.2v1.2Z"/>
    <path id="Path_842" data-name="Path 842" class="cls-1" d="M31.7,81.8c.7.2,1.8.2,1.9.5a9.835,9.835,0,0,1,.1,3h-4c-.8,0-1.5.2-2.3.2H13.7c-1,0-1.3-.4-1.2-1.3V83c-.1-.8.3-1.2,1.1-1.1.9.1,1.1-.3,1.1-1.1V55.1c0-.8-.3-1.1-1.1-1.1a1.528,1.528,0,0,1-1-.4,2.1,2.1,0,0,1,.4-1.1,37.056,37.056,0,0,1,2.7-2.9,2.716,2.716,0,0,1,1.7-.8c3.4-.1,6.9.1,10.3-.1,2-.1,2.9,1,4,2.2.5.6,1,1.1,1.5,1.7a9.292,9.292,0,0,1,.5,1c-.3.1-.6.4-.9.4-1-.1-1.2.4-1.2,1.3V81.5C31.6,81.7,31.6,81.7,31.7,81.8ZM16,68.1h0V80.7c0,1,.3,1.4,1.3,1.3H29.2c1,0,1.2-.4,1.2-1.3v-25c0-1-.2-1.4-1.3-1.4H17.2c-1,0-1.2.4-1.2,1.3ZM31.7,52.9c-.5-.7-.9-1.2-1.3-1.7a3.453,3.453,0,0,0-2.9-1.6c-3.1.1-6.2,0-9.3,0-.3,0-.8,0-1,.2-.9.9-1.8,1.9-2.9,3.1ZM13.6,83.1v1.3h19V83.1Z"/>
    <path id="Path_843" data-name="Path 843" class="cls-1" d="M64.9,54.7a6.686,6.686,0,0,1,.5,1.9V82c.4,0,.8.1,1.1.1.7,0,.9.3.9,1,.1,2.6.2,2.6-2.5,2.6h-17c-.5,0-1.5-.3-1.5-.5a13.129,13.129,0,0,1,.1-2.8c0-.1.6-.2,1-.2.8,0,1.1-.3,1.1-1.1V72.6a9.005,9.005,0,0,1,.3-1.6c.2-.2.4-.5.6-.7a7.366,7.366,0,0,1,.4,1.4v9.2c0,.7,0,1.3,1.1,1.3H63.6l-.7-.7c.5,0,.8-.1,1.1-.1v-23a21.081,21.081,0,0,1,.5-3.5C64.5,54.7,64.7,54.7,64.9,54.7ZM47.4,84.4c.3,0,.6.1.9.1h17c.2,0,.4.1.5,0a1.575,1.575,0,0,0,.7-.7c0-.2-.4-.5-.6-.7-.2-.1-.5,0-.7,0H49a7.569,7.569,0,0,0-1.5.1A5.284,5.284,0,0,0,47.4,84.4Z"/>
    <path id="Path_844" data-name="Path 844" class="cls-1" d="M49.4,70.1c-.2.2-.4.5-.6.7a8.875,8.875,0,0,1-.3-1.4V55.6c0-1-.2-1.5-1.3-1.5-.3,0-.8-.2-.8-.5a1.008,1.008,0,0,1,.3-.9c1.2-1.4,2.5-2.7,3.5-3.9h7.7a7.894,7.894,0,0,1,1.3.3l.3.3a4.253,4.253,0,0,1-1.1.2c-2,0-4,.1-6,0a2.94,2.94,0,0,0-2.2.9c-.7.7-1.3,1.6-2,2.4H61.7a9.005,9.005,0,0,1,1.6.3,5.717,5.717,0,0,0,.7.8,11.019,11.019,0,0,1-1.8.2H51.3c-1.2,0-1.5.4-1.5,1.5V68.1C49.7,68.8,49.5,69.4,49.4,70.1Z"/>
    <path id="Path_845" data-name="Path 845" class="cls-1" d="M59.3,49.4l-.3-.3a5.2,5.2,0,0,1,5.5,1,27.462,27.462,0,0,0,2.2,2.6l-1.1,1.1-.8.8h-.5c-.1-.2-.3-.4-.4-.6a5.716,5.716,0,0,0-.7-.8c.7-.1,1.5-.3,2.2-.4l-.9-1.2c-1-1.4-2.2-2.4-4.2-2C60.1,49.7,59.7,49.5,59.3,49.4Z"/>
    <path id="Path_846" data-name="Path 846" class="cls-1" d="M65.7,53.9l1.1-1.1c.2.3.3.7.5,1A9.151,9.151,0,0,1,65.7,53.9Z"/>
    <path id="Path_847" data-name="Path 847" class="cls-1" d="M48.8,124.5a9.005,9.005,0,0,1-.3-1.6V110.1c0-1.1-.1-1.8-1.5-1.7-1,.1-.9-.7-.5-1.2,1.1-1.3,2.2-2.5,3.4-3.7a1.8,1.8,0,0,1,1.1-.3H62.5c1.5,0,1.8,1.4,2.8,2a4.013,4.013,0,0,1,1.3,1.6,2.947,2.947,0,0,1,.5,1.3,5.637,5.637,0,0,0-1.2.4,1.483,1.483,0,0,1-.7.1V135c0,.9.1,1.5,1.2,1.4a1.143,1.143,0,0,1,.7.8c.3,2-1.4,3.2-3.4,2.4-.2-.2-.5-.4-.7-.6a15.172,15.172,0,0,0,2.1-.3c.4-.1,1.1-.3,1.1-.6.1-.9-.6-.7-1.1-.7-1.3-.1-2.5-.2-3.8-.2a4.349,4.349,0,0,1-.6-.7,2.019,2.019,0,0,0-1.8-1.7l-.6-.6a19.418,19.418,0,0,1,2.4-.2c.7,0,1-.3,1-1v-5.7c0-.8-.4-1.1-1.2-1.1H51.9c-.2.6-.3.9-.4,1.3L51,127c-.2-.4-.5-.7-.7-1.1a10.261,10.261,0,0,0,.4-1.4V110H62.9a8.874,8.874,0,0,0-.2,1.5v22.2c0,1,0,1.6-1.2,1.5-.5,0-1.1.4-.5.7a3.535,3.535,0,0,0,2.3.2c.2,0,.5-.7.5-1V109.7c0-.9-.3-1.2-1.2-1.2-3.8,0-7.7.1-11.5,0-1.1,0-1.5.3-1.5,1.4.1,4.6.1,9.1.1,13.7a7.972,7.972,0,0,1-.3,1.5Zm3.1-6.4h0v6c0,.8.2,1.2,1.1,1.1h7.8c.8,0,1.1-.4,1.1-1.2V112.1c0-.8-.4-1.1-1.2-1.1H52.9c-.8,0-1,.3-1,1C51.9,114.1,51.9,116.1,51.9,118.1Zm-3.7-10.9H65.5a7.338,7.338,0,0,0-1-1.3c-.8-.6-1.1-1.8-2.4-1.7-3.5.1-7,0-10.5.1a2.33,2.33,0,0,0-1.5.7A10.038,10.038,0,0,0,48.2,107.2Z"/>
    <path id="Path_848" data-name="Path 848" class="cls-1" d="M79.7,107.9c1.3-1.5,2.4-2.9,3.7-4.2a2.456,2.456,0,0,1,1.5-.5c3.7,0,7.4,0,11-.1a2.529,2.529,0,0,1,2.2,1.1c.7.8,1.5,1.6,2.2,2.5a6.109,6.109,0,0,1,.7,1.4,6.468,6.468,0,0,0-1.3.4c-.2,0-.4.1-.7.1,0,.4-.1.9-.1,1.3v24.9c0,1,.1,1.7,1.4,1.6.3,0,.8.6.8.9.1,3.2.3,2.6-2.4,2.7h-17c-1.8,0-2.7-1.4-1.8-3a1.433,1.433,0,0,1,1.1-.5c.9,0,1.1-.4,1-1.2V110.4c0-1,.1-2.1-1.5-1.9C80.3,108.4,80,108.1,79.7,107.9Zm18,14.5h0V109.9c0-1-.3-1.4-1.4-1.4H84.5c-1,0-1.3.3-1.3,1.3,0,4.3-.1,8.6-.1,12.9,0,4.1.1,8.1.1,12.2,0,1,.3,1.3,1.3,1.3,3.9,0,7.8-.1,11.8,0,1.2,0,1.5-.4,1.5-1.5C97.6,130.6,97.7,126.5,97.7,122.4Zm1.4-15.2a3.49,3.49,0,0,0-.6-.9,3.993,3.993,0,0,0-3.8-2.1,57.48,57.48,0,0,1-8.3,0,4,4,0,0,0-3.7,1.8c-.3.4-.5.7-.9,1.2Zm.8,30.3H81.1a4.483,4.483,0,0,0,.1,1.2H100C100,138.3,99.9,137.9,99.9,137.5Z"/>
    <path id="Path_849" data-name="Path 849" class="cls-1" d="M31.7,108.5c0,.6-.1,1.2-.1,1.7v24.7c0,1,.2,1.5,1.3,1.4.6-.1.9.3.9.9-.1,3.1.3,2.6-2.5,2.6H14c-1.2,0-1.8-.3-1.6-1.5v-1c-.1-.8.2-1.2,1.1-1.1s1.1-.3,1.1-1.2V108.5a5.7,5.7,0,0,1-1.3-.1c-.3-.1-.7-.2-.8-.4a1.314,1.314,0,0,1,.3-1c1.1-1.2,2.2-2.3,3.4-3.4a1.9,1.9,0,0,1,1.3-.5c3.6,0,7.1.1,10.6-.1,1.9-.1,2.5,1.3,3.5,2.2.5.5,1,1.1,1.5,1.7a3.128,3.128,0,0,1,.5,1c-.3.1-.7.3-1,.4C32.4,108.5,32.1,108.5,31.7,108.5Zm-1.4.2a.756.756,0,0,0-.4-.1H17c-.9,0-1,.5-1,1.2V135c0,1,.3,1.4,1.3,1.3,3.9,0,7.8-.1,11.6,0,1.2,0,1.5-.5,1.5-1.6V112.9C30.3,111.5,30.3,110.1,30.3,108.7Zm-16-1.4H31.8a13.087,13.087,0,0,1-1.3-1.6,3.2,3.2,0,0,0-3.1-1.5c-3,.2-6.1-.1-9.1,0a.749.749,0,0,1-.5-.1c-.6-.5-1-.1-1.4.4A22.649,22.649,0,0,1,14.3,107.3ZM23,138.8h8.6c.4,0,1-.3,1-.6.2-.8-.5-.7-1-.7h-17c-.5,0-1.2-.1-1,.7a1.326,1.326,0,0,0,1,.6Z"/>
    <path id="Path_850" data-name="Path 850" class="cls-1" d="M60.9,136.6a4.349,4.349,0,0,1,.6.7,5.019,5.019,0,0,1-1.2.2H48.6c-.5,0-1.2-.2-1.2.7s.7.6,1.2.6H61.7c.5,0,1.1.2,1.6.2.2.2.5.4.7.6a4.508,4.508,0,0,1-1.1.3H47.6c-.9,0-1.4-.3-1.3-1.2v-1.1c-.1-.9.2-1.4,1.2-1.3.8.1,1.1-.3,1.1-1.2v-9.3a6.107,6.107,0,0,1,.3-1.3c.2.2.5.4.7.6.2.3.3.6.5.9,0,.2.1.4.1.6h0a3.178,3.178,0,0,0-.3.9v7.9c0,.9.6.9,1.2.9h7.8A16.208,16.208,0,0,1,60.9,136.6Z"/>
    <path id="Path_851" data-name="Path 851" class="cls-1" d="M98.9,163.5v25.9c0,1,0,1.9,1.4,1.8.2,0,.7.5.8.7a9.638,9.638,0,0,1,0,2.4,1.356,1.356,0,0,1-1.1.6c-2.1.1-4.2,0-6.3,0H81.5c-.9,0-1.6-.1-1.7-1.2-.2-1.8.1-2.4,1.3-2.6.7-.1.9-.4.9-1.1V164.5c0-.7-.2-1.1-1-1.1a3.582,3.582,0,0,1-1.1-.4,2.407,2.407,0,0,1,.6-.8c1.1-1.3,2.2-2.6,3.4-3.9a1.4,1.4,0,0,1,.9-.3c3.9,0,7.8-.1,11.6,0a2.565,2.565,0,0,1,1.6,1,25.464,25.464,0,0,1,2.6,3,4.234,4.234,0,0,1,.4,1.2c-.4.1-.8.3-1.2.4A1.974,1.974,0,0,0,98.9,163.5Zm-10.5.4h0c-.3-.2-.6-.5-.9-.5-1,0-2,.1-3,.1s-1.3.3-1.3,1.3v24.8c0,1,.3,1.4,1.4,1.4H96.1c1.6,0,1.6,0,1.6-1.6V166.5c0-.3-.1-.6-.1-1h-.3v22.2h-.2V168.5c0-1.6.2-3.3.3-5.2C94.5,163.5,91.4,163.7,88.4,163.9Zm-6.7-1.6H99.4a27.973,27.973,0,0,0-2.2-2.5,2.577,2.577,0,0,0-1.3-.8c-3.6-.1-7.1,0-10.7,0a2.45,2.45,0,0,0-1.2.4C83.3,160.3,82.6,161.2,81.7,162.3Zm18.7,30.8c-.1-.2-.1-.3-.2-.5h-19v1.1c.2,0,.3.1.4.1H99.1C99.6,193.8,100,193.3,100.4,193.1Z"/>
    <path id="Path_852" data-name="Path 852" class="cls-1" d="M65.5,163.5c0,.4-.1.9-.1,1.3v24.6c0,.9-.2,1.8,1.3,1.7.2,0,.5.4.7.7.1.1,0,.4,0,.6,0,2.8.1,2.4-2.4,2.4H47.7c-.8,0-1.5,0-1.5-1.1-.1-2.2,0-2.6,1.4-2.7.9-.1,1-.6,1-1.3V164.5c0-.8-.2-1.2-1-1.2a3.582,3.582,0,0,1-1.1-.4c.2-.4.2-.9.5-1.2,1.1-1.3,2.2-2.5,3.3-3.7a1.689,1.689,0,0,1,1-.3H62.7c.9,0,1.2.6,1.7,1.1a38.473,38.473,0,0,1,2.7,3c.8,1.1.6,1.4-.7,1.5A3.712,3.712,0,0,1,65.5,163.5ZM49.8,177.1h0v12.6c0,.9.2,1.3,1.2,1.3H62.8c.9,0,1.2-.3,1.2-1.2v-25c0-1.1-.4-1.4-1.4-1.4-3.8,0-7.6.1-11.4,0-1.1,0-1.4.4-1.4,1.4Q49.8,170.95,49.8,177.1Zm16-14.8a29.431,29.431,0,0,0-2.4-2.5,2.787,2.787,0,0,0-1.3-.7c-3.5-.1-7,0-10.6,0a1.8,1.8,0,0,0-1.1.3c-.8.9-1.5,1.9-2.4,2.9ZM47.4,193.7c.3,0,.6.1.9.1h17c.2,0,.4.1.6,0,.2-.2.5-.4.5-.6s-.3-.5-.5-.7a1.949,1.949,0,0,0-.8-.1H48.4a4.484,4.484,0,0,0-1.1.1A5.284,5.284,0,0,1,47.4,193.7Z"/>
    <path id="Path_853" data-name="Path 853" class="cls-1" d="M14.6,163.5a3.083,3.083,0,0,1-1-.1,4.875,4.875,0,0,1-1.1-.4,3.582,3.582,0,0,1,.4-1.1c1.1-1.3,2.2-2.6,3.4-3.8a1.4,1.4,0,0,1,.9-.3H29a1.086,1.086,0,0,1,.9.4c1.3,1.3,2.5,2.7,3.7,4.1.4.4.3.9-.4,1a6.149,6.149,0,0,1-1.4.1c0,.7-.1,1.3-.1,2v24.3c0,.8.1,1.4,1.1,1.3.3,0,.9.6,1,1,.3,2.7.2,2.8-2.4,2.8-5.5,0-10.9-.1-16.4-.1-2.3,0-2.3,0-2.3-2.4,0-.9.2-1.3,1.1-1.3s1-.5,1-1.2V164.6A3.6,3.6,0,0,1,14.6,163.5Zm15.6,27.6c.1-1.6.3-2.9.3-4.3a16.6,16.6,0,0,0-.3-2.2V164.9c0-1.1-.3-1.4-1.4-1.4-3.8.1-7.6,0-11.4,0-1.5,0-1.5,0-1.5,1.5v24.9c0,.5,0,1.1.8,1.1,2.7.1,5.4-.1,8.1.5A25.491,25.491,0,0,0,30.2,191.1Zm-16-28.8H31.9a21.141,21.141,0,0,1-2.1-2.4c-.5-.8-1.1-.8-1.9-.8a84.172,84.172,0,0,1-8.7-.1C16.5,158.7,15.8,160.6,14.2,162.3Zm18.4,30.2c-.4,0-.8-.1-1.1-.1H14.7c-.2,0-.5-.1-.6,0a5.008,5.008,0,0,0-.7.8c.3.2.5.6.8.6a12.749,12.749,0,0,0,2-.1H31.3c.4,0,.8-.1,1.2-.1A3.42,3.42,0,0,0,32.6,192.5Z"/>
    <path id="Path_854" data-name="Path 854" class="cls-1" d="M31.7,247.9c2.1.3,2.5.9,2,3a1.326,1.326,0,0,1-1,.6c-2.5.1-5,0-7.4,0H13.9c-1.1,0-1.5-.3-1.4-1.4v-1c-.1-.8.2-1.3,1.1-1.2.8.1,1.1-.3,1.1-1.1V221c0-.8-.3-1.1-1.1-1.1a3.809,3.809,0,0,1-1-.3,3.582,3.582,0,0,1,.4-1.1c1.1-1.3,2.1-2.5,3.3-3.7.2-.3.8-.3,1.2-.3H28.3a2.94,2.94,0,0,1,2.2.9c1,1.2,2.1,2.3,3.1,3.5.2.2.3.6.2.7a.61.61,0,0,1-.7.3c-1.4-.2-1.5.6-1.4,1.6v25.1A5.484,5.484,0,0,0,31.7,247.9Zm-1.4-27.7H17c-.9,0-1,.5-1,1.2v25.4c0,.9.3,1.3,1.2,1.2H28.7c1.6,0,1.6,0,1.6-1.6v-22Q30.3,222.45,30.3,220.2Zm1.6-1.2c-.8-.9-1.5-1.6-2.1-2.4a2.323,2.323,0,0,0-2.3-.9h-9a4.367,4.367,0,0,0-3.9,3.2C20.3,219,25.9,219,31.9,219Zm.6,31.5c.4-1.4-.3-1.4-1.2-1.4H13.6c-.3,1.1-.1,1.4,1,1.4H32.5Z"/>
    <path id="Path_855" data-name="Path 855" class="cls-1" d="M65,230.4a6.106,6.106,0,0,1,.3,1.3v15.1c0,.8,0,1.4,1.1,1.3.7-.1.9.3.9,1,.1,2.5.2,2.5-2.3,2.5H47.8c-.6,0-1.3.3-1.6-.6a2.217,2.217,0,0,1,.9-2.6,2.267,2.267,0,0,0,1.7-1.7,4.62,4.62,0,0,1,.7-.7,2.118,2.118,0,0,1,.3.7c-.2,1.2.5,1.4,1.5,1.4H62.6c1,0,1.4-.3,1.4-1.4-.1-4.5,0-8.9,0-13.4a12.859,12.859,0,0,1,.4-1.9A3.328,3.328,0,0,1,65,230.4Zm-17.6,20a.6.6,0,0,0,.4.1H65.6c.3,0,.6-.4.9-.7a6.07,6.07,0,0,0-1-.7H48.3C47.2,249.1,47.3,249.7,47.4,250.4Z"/>
    <path id="Path_856" data-name="Path 856" class="cls-1" d="M50.2,215.2c.2-.2.4-.6.6-.6H62.7a1.884,1.884,0,0,1,.8.2c1.1,1.2,2.2,2.3,3.2,3.6s.9,1.5-.7,1.7c-.2,0-.3.1-.6.2V229c0,.4-.3.7-.4,1-.2-.3-.4-.5-.6-.8a6.468,6.468,0,0,1-.4-1.3v-6.6c0-.6,0-1-.8-1-2.1,0-4.2,0-6.4-.1H55.1c-.2-.3-.5-.5-.7-.8a5.274,5.274,0,0,1,1.2-.3h9.1a3.751,3.751,0,0,0,1-.1,26.141,26.141,0,0,0-2.2-2.4,2.716,2.716,0,0,0-1.7-.8c-3.7-.1-7.4,0-11.1,0C50.5,215.6,50.4,215.4,50.2,215.2Z"/>
    <path id="Path_857" data-name="Path 857" class="cls-1" d="M54.3,219.3c.2.3.5.5.7.8H51.2c-1.1,0-1.5.4-1.5,1.5v20.9a9.005,9.005,0,0,0,.3,1.6h0c-.2.6-.4,1.2-.6,1.7a4.62,4.62,0,0,1-.7.7,7.006,7.006,0,0,1-.3-1.4V221.5c0-1.2-.3-1.7-1.5-1.6-.8.1-1-.5-.5-1,1.2-1.3,2.5-2.6,3.8-3.8l.5.5-.3.6c-.7.9-1.5,1.7-2.4,2.7h3.5A26.954,26.954,0,0,0,54.3,219.3Z"/>
    <path id="Path_858" data-name="Path 858" class="cls-1" d="M64.3,229.2c.2.3.4.5.6.8,0,.1.1.3.1.4-.3.3-.5.6-.8.9A1.454,1.454,0,0,1,64.3,229.2Z"/>
    <ellipse id="Ellipse_10" data-name="Ellipse 10" class="cls-1" cx="25.9" rx="25.9" transform="translate(28.1 262.7)"/>
    <ellipse id="Ellipse_11" data-name="Ellipse 11" class="cls-1" cx="17.5" cy="0.1" rx="17.5" ry="0.1" transform="translate(-1.8 262.7)"/>
    <path id="Path_859" data-name="Path 859" class="cls-1" d="M83.8,248.8a19.481,19.481,0,0,1-.6-2.3c-.1-4.7,0-9.3,0-14,0-1.5.1-1.6,1.7-1.6H96.4c1.1,0,1.4.4,1.4,1.4V254c0,1.1-.3,1.4-1.4,1.4-1.7-.1-3.4,0-5,0a6.883,6.883,0,0,1-1.3-.2c-.1-.1-.2-.1-.2-.2a4.508,4.508,0,0,1,1.1-.3c1.4,0,2.8-.1,4.2,0,1.2.1,1.6-.4,1.6-1.6V233.5c0-.5-.1-.9-.1-1.4H84.6v15.8a6.753,6.753,0,0,1-.2,1.4C84.1,249.1,83.9,249,83.8,248.8Z"/>
    <path id="Path_860" data-name="Path 860" class="cls-1" d="M93.1,227.5H88.5c-.3,0-.8-.6-.8-.9,0-1.7.1-3.3.1-5,0-.7.4-.8.9-.8h3.5c.6,0,.9.1.9.8Zm-4-1.1c2.9.5,3,.4,2.9-2.2a6.533,6.533,0,0,0,0-1.4,1.387,1.387,0,0,0-.7-.8,3.3,3.3,0,0,0-1.4,0,1.12,1.12,0,0,0-.7.8C89.1,223.9,89.1,225.1,89.1,226.4Z"/>
    <path id="Path_861" data-name="Path 861" class="cls-1" d="M81.3,227.5v-6c0-.2.4-.7.7-.7a22.853,22.853,0,0,1,3.7,0c.2,0,.6.3.6.5v6.1C84.7,227.5,83.1,227.5,81.3,227.5Zm4-1.2v-3.6c0-.3-.3-.7-.5-.7-1.8-.5-2.3-.1-2.3,1.8v.5C82.4,226.8,82.5,226.9,85.3,226.3Z"/>
    <path id="Path_862" data-name="Path 862" class="cls-1" d="M94.9,220.8h4.2a.849.849,0,0,1,.7.7c.1,1.9,0,3.9,0,5.9H94.9Q94.9,224.25,94.9,220.8Zm.7,5.6c3.2.3,3.2.3,3.1-2.5,0-2-.6-2.4-2.6-2a1.724,1.724,0,0,0-.6.6C95.6,223.8,95.6,225.1,95.6,226.4Z"/>
    <path id="Path_863" data-name="Path 863" class="cls-1" d="M83.8,248.8c.2.1.3.3.5.4.1,1.3.2,2.6.2,3.9,0,1.2.3,1.5,1.5,1.5,1.3,0,2.6.2,3.9.3.1.1.2.1.2.2a17.851,17.851,0,0,1-2.3.2H85.4c-2,0-2.1,0-2.1-2a20.454,20.454,0,0,1,0-3.5C83.2,249.5,83.6,249.2,83.8,248.8Z"/>
    <path id="Path_864" data-name="Path 864" class="cls-1" d="M83.5,213.8h18.4v.1H83.5Z"/>
    <ellipse id="Ellipse_12" data-name="Ellipse 12" class="cls-1" cx="0.1" cy="12.9" rx="0.1" ry="12.9" transform="translate(75.9 217.6)"/>
    <path id="Path_865" data-name="Path 865" class="cls-1" d="M76,256.8v-13h.1v13Z"/>
    <path id="Path_866" data-name="Path 866" class="cls-1" d="M82.1,262.7H99.9v.1c-5.9-.1-11.9-.1-17.8-.1Z"/>
    <ellipse id="Ellipse_13" data-name="Ellipse 13" class="cls-1" cx="10.4" rx="10.4" transform="translate(79.1 272.3)"/>
    <path id="Path_867" data-name="Path 867" class="cls-1" d="M109.6,268.7c-.8-1.1-.4-2.5-.2-3.7C109.5,266.2,109.6,267.4,109.6,268.7Z"/>
    <path id="Path_868" data-name="Path 868" class="cls-1" d="M99.2,269.4c-.3,0-.7.1-1,.1H82.1a3.485,3.485,0,0,1-1.7-.6c2.9.5,5.8.1,8.7.2s5.8,0,8.8,0h1.3S99.2,269.2,99.2,269.4Z"/>
    <ellipse id="Ellipse_14" data-name="Ellipse 14" class="cls-1" cx="12.8" rx="12.8" transform="translate(78.3 267.5)"/>
    <path id="Path_869" data-name="Path 869" class="cls-1" d="M59.1,134.8c-.2.1-.4.3-.6.3-2.3,0-4.6.1-6.8,0a1.085,1.085,0,0,1-.8-.8c-.1-2.2,0-4.5,0-6.7,0-.2.2-.4.4-.6l.5.5c.1,1.1.2,2.3.2,3.4V134h4.9c.5,0,1.1.2,1.6.2Z"/>
    <path id="Path_870" data-name="Path 870" class="cls-1" d="M96.5,80.7H84.2a9.925,9.925,0,0,0,.3-1.5V57.1c0-1.2.4-1.5,1.5-1.5,3.1.1,6.2,0,9.3,0,.8,0,1.2.3,1.2,1.2V80.2C96.6,80.3,96.5,80.4,96.5,80.7ZM85.8,56.8V70.7h9.6V56.8Zm-.1,15.1v7.2c0,.2.5.5.7.5h8.3c.2,0,.7-.4.7-.6V71.8C92.1,71.9,89,71.9,85.7,71.9Z"/>
    <ellipse id="Ellipse_15" data-name="Ellipse 15" class="cls-1" cy="14.9" ry="14.9" transform="translate(97.2 52.9)"/>
    <path id="Path_871" data-name="Path 871" class="cls-1" d="M83.4,66.8V60.4h.1c0,2.1,0,4.2-.1,6.4Z"/>
    <path id="Path_872" data-name="Path 872" class="cls-1" d="M29.3,55.2v24c0,1.2-.4,1.6-1.5,1.5H18c-.7,0-1-.1-1-.9-.1-6.4-.2-12.7-.3-19.1a41.537,41.537,0,0,1,.3-4.9.9.9,0,0,1,.6-.6C21.4,55.1,25.4,55.2,29.3,55.2ZM18.2,70.5h9.9V57.1c0-.3-.6-.7-.9-.7-1.5-.1-3,0-4.4,0H18.2Zm0,9h9.2c.7,0,.8-.4.8-.9V72.7c0-.8-.3-1-1.1-1H18.3C18.2,74.3,18.2,76.8,18.2,79.5ZM29,68.9h0V56.5h-.1C29,60.7,29,64.8,29,68.9Zm0,9.3h0c.1-2.5.1-5,.1-7.5H29Z"/>
    <path id="Path_873" data-name="Path 873" class="cls-1" d="M62.4,57.1a6.107,6.107,0,0,1,.3,1.3V79.7c0,.5,0,1-.7,1H50.7V69.6a5.274,5.274,0,0,1,.3-1.2c.2-.2.3-.4.5-.5.1,1,.3,1.9.4,3h8c1.7,0,1.7,0,1.8-1.7V59.8a19.67,19.67,0,0,1,.3-2.4C62.3,57.3,62.4,57.2,62.4,57.1ZM56.7,79.6h4c.8,0,1.2-.3,1.2-1.1V72.7c0-.7-.3-1-1-1h-8c-.7,0-.9.3-.9.9v6.1c0,.6.2.9.8.8C54.1,79.6,55.4,79.6,56.7,79.6Z"/>
    <path id="Path_874" data-name="Path 874" class="cls-1" d="M62.4,57.1l-.2.2a12.09,12.09,0,0,0-1.8-.5,13.334,13.334,0,0,0-2,0H52c0,.6-.1,1-.1,1.4v8.3a6.752,6.752,0,0,1-.2,1.4c-.2.2-.3.4-.5.5a5.274,5.274,0,0,1-.3-1.2V56.7c0-.8.2-1.1,1.1-1.1h9.7C62.9,55.6,63,55.8,62.4,57.1Z"/>
    <ellipse id="Ellipse_16" data-name="Ellipse 16" class="cls-1" cx="0.1" cy="7.4" rx="0.1" ry="7.4" transform="translate(50 54.6)"/>
    <ellipse id="Ellipse_17" data-name="Ellipse 17" class="cls-1" cx="4.5" cy="0.1" rx="4.5" ry="0.1" transform="translate(53.9 81.1)"/>
    <path id="Path_875" data-name="Path 875" class="cls-1" d="M50.2,112.2v10.2h-.1c0-3.3,0-6.8.1-10.2Z"/>
    <path id="Path_876" data-name="Path 876" class="cls-1" d="M50.1,126.5v0Z"/>
    <path id="Path_877" data-name="Path 877" class="cls-1" d="M96.6,122.5v11.2c0,1.1-.3,1.5-1.4,1.5-3.2-.1-6.3-.1-9.5,0-1.1,0-1.3-.4-1.2-1.3.1-4.2.2-8.5.2-12.7,0-3.3-.1-6.6-.1-9.9,0-.9.3-1.3,1.2-1.3h9.7c.9,0,1.2.4,1.2,1.2-.1,3.7-.1,7.5-.1,11.3Zm-1.3,2.6v-14H85.8v14Zm0,1.1H85.8v7.6h9.5Z"/>
    <path id="Path_878" data-name="Path 878" class="cls-1" d="M97.2,111.5v21.7h-.1c0-7.2,0-14.4.1-21.7Z"/>
    <path id="Path_879" data-name="Path 879" class="cls-1" d="M83.4,118.6v-4.9h.1c0,1.6,0,3.3-.1,4.9Z"/>
    <path id="Path_880" data-name="Path 880" class="cls-1" d="M29.1,132.8v-6.2H29v6.9c0,1.6.1,1.6-1.7,1.6H18.8a7.394,7.394,0,0,0-1.8.3v-2.9c-.1-1.3-.3-2.6-.3-3.9V114.4c0-1.2.3-2.4.3-3.6,0-.8.4-.9,1.1-.9H28.3a.959.959,0,0,1,1.1,1.1v21.8Zm-11-21.7v13.4a1.208,1.208,0,0,0,.7.7h8.4a1.085,1.085,0,0,0,.8-.8q.15-6.15,0-12.3c0-.3-.5-.9-.8-.9C24.3,111.1,21.3,111.1,18.1,111.1Zm.1,22.8h9.3c.2,0,.6-.5.6-.9.1-2,0-3.9,0-5.9,0-.8-.3-1-1.1-1H18.2ZM29,112h0c-.1,4.1-.1,8.3-.1,12.4H29Z"/>
    <path id="Path_881" data-name="Path 881" class="cls-1" d="M88.6,164.4c.2.1.4.4.6.4,2.1-.1,4.2-.1,6.3-.3,1.1-.1,1.1.7,1.1,1.4v22.3c0,1.1-.3,1.6-1.5,1.5-3-.1-6.1,0-9.1,0a7.972,7.972,0,0,0-1.5.3V166.1c0-1.6,0-1.6,1.7-1.7a7.619,7.619,0,0,0,2-.6l.2.2h0A.52.52,0,0,0,88.6,164.4Zm-2.9,8.5h0V179c0,.9.2,1.2,1.2,1.2,2.5-.1,4.9-.1,7.4,0,.9,0,1.2-.3,1.2-1.2V166.8c0-.7-.2-1-.9-1H86.7c-.8,0-.9.3-.9,1C85.7,168.9,85.7,170.9,85.7,172.9Zm.1,15.7h9.6v-7.4H85.8Z"/>
    <path id="Path_882" data-name="Path 882" class="cls-1" d="M83.4,178.1V167.9h.1c0,3.4,0,6.8-.1,10.2Z"/>
    <path id="Path_883" data-name="Path 883" class="cls-1" d="M86.9,190.4h7.3v.1H86.9Z"/>
    <path id="Path_884" data-name="Path 884" class="cls-1" d="M62.8,177.1v11.5c0,1-.3,1.3-1.2,1.2-3.2,0-6.3-.1-9.5,0-1,0-1.3-.3-1.3-1.3V166.8c0-2.3,0-2.3,2.3-2.3h8.5c.9,0,1.2.2,1.2,1.2-.1,3.9,0,7.7,0,11.4Zm-10.9-4.2h0V179c0,.9.3,1.2,1.2,1.2,2.4-.1,4.8,0,7.2,0,1.4,0,1.6-.2,1.6-1.6V167c0-.8-.3-1.2-1.1-1.2H52.9c-.7,0-1,.3-1,1Zm.1,15.8h9c.3,0,.8-.6.8-.9.1-2,0-3.9,0-5.9a.99.99,0,0,0-.5-.7H52Z"/>
    <path id="Path_885" data-name="Path 885" class="cls-1" d="M51.3,190.5H61.5v.1c-3.4-.1-6.8-.1-10.2-.1Z"/>
    <path id="Path_886" data-name="Path 886" class="cls-1" d="M50.2,167.9V178h-.1c0-3.3,0-6.7.1-10.1Z"/>
    <path id="Path_887" data-name="Path 887" class="cls-1" d="M16.4,176.7a13.664,13.664,0,0,0,.2-1.9c.1-3,.2-6,.2-9,0-.9.4-1.2,1.2-1.2H28c1,0,1.4.4,1.3,1.4,0,3.2.1,6.3-.1,9.5a20.855,20.855,0,0,0-.4,3.5,43.787,43.787,0,0,1,.4,5.1,28.482,28.482,0,0,1-.6,4.9c0,.2-.6.5-.9.6-3.3.1-6.5.2-9.8.3-.9,0-1.2-.2-1.2-1.2,0-3-.1-5.9-.1-8.9a8.506,8.506,0,0,1,.4-2.2C17.4,176.9,17.4,176.3,16.4,176.7Zm1.8,3.5h9.1c.7,0,.8-.5.8-1.1V166a6.151,6.151,0,0,0-1.3-.1H19.4c-1,0-1.3.4-1.3,1.3,0,3-.1,6-.1,9C18,177.4,18.2,178.8,18.2,180.2Zm-.2.9v7c0,.3.6.7.9.8,1.5.1,3,0,4.5,0a7.442,7.442,0,0,1,2.6.2c1.3.3,2.1-.2,2.1-1.5,0-1.8,0-3.7-.1-5.5,0-.3-.5-.9-.7-.9C24.4,181.1,21.4,181.1,18,181.1Zm11-6.9h0c.1-2.2.1-4.3.1-6.5H29Z"/>
    <path id="Path_888" data-name="Path 888" class="cls-1" d="M18.6,190.4h5v.2h-5Z"/>
    <path id="Path_889" data-name="Path 889" class="cls-1" d="M29.1,221v1.6c0,.3-.1.6-.1.9,0,4.4,0,8.8.1,13.2V223.5h.3v21.3c0,1.5-.4,2-2,1.9h-9c-1.4,0-1.6-.2-1.6-1.6v-8.2c0-3.7-.2-7.3-.2-11a26.929,26.929,0,0,1,.3-4c0-.3.7-.6,1.1-.6,3.1-.1,6.2,0,9.3,0C27.9,221.2,28.3,221.1,29.1,221ZM18.2,236.7h8.7c1,0,1.3-.4,1.3-1.3V225.3c0-2.9,0-2.9-2.9-2.9h-7C18.2,227.2,18.2,231.9,18.2,236.7Zm4.8,8.6h3.8c.9,0,1.3-.2,1.3-1.2a46.854,46.854,0,0,1,0-5.3c0-1-.5-1.3-1.4-1.3-2.5,0-5,0-7.6-.1-.8,0-1.1.3-1.1,1v6c0,.6.2.9.8.8C20.3,245.2,21.7,245.3,23,245.3Zm6-2h0v-4.6h0Z"/>
    <path id="Path_890" data-name="Path 890" class="cls-1" d="M27,247.2H18v-.1c3,0,6,0,9,.1Z"/>
    <path id="Path_891" data-name="Path 891" class="cls-1" d="M51,244.5c0-.8-.1-1.5-.1-2.3V223.9a3.816,3.816,0,0,0-.4-1.3c.1-.3.4-.7.7-1.5,1.7.1,3.5.3,5.4.5a4.35,4.35,0,0,0,.7.6,22.953,22.953,0,0,1-3.7.2c-1.2-.1-1.6.2-1.6,1.5q.15,5.7,0,11.4c0,1.3.4,1.5,1.6,1.5,1.7-.1,3.4.1,5.1.1,0,.1-.1.1-.1.2a6.106,6.106,0,0,1-1.3.3H53.8c-1.6,0-1.6.1-1.7,1.7,0,1.6-.1,3.2-.2,4.7A2.332,2.332,0,0,0,51,244.5Z"/>
    <path id="Path_892" data-name="Path 892" class="cls-1" d="M51,244.5l.7-.7c.1.4.3.9.4,1.4,2.9,0,5.9,0,8.9-.1.3,0,.8-.7.8-1.1.1-1.6,0-3.3,0-4.9,0-1.4-.3-1.7-1.8-1.7a10.1,10.1,0,0,1-1.7-.3c0-.1.1-.1.1-.2a14.918,14.918,0,0,1,2.1-.2c1,0,1.2-.4,1.3-1.3a16.6,16.6,0,0,1,.3-2.2.758.758,0,0,1,.4-.2c.1.2.4.4.4.5-.1,3.6-.2,7.1-.2,10.7,0,2.7.1,2.4-2.5,2.4H52.7C50.6,246.7,50.5,246.6,51,244.5Z"/>
    <path id="Path_893" data-name="Path 893" class="cls-1" d="M57.2,222.2a4.35,4.35,0,0,0-.7-.6,10.1,10.1,0,0,1,1.7-.3h3.7c.3,0,.8.4.8.6,0,2,0,3.9-.1,5.9l-.4-.4a12.412,12.412,0,0,1-.3-2.7c.2-1.8-.1-2.2-1.8-2.2C59.1,222.4,58.1,222.2,57.2,222.2Z"/>
    <path id="Path_894" data-name="Path 894" class="cls-1" d="M50.1,244.2v0Z"/>
    <path id="Path_895" data-name="Path 895" class="cls-1" d="M62.2,227.3l.4.4V233a.758.758,0,0,1-.4.2c-.1-.2-.3-.4-.3-.6v-4.8C61.9,227.6,62.1,227.5,62.2,227.3Z"/>
    <path id="Path_896" data-name="Path 896" class="cls-1" d="M53.3,247h8.2v.1c-2.7,0-5.5,0-8.2-.1Z"/>
  </g>
</svg>
