<svg enable-background="new 0 0 216 72" viewBox="0 0 216 72" xmlns="http://www.w3.org/2000/svg"><path d="m124.2 46.1c.2.1.1.1 0 0-.2-.8-.6-1.4-1.5-1.4-.8 0-1.4.4-1.8 1.1-.4.9-1.4.8-2.2.9-.4.1-.7.3-1.1.5-.1 0-.1.2-.2.2-1.5.2-2.7 1.8-4.4 1.1-.8.6-1.9.5-2.8.7-.2 0-.4.1-.6.1-1-.2-2.1-.5-3.1-.8-1.1-.3-2.3-.6-3.4-.7-.4-.1-.9.1-1.3.2-2 .4-2.3.2-2.3-1.6 0-.8 0-1.6-.3-2.3-.2-.5-1-.8-1.4-1.3-.6-.7-1.5-1.5-1.4-2.2.1-1.1-.6-2-.6-3-.1-2-.4-4.1-.6-6.1 0-.3.1-.7.2-1 .4-.5.5-.9.1-1.4 0 0 0 0 0-.1.2-1.1.4-2.3.6-3.4 0-.2.3-.4.4-.6.7-2.3 1.4-4.7 2.2-7 .2-.5.6-.8.9-1.3.9-1.5 1.6-3 2.6-4.4.6-.9 1.5-1.5 2.2-2.2.8-.8 1.5-1.6 2.3-2.4.1-.1.3-.3.5-.3.7-.3 1.5-.6 2.3-.9.4-.1.9-.1 1.3-.1s1.1.1 1.3-.1c.9-1 1.6-.2 2.3.2 1.3.7 2 1.9 2.8 3 .4.6.9 1.1.7 1.9-.1.3.4.6.4.7-.1 1.6-.2 3-.3 4.5 0 .5-.1 1-.1 1.5 0 .4.1 1-.1 1.3-.4.6-.8 1.4-1.4 1.7s-1.4.3-1.5-.8c0-.8-.1-1.6-.1-2.3 0-.3.1-.8-.1-1-.5-1 0-1.5.8-1.9 1.2-.6 1.5-2.1.7-3.2-.1-.2-.2-.4-.3-.6-.2-.6-.1-1.3-.4-1.7-1.1-1.3-2.5-2.3-4.3-2.2-.5 0-1 .6-1.4.9-.6.4-1.1 1.1-1.7 1.2-1.8.4-2.9 1.5-3.7 3-.5.9-1.2 1.6-1.7 2.5-.6 1.1-1.1 2.2-1.7 3.3s-1.2 2.2-1.6 3.4c-.3 1-.5 2-.6 3.1 0 .6.2 1.1-.5 1.4-.1 0-.2.2-.3.3-.2.6-.5 1.3-.7 1.9-.1.3.2.8.4 1 .6.6.7 1.6 0 2s-.5 1-.5 1.5c0 .3.4.6.8 1.1-.1.2-.3.5-.5.9-.1.2-.3.5-.3.7.3 1 .7 1.9 1 2.9.1.3 0 .7.1 1 0 .2 0 .5.1.7.6.9 1.2 1.8 1.9 2.6.4.5.8.5 1.1-.1 1.1-2.2 2.5-4.3 4.2-6.1.3-.3.4-.7.6-1 .5-1 1.7-1.5 1.8-2.7 0-.4.2-.8.2-1.2-.1-1.7-.2-3.5-.3-5.2-.1-1.6-.1-3.1-.1-4.7 0-2.2 0-4.3.1-6.5 0-.3.5-.8.6-.8.5.2 1.1.5 1.3.9.2.7.1 1.5.1 2.2 0 3.5.1 7.1.1 10.6 0 .6-.1 1.3-.1 1.9 0 .2.2.4.3.6.2-.1.4-.2.6-.3.6-.7 1.2-1.5 1.8-2.3.1-.1.1-.2.2-.2 1.8-1.2 3-2.9 4.2-4.6 0-.1.1-.1.2-.2 2-.8 2.8-2.7 4.2-4 1.5-1.4 2.9-2.8 4.4-4 .6-.5 1.2-.8 1.5-1.6.5-1.2 1.8-1.5 2.7-2.3.8-.7 1.6-1.4 2.4-2 .4-.3.9-.6 1.3-.7.4 0 1.1.3 1.2.5.1.4-.2.9-.4 1.4-.2.4-.4.7-.7 1.1-.1.2-.1.5-.2.5-1 .2-.9.8-.8 1.6 0 .5-.4 1-.7 1.5-.1.1-.2.2-.2.3-.4 1.4-.9 2.8-1.3 4.2-.3 1.2-.7 2.5-1 3.7 0 .2.1.3.1.5.1.2.3.5.2.7-.7 1.4.3 2.5.7 3.7s1.5 1.6 2.1 2.6c.3.6 1.1.9 1.8 1.2 1.1.4 1.7 0 1.6-1.3-.1-.9.2-1.3 1.1-1.4.8-.1 1.6.4 1.8 1.3.1.3.1.7.3 1 .1.2.5.4.7.3 1.1-.6 2.1-1.2 3.2-1.9-1.2-1.2-.8-2.5-.6-3.8.2-1.2.3-2.3.5-3.5 0-.1-.2-.3-.3-.5-.1-.4-.1-.8-.1-1.3.1-.9.2-1.8.4-2.7.1-.5.5-1 .7-1.6.5.3 1.1.4 1.5.8.2.2.2.7.2 1 0 1.9-.1 3.7-.1 5.6 0 .7.2 1.5.1 2.2 0 .7-.3 1.4-.3 2.1 0 .3.1.6.2.8.3-.1.5-.2.8-.3.4-.2.8-.4 1.2-.6s.9-.3 1.4-.4c1.1-.4 2.1-.9 3.2-1.3 1.4-.6 2.8-1.1 4.2-1.7 1.1-.4 2.3-.8 3.4-1.3 1.1-.4 2.2-.9 3.4-1.3.8-.3 1.8-.3 2.6-.6 1.1-.3 2.2-.8 3.3-1.2.3-.1.6-.2.9-.2.6-.2 1.2-.4 1.8-.6.2-.1.4-.3.5-.2 1.1.6 2.1-.2 3.1-.2.2 0 .6-.1.7-.3.4-.5.7-.6 1.2-.3.1.1.4 0 .5 0 .8-.1 1.6-.4 2.4-.4 2 0 4.1 0 6.1.1.4 0 .8.3 1.2.5.2.1.3.2.5.3 1.6.7 1.9 1.4 1.4 3.1-.1.3-.1.6 0 .9.3 1.4-.6 2.5-1.1 3.7-.4 1.2-.8 2.4-1.2 3.6 0 .1 0 .3-.1.3-1.3.9-1.2 2.3-1.5 3.6 0 .1-.2.3-.2.4-.9 1.1-1.7 2.3-2.6 3.4-.8.9-1.7 1.6-2.6 2.4-.7.6-1.4 1.1-2 1.6-.1.1-.3.3-.4.3-2.1.5-4.1-1.2-4.1-3.3 0-.6-.1-1.2-.2-1.8-.1 0-.2 0-.3 0-.1.7-.2 1.4-.3 2.1s-.4 1.2-1.2 1.1c-.9-.1-.8-.8-.8-1.3 0-1 .1-2.1.1-3.1 0-.3 0-.6-.1-1 0-.1-.3-.3-.4-.3s-.3.2-.3.4c0 .5.1.9 0 1.4-.1.7-.3 1.4-.4 2.1-.1.4-.2.7-.3 1.1-.1.5-.1 1.1-.2 1.6s-.2 1.3-.5 1.4c-.7.4-1.6.5-2.4.5-1.1.1-1.3-1.1-1.9-1.6-.6-.6-1-.6-1.5 0-.2.3-.7.4-1.1.4-.6.1-1.1.1-1 1 .1.7-.7 1.1-1.5.9-1-.3-2.2-.4-2.9-1.4-.2-.2-.9-.1-1.3 0s-.7.4-1.1.6c-.5.2-1 .2-1.3-.4s-.6-.5-1 0c-.3.4-1.1.8-1.5.7-1.1-.3-1.5.3-2 1-.2.3-.6.6-.8.6-.7-.1-1.5.5-1.9-.5-.1-.2-.2-.4-.4-.5-.9-.4-1-1.1-1.1-1.9 0-.2 0-.5 0-.6-.2-.4-.4-.8-.7-1.2-.3.3-.5.6-.9.9-.3.2-.6.4-.9.6-.4.3-.9.5-1.2.8-.8.7-1.4 1.7-1.8 2.7-.3 1-2.2 1.4-2.9.8 0 0-.1-.1-.1-.1-1.3.4-1.8-1-2.8-1.1-.8-.1-.8-.7-.7-1.3 0-.1.6-.3.7-.2.8.9 1.6.4 2.4.1.4-.2.8-.4 1.2-.5.8-.1 1-.5 1-1.2 0-.5 0-1-.1-1.5-.1-.3-.3-.6-.6-.6-.2-.1-.6.1-.8.3-.4.2-.8.5-1.1.8-.2.2-.4.4-.7.5-.6.4-1.2.9-1.8 1-1.5.2-2.3.8-2.8 2.2-.1.3-.5.5-.8.7s-.6.3-.9.5-.7.3-1.1.4c-1-.4-1.4-.3-2.2-.1zm-4.9-12.1h.4c.9-.1 1.4.1 1.2 1.2s-.4 2.2-.5 3.3c0 .3.2.8.4.9.6.2 1.9-.8 2.1-1.4s.5-1.3.8-1.8c.2-.3.6-.5 1-.8.2.3.4.6.5 1 .3.9 1 1.2 1.8.6.3-.2.7-.5 1-.5 1.1-.2 1.6-.7 1.4-1.9 0-.2 0-.5.2-.8.9-1.5.8-2.7-.6-3.8-1.2-1-1.7-2.2-1.5-3.7 0-.2-.1-.5-.2-.6-.9-.6-.4-1.3-.2-2 .2-.6.2-1.2.3-1.8.1-.7.2-1.5.4-2.2s.5-1.4.7-2.1c.2-.6.5-1.1.6-1.7.1-.5.2-1 .2-1.6 0-.1-.5-.3-.6-.3-.9.8-1.8 1.6-2.7 2.5s-1.7 1.9-2.7 2.8c-.8.8-1.8 1.6-2.6 2.5-1.1 1.2-2.1 2.6-3.3 3.7-1.4 1.4-3 2.7-4.4 4.2-1.1 1.1-2.1 2.4-3.2 3.6-.5.6-.5 1.1.2 1.6.5.3.7.7.4 1.3-.1.2-.1.5-.1.8.1.8.3 1.6.3 2.5 0 1-.2 1.9-.2 2.9 0 .4.2.8.3 1.2.2-.4.5-.8.7-1.2.1-.2-.1-.4-.1-.6 0-.5-.1-1.2.2-1.5.6-.5.6-1 .7-1.6.1-1.7.4-3.4.7-5 .1-.3.3-.8.5-.8.6-.1 1.3 0 1.9.2.2.1.2.8.2 1.2-.1 1.7-.3 3.5-.4 5.2 0 .6.3 1.2.5 1.7.3.7.6.8 1 0 .1-.2.4-.3.6-.4.9-.1 1.1-.7 1.2-1.4.1-1 .3-2.1.5-3.1.1-.8.2-1.4.4-2.3zm58.3-13.3c-.6-.7-1.5-.5-2.3-.1-.9.5-1.6.9-2.6.5-.1 0-.3.1-.5.1.1.2.1.4.2.5.5.6.7 2.1.3 2.7-.6 1.1-2.2 1.5-2.5 3 0 .1-.4.1-.7.2-.7.2-1.4.2-2.1.5s-1.2.9-1.8 1.2c-.5.3-1.1.4-1.6.7-1 .4-2 .7-2.9 1.1-.2.1-.6.2-.6.4-.1.9-.2 1.8-.2 2.6.1.7.3 1.2-.6 1.5-.1 0-.2.5-.3.7v2.7c0 .8.3 1.1 1.1 1 .3 0 .6-.1.9-.1.8-.2 1.2-1.1 1.1-1.8 0-1.3-.3-2.7.9-3.8.2-.2.2-.5.3-.8.3-.8.6-1.6.9-2.5.4-.9 1.1-1.3 2-1.4.3 0 .8.2 1 .4.5.8 1 1 1.7.3.2-.2.7-.2.8-.1.3.5.5 1 .7 1.5.1.2.1.4.2.6.2-.1.6-.1.7-.3.2-.3.3-.6.4-.9.4-1.3 1.4-2.1 2.5-2 .3 0 .7.3.7.5.2.8.4 1.7-.2 2.5-.3.4-.3 1-.3 1.5 0 1.8 0 3.6.1 5.5 0 .3.2.7.3.7.7-.1 1.6 0 2.1-.4 1.4-1.1 3-2 3.7-3.8.3-.8 1-1.4 1.5-2.2.4-.6.8-1.1 1.1-1.7.3-.7.5-1.4.8-2.1.3-.8.7-1.6 1-2.4.2-.6 0-1.2.1-1.8.1-.4.4-.8.6-1.1.2-.5.5-.9.7-1.4.1-.4.1-.9.3-1.4.3-.7.1-1-.6-1.1-.8-.1-1.5-.9-2.4-.4 0 0-.1-.1-.2-.1-.3-.6-.7-.7-1.3-.3-.1.1-.4 0-.6 0-.3-.1-.6-.2-.8-.2-.6.1-1.2.2-1.8.4-.7.2-1.1.5-1.8.9zm-16.2 8c.1.2.2.3.3.5.5-.4 1.1-.7 1.5-1.1.9-.9 2.4-.6 3.4-1.6 1-.9 2.5-1.3 3.6-2.1.4-.3.6-1 .6-1.5 0-.4-.5-1-.8-1-.4-.1-.8.4-1.2.6-.2.1-.4.2-.6.2-.3.1-.7.1-1.1.2-.5.1-1.1.1-1.6.2-.3.1-.6.4-.9.6s-.6.6-.8.5c-1.2-.4-3.2.2-4.1 1.1-.3.3-.7.4-1.1.5-.9.1-1.9-.1-2.5.9-.1.2-.5.3-.8.5-.9.5-2.2-.1-2.8 1.2 0 .1-.2 0-.4.1-.7.2-1.5.4-2.1.7-.9.4-2.2.3-2.8 1.4 0 0-.1 0-.2 0-.7.2-1.5.3-2.2.6-.3.1-.6.5-.8.7.3.3.6.6 1 .8.2.1.5.1.7.1 2.7-.3 5.5-.3 8-1.5.1-.1.3-.1.5-.1l3-.3c.2 0 .4-.1.7-.2 1.2-.9 2.4-1.5 3.5-2zm-3.6 4.1c-.8 0-1.6 0-2.3 0-.2 0-.3 0-.5 0-1.3.4-2.5.8-3.8 1.1-.7.2-.9.6-.9 1.2-.1.9-.2 1.7-.3 2.6 0 .4 0 .9.1 1.3.1.3.3.5.5.7.2-.3.5-.6.5-.8-.2-1.4.6-2.3 1.1-3.4.1-.2.4-.6.6-.5.4.1.9.3 1.1.6.4.6-.2 2.3-.5 3-.3.5-.2 1.3-.3 1.9l1.2-.3c.1 0 .2-.1.3-.1 1.5-.1 1.8-1.5 2.5-2.4 1.1-1.5 1.1-3.4.7-4.9zm-53.3 12.9c.6-.2 1.2-.4 1.8-.5 1.8-.3 2.3-1 2.1-2.7 0-.1 0-.3 0-.4 0-1.8 0-3.6 0-5.4 0-.2-.1-.5-.3-.9-.3.4-.4.6-.6.9-.9 1.2-1.7 2.6-2.7 3.7-.7.7-1.3 1.4-1.5 2.5 0 .2-.3.3-.4.5-.2.4-.6.8-.5 1.2.1.3.7.6 1 .8.4.1.8.2 1.1.3zm40.2-7.7c.1 1.5.2 2.7.4 3.9 0 .2.3.4.4.4.5-.1 1.1-.3 1.6-.6.2-.1 0-.7 0-1.1 0-.2 0-.3 0-.5.1-.5.3-1 .3-1.5.1-1.1-.2-2.4.7-3.4.1-.2 0-.8-.3-1-.3-.1-.7 0-1.1.1-.3.1-.7.4-.9.3-1-.7-1.4.2-1.6.7s-.1 1.2.1 1.8c.1.5.4.8.4.9zm-2.3-3.1c-.1 0-.3-.2-.5-.2-.8-.1-1.6-.2-2.4-.1-1.5.2-1.9.8-1.7 2.3.1.7.3 1.3.4 2 .1.5.3 1.1.4 1.6.4-.2.9-.4 1.2-.7.8-.9 2-1.5 2.1-2.9.2-.6.4-1.3.5-2zm-16.9 9.3c.6-.6 1.3-1 1.7-1.6.7-.9 1.3-1.9 1.9-2.9.2-.3.1-.9.1-1.3 0-.1-.3-.3-.4-.3-.6.2-1.1.5-1.7.7-.3.1-.7.4-1 .4-.9-.1-1.1.2-.8 1.1.1.2 0 .5-.1.8-.3 1-.3 2 .3 3.1zm9.5-8.1c-.1-.1-.3-.5-.5-.5-.4 0-.8.2-1.1.3-.2.1-.4.6-.5.5-1.3-.1-1.5.6-1.5 1.7 0 .2-.1.4-.1.5v1c.4 0 1 .1 1.2-.1.9-.9 1.7-1.8 2.5-2.8-.1-.1-.1-.3 0-.6zm31.3-3.2c.1 0 .2 0 .2-.1-.2-.2-.3-.5-.5-.7-.1.2-.4.3-.4.5-.1 1.2-1.1 2.1-.8 3.4 0 .1-.2.3-.2.4-.1.2-.1.5-.2.7.3 0 .7.2.8 0 .4-.5.9-1 1-1.6.2-.9.1-1.7.1-2.6zm-50.8 13.1c-.3-.3-.5-.7-.7-.7-.6-.2-1.4-.5-2-.4-.3.1-.5.9-.7 1.4-.1.2.1.5.3.6.1.1.4-.1.6-.2.4-.1.8-.3 1.1-.4.5-.1.9-.2 1.4-.3zm51.7-6.8c-.2-.4-.2-.7-.4-.9-.1-.1-.5.1-.6.2-.4.3-.8.6-1.1 1-.2.2-.2.7 0 .9.1.2.7.4.9.3.4-.3.8-.9 1.2-1.5zm-45.1 2c-.3-.1-.6-.2-.7-.1-.4.3-.8.6-1.2 1-.1.1 0 .5.1.7.1.1.5.3.5.2.4-.4.8-1 1.3-1.8zm10.5-8.7c-.3.6-.5 1-.6 1.4 0 .1.3.4.5.5.3-.3.6-.6.7-1 .2-.1-.2-.4-.6-.9zm-16.3 12.2c.3-.6.6-1 .7-1.3 0 0-.4-.4-.6-.3s-.5.4-.6.6c.1.2.3.5.5 1z"/><path d="m46.2 44.7c-.1-.3-.2-.5-.4-.8-.6.7-1.7.9-1.4 2.1-.9.5-1 1.2-.9 2.2 0 0-.1.1-.2.1-1.1.3-1.3 1.2-1.5 2.2-.1.3-.4.6-.7.8-.7.5-1.4 1-2.1 1.5-.3.2-.7.1-1.1.2-.3 0-.6-.1-.9-.1-1.1 0-1.6-.3-1.8-1.4-.1-.8 0-1.5.1-2.3 0-.2.3-.4.5-.4s.4.2.5.4.2.4.1.6c-.3 1.1.1 1.3 1.3 1.4 1.9.2 2.2-1.1 2.8-2.2.5-.8 1.1-1.6 1.5-2.4.2-.3.3-.8.1-1-.2-.3-.6-.5-.9-.5-.5-.1-1.1.1-1.6.1-.7 0-1.3 0-1.5-.9 0-.1-.2-.3-.3-.3-.9-.1-1-.7-1-1.4 0-1.2-.1-2.5.3-3.5.4-1.1 1.5-1.9 2.3-2.8.2-.2.4-.3.4-.5.2-1 .9-1.5 1.6-2 .5-.4 1.1-.8 1.5-1.3.2-.3.3-1 .1-1.2-1-1-.5-2.2-.8-3.3-.2-.6-.4-1.1-.6-1.7 0-.1-.2-.2-.2-.3.1-1.4-.8-2.5-1.3-3.7-.3-.7-.8-1.4-1.3-2-.9-1.1-1.8-2.3-2.9-3-1.4-.9-3-1.8-4.9-1.3-.5.1-1.1.1-1.6 0-.2 0-.6-.5-.6-.6.2-.5.4-1 .8-1.4.2-.2.7-.1 1-.2.7-.2 1.3-.3 2-.5.1 0 .2-.1.4-.1.8-.1 1.7-.2 2.5-.3.7-.1 1.4.1 1.6-.8 0-.1.1-.1.2-.1 1.6-.4 3.1-.7 4.7-1.1.3-.1.6-.1.8-.2 1.6-.5 3.1-.9 4.7-1.5 1.1-.4 2.1-1 3.2-1.4.7-.3 1.6-.4 2.4-.4.7 0 1.2.1 1.9-.4.4-.3 1.2-.3 1.8-.4.4-.1.7-.3 1-.5.3-.1.6-.4.9-.4.8 0 1.6.1 1.9-.9 0-.1.7-.1.8 0 .4.5.6.5 1 .1.1-.1.5 0 .8 0s.7.2.8 0c.4-.4.6-.3 1 0 .5.4 1.1.6 1.6.9.2.2.5.5.5.8.1 1.1 0 2.4-.1 3.8-.1 0-.4.1-.3.1-.4.7-.6 1.3-.9 1.8-.1.1-.2.2-.2.4.1 1.4-1.2 2.1-1.7 3.2-.4.8-.7 1.7-1.1 2.5-.2.4-.5.6-.7 1-.1.1-.2.3-.3.5-.3.9-.5 1.8-.8 2.6 0 .1-.1.3-.2.3-1 .1-.8.8-.8 1.5 0 .6-.3 1.2-.6 1.8s-.7 1.1-1 1.6c0 .1.3.5.4.5.7-.1 1.1.1 1.6.7.4.5 1.3.6 1.8 1.1 1.6 1.4 2.8 3.1 3.8 5 .2.4.1 1 .2 1.5.1.7.2 1.4.5 2.1.1.3.6.4 1 .6.1-.3.2-.6.3-.9.2-.4.3-.8.5-1.2.3-.5.9-.9 1-1.3.2-1 1-1.4 1.7-1.8.3-.2 1.1 0 1.5.2.4.1.6.5 1.1 1-3.3.3-3.9 3-5 5.2.1.1.2.2.3.3.3-.3.5-.6.8-.9s.6-.5.9-.8.8-.6.9-.9c.1-.8.6-.9 1.3-.8s.8.6.7 1.2c0 .1 0 .3.1.8.6-.6 1-1.1 1.5-1.5.3-.3.7-.7 1-.7.4 0 .9.3 1.3.6.2.2.3.6.6.7.1.1.6 0 .7-.1.7-1.1 1.4-2.3 2.1-3.4v-.1c1.3-.2 1.3-1.5 2.1-2.2.2-.2.4-.5.6-.7.6-.8 1.1-1.8 1.8-2.3.8-.6 1.6-1 2.3-1.9.2-.3 1.2 0 1.8 0 0 .1.1.2.1.3-1 1.1-2.1 2.1-3 3.3-1.2 1.6-3 2.7-3.9 4.6-.2.5-.8.9-1.1 1.3-.2.3-.1.6-.2 1 .4 0 .8 0 1.2-.1.1 0 .1-.2.2-.3 0 .1.1.3.1.4.5-.1 1.1-.3 1.6-.2.9.2 1.8.6 2.5 1.1s1.1 1.3 1.6 2c.1.1.2.3.3.5.3 1 .5 2 .8 3 .1.3.3.5.3.9.1.5.2 1 .4 1.5.1.6.2 1.3.5 1.8.2.6.6 1 .9 1.6.1.3.2.6.2.9.1.5.1 1.1.1 1.7.1.8.3 1.5.4 2.3.1.6.1 1.1.6 1.6.4.4.4 1.4.4 2.1 0 1-.3 1.9.3 2.9.6.9.7 2.3.4 3.4-.2 1.1-.9 2-2 2.8-2.1 1.4-4.4.6-6.6.8-.6 0-1.3-.4-1.9-.7-1-.4-2.2-.7-3-1.3-1.3-1-2.7-1.9-3.9-3.3-.9-1-1.3-2.3-2.1-3.3-1.1-1.5-1.6-3.2-1.6-5 0-.5-.2-.9-.3-1.4 0-.2 0-.4 0-.7 0-.2.2-.4.2-.6 0-.7-.1-1.3.1-2 .3-1.5.6-3.1 1-4.6.2-.6.7-1.1 1-1.6.5-.8 1-1.7 1.4-2.5.2-.4-.4-1.8-.9-1.8-.2 0-.5.2-.5.4-.2.5-.8.5-1.5.6-.4 0-.7.4-1.1.6-.2.1-.4.3-.7.3-1.4.1-2.8.1-4.1.3-.3 0-.6.6-.6 1-.1.8.3 1.7-.9 2-.1 0-.2.3-.2.5-.1 1.1-.6 2-1.6 2.6-.2.1-.2.4-.4.6s-.3.5-.5.7c-.9.7-1.8 1.6-2.8 1.9-1.1.4-1.8 1.6-3.1 1.4-.3 0-.7-.1-.7-.2-.4-.8-1-.9-1.8-.9-.2 0-.5-.2-.6-.3-.5-.7-.9-1.5-1.4-2.3-.2-.3-.4-.6-.5-1-.2-.7-1.3-1.2-.4-2.1.1-.1.1-.5 0-.7-.6-.9-.4-1.8 0-2.7.3-.6 0-.9-.6-.9-.4 0-.8.1-1.2.3-1.2.5-2.3 1.1-3.4 1.6-.4.3-.6.6-.9.9zm19.2-37.9c-.1 0-.3-.1-.6-.1-.8-.1-1.7-.2-2.5-.1-.7 0-1.7 0-2.1.4-.7.7-1.3.6-2 .6-.3 0-.7.2-1 .3-.4.1-.8.4-1.2.5-.5.1-1.1.2-1.6.2-.8 0-1.8-.4-2.2.8-1.1.1-2 .3-3 .8-.9.4-1.9 1.2-3.1.8-.1 0-.2.1-.4.2-1.1.4-2.1 1-3.4.8-.2 0-.5.4-.7.6-.3.2-.8.7-1 .6-1.1-.4-1.7 0-2.3.8-.4.6-.8.8-1.3.1-.1-.2-.7-.1-1 0s-.4.4-.6.6c.2.2.5.3.7.5.8.6 1.6 1.1 2.4 1.8.9.8 1.8 1.6 2.5 2.6.8 1.2 1.4 2.6 2 3.9.4 1 .3 2.3.9 3.1.6.9.6 1.7.8 2.6.1.5.6.9 1 1.3.1.1.6-.4.9-.6.2-.1.4-.3.7-.4.9-.2 1.9-.4 2.8-.7.2-.1.4-.3.6-.4.7-.6 1.3-.9 2.3-.8 1.1.1 2.3-.3 3.5-.5.1 0 .2-.2.3-.3.3-.8.7-1.7 1-2.5.5-1.2.9-2.4 1.4-3.5.2-.4.3-.8.6-1.1 1.4-1.2 1.6-3.1 2.6-4.5.2-.2.1-.6.2-.9.1-.2.1-.5.2-.7.7-1.5 1.5-3 2.2-4.6.2-.5.2-1.3.4-2.2zm10.1 49.2c-.3 1-.2 1.2.4 2.2.1.2.3.5.3.7 0 .5.2.8.7 1.1s1 .9 1.2 1.5c.2.8.7 1 1.3 1.4.8.6 1.5 1.3 2.3 2 .2.2.5.3.8.4.4.1 1.1.1 1.3.4.5.7 1.1.7 1.7.6.7-.1 1.3-.2 1.5.6 0 .1.4.2.6.2h1.1c1.2 0 1.9-1 2.9-1.4.1 0 .1-.2.1-.3 0-.6 0-1.2-.1-1.8-.1-.8-.2-1.5-.3-2.3 0-.9.1-1.9.1-2.8 0-.4-.4-.8-.6-1.2-.1-.3-.4-.6-.3-.9.3-1.1 0-2.1-.3-3.1-.5-1.5-1.2-2.9-1-4.5 0-.2-.1-.4-.3-.6-.4-.7-1.9-1-1-2.3 0 0 0-.1-.1-.2-.6-1.5-1.1-3.1-1.7-4.6-.2-.6-.6-.9-1.4-.9-.6 0-1.1-.4-1.7-.5-.5-.1-.9-.2-1.4-.1-.4.1-.8.3-1.1.5-.9.5-2.3 1-2.4 1.6-.3 1.3-1.4 2.1-1.5 3.4 0 .3-.2.8-.4.9-1.1.6-.9 1.8-1.2 2.7-.4 1.7-.3 3.5-.4 5.3.4.7.8 1.3.9 2zm-10.6-16.2h.2c-.3-1.1-.6-2.1-.9-3.2-.2-.9-.9-1.3-1.5-.7-1.1 1-2.8.9-3.4 2.5 0 .1-.2.2-.3.1-1.3-.5-1.8.6-2.6 1.2-.5.4-1.2.5-1.5.9-.7 1.1-1 2.3-.5 3.6.1.2.2.5.2.7-.7 1 0 2 .1 3 .2 1.5 1.6 3.1 3 3.1.9 0 2-.3 2.8-.9.9-.6 1.5-1.6 2.4-2.2 1.3-1.1 1.5-2.7 2.2-4.1.1-.2.1-.5.1-.7-.2-1.1-.2-2.2-.3-3.3zm-9.7-9.4c-.2-.4-.2-.8-.4-.8-1-.1-2.2-.5-3-.1-.6.3-1 .9-1.8.7-.1 0-.2.2-.4.3-.3.2-.7.4-1 .6-.4.2-.8.4-1.2.7-.4.2-.7.6-1.1.8-1.2.5-1.2.7-1.1 2 .2 1.6.2 3.2.2 4.8 0 .2-.1.4-.2.5-.8.9.3 1.7.2 2.6.2 0 .5 0 .7-.1.4-.1.8-.4 1.2-.5.6-.2 1.3-.2 1.9-.5.8-.3 1.5-.9 2.3-1.1.6-.2.7-.4.5-1-.1-.2.1-.6.2-.8s.4-.3.4-.4c-.2-1.3 1.1-2.3.5-3.6-.1-.1.1-.4.2-.5 1.7-1 .5-2.9 1.9-3.6zm0 8c1-.5 1.9-.8 2.6-1.5 1.1-1.1 2.5-1.3 3.9-1.6.6-.2 1.3-1.1 1.1-1.7-.2-.8-.6-1.4-1.3-2-.7-.5-1.1-1.2-2-1.3-.5-.1-.9-.4-1.4-.5-.2 0-.7.1-.8.2-.5 1.4-1 2.9-1.2 4.3-.1.9.3 1.9-.9 2.3-.2.1-.3.6-.3.9-.2.4.1.6.3.9zm-11.9-2.4c.1 0 .2-.1.4-.1-.3-.4-.5-.9-.8-1.1-.7-.3-.8.3-1 .8-.2.6-.4 1.1-1.2 1.1-.1 0-.4.2-.4.3 0 .9-.8 1.4-1.1 2.2-.4.9-.6 1.8-.8 2.8 0 .2.4.5.6.6.3.2.7.3 1 .3.8 0 1.6-.1 2.3.3 0 0 .1-.1.1-.1.3-.5.7-1 .8-1.6.1-1.8.1-3.6.1-5.5z"/></svg>